<?xml version="1.0" encoding="UTF-8" standalone="no"?>
<!-- Created with Inkscape (http://www.inkscape.org/) -->

<svg
   width="210mm"
   height="297mm"
   viewBox="0 0 210 297"
   version="1.1"
   id="svg1"
   inkscape:version="1.4 (86a8ad7, 2024-10-11)"
   sodipodi:docname="RC_DS_competences.svg"
   xmlns:inkscape="http://www.inkscape.org/namespaces/inkscape"
   xmlns:sodipodi="http://sodipodi.sourceforge.net/DTD/sodipodi-0.dtd"
   xmlns="http://www.w3.org/2000/svg"
   xmlns:svg="http://www.w3.org/2000/svg">
  <sodipodi:namedview
     id="namedview1"
     pagecolor="#ffffff"
     bordercolor="#000000"
     borderopacity="0.25"
     inkscape:showpageshadow="2"
     inkscape:pageopacity="0.0"
     inkscape:pagecheckerboard="0"
     inkscape:deskcolor="#d1d1d1"
     inkscape:document-units="mm"
     showguides="true"
     inkscape:zoom="0.70710678"
     inkscape:cx="1216.2237"
     inkscape:cy="-71.417785"
     inkscape:window-width="3840"
     inkscape:window-height="2066"
     inkscape:window-x="-11"
     inkscape:window-y="-11"
     inkscape:window-maximized="1"
     inkscape:current-layer="layer1">
    <sodipodi:guide
       position="111.02955,221.08375"
       orientation="1,0"
       id="guide3"
       inkscape:locked="false" />
    <sodipodi:guide
       position="111.03296,204.2582"
       orientation="0.70710678,0.70710678"
       id="guide6"
       inkscape:locked="false"
       inkscape:label=""
       inkscape:color="rgb(0,134,229)" />
    <sodipodi:guide
       position="111.16587,204.3947"
       orientation="0.70710678,-0.70710678"
       id="guide7"
       inkscape:locked="false"
       inkscape:label=""
       inkscape:color="rgb(0,134,229)" />
  </sodipodi:namedview>
  <defs
     id="defs1">
    <rect
       x="151.75827"
       y="428.85536"
       width="116.12273"
       height="41.779605"
       id="rect44" />
    <rect
       x="275.86828"
       y="92.160894"
       width="144.99981"
       height="119.80916"
       id="rect36" />
    <rect
       x="200.28174"
       y="69.94655"
       width="266.75268"
       height="83.414519"
       id="rect14" />
    <rect
       x="247.63685"
       y="46.486216"
       width="221.56982"
       height="101.22699"
       id="rect10" />
    <rect
       x="308.45994"
       y="87.324574"
       width="198.10948"
       height="96.882488"
       id="rect7" />
  </defs>
  <g
     inkscape:label="Ebene 1"
     inkscape:groupmode="layer"
     id="layer1">
    <circle
       style="fill:none;stroke:#1a1a1a;stroke-width:1.056;stroke-dasharray:none"
       id="path4"
       cx="111.02578"
       cy="92.720245"
       r="21.882769" />
    <text
       xml:space="preserve"
       transform="scale(0.26458333)"
       id="text10"
       style="font-style:normal;font-variant:normal;font-weight:normal;font-stretch:normal;font-size:32px;font-family:Arial;-inkscape-font-specification:Arial;text-align:start;writing-mode:lr-tb;direction:ltr;white-space:pre;shape-inside:url(#rect10);display:inline;fill:#000000;stroke:#1a1a1a" />
    <path
       style="fill:none;stroke:#1a1a1a;stroke-width:1.06866;stroke-dasharray:none"
       d="m 135.20927,201.39768 -16.70075,-43.80631 -6.26715,-43.05545"
       id="path15-8-5-1-2-1-0-6-0" />
    <path
       style="fill:none;stroke:#1a1a1a;stroke-width:1.06866;stroke-dasharray:none"
       d="m -53.141583,168.75489 -4.79378,-46.63612 5.08997,-43.21043"
       id="path15-8-5-1-2-1-0-6-0-1" />
    <path
       style="fill:none;stroke:#1a1a1a;stroke-width:1.06866;stroke-dasharray:none"
       d="m 111.68727,-18.995363 4.79378,46.636117 -5.08997,43.21044"
       id="path15-8-5-1-2-1-0-6-0-1-5" />
    <path
       style="fill:none;stroke:#1a1a1a;stroke-width:1.06866;stroke-dasharray:none"
       d="m 222.63131,93.265027 -46.63612,4.79378 -43.21044,-5.08997"
       id="path15-8-5-1-2-1-0-6-0-1-5-2" />
    <path
       style="fill:none;stroke:#1a1a1a;stroke-width:1.06866;stroke-dasharray:none"
       d="m 189.89834,171.73053 -36.36643,-29.587 -26.95524,-34.15355"
       id="path15-8-5-1-2-1-0-6-0-1-8" />
    <path
       style="fill:none;stroke:#1a1a1a;stroke-width:1.06866;stroke-dasharray:none"
       d="m -0.82613334,92.697973 46.63612134,-4.79378 43.21043,5.08997"
       id="path15-8-5-1-2-1-0-6-0-1-9" />
    <path
       style="fill:none;stroke:#1a1a1a;stroke-width:1.06866;stroke-dasharray:none"
       d="m 189.98678,14.168176 -29.587,36.366431 -34.15355,26.955243"
       id="path15-8-5-1-2-1-0-6-0-1-9-2" />
    <path
       style="fill:none;stroke:#1a1a1a;stroke-width:1.06866;stroke-dasharray:none"
       d="M 32.126146,13.649164 68.492577,43.236167 95.447814,77.389708"
       id="path15-8-5-1-2-1-0-6-0-1-9-5" />
    <path
       style="fill:none;stroke:#1a1a1a;stroke-width:1.06866;stroke-dasharray:none"
       d="m 31.905418,171.47609 29.587,-36.36643 34.153541,-26.95524"
       id="path15-8-5-1-2-1-0-6-0-1-4" />
    <circle
       style="fill:none;fill-opacity:1;stroke:#000000;stroke-width:1.18168;stroke-dasharray:none"
       id="path35"
       cx="111.04015"
       cy="92.763351"
       r="112.03932"
       inkscape:export-filename="RC_DS.png"
       inkscape:export-xdpi="96"
       inkscape:export-ydpi="96" />
    <text
       xml:space="preserve"
       transform="scale(0.26458333)"
       id="text36"
       style="font-style:normal;font-variant:normal;font-weight:normal;font-stretch:normal;font-size:29.3333px;font-family:Arial;-inkscape-font-specification:'Arial, Normal';font-variant-ligatures:normal;font-variant-caps:normal;font-variant-numeric:normal;font-variant-east-asian:normal;text-align:start;writing-mode:lr-tb;direction:ltr;white-space:pre;shape-inside:url(#rect36);display:inline;fill:#f4cae4;fill-opacity:1;stroke:none;stroke-width:2.89134;stroke-dasharray:none"><tspan
         x="275.86914"
         y="238.3928"
         id="tspan10"><tspan
           dx="0 19.565083 16.313786 16.313782 6.5169182 6.5169182 14.666656 16.313782 8.1497269 6.516922 16.313782 16.313789 8.1497192 19.565094"
           id="tspan8">Application/S
</tspan></tspan><tspan
         x="275.86914"
         y="275.05943"
         id="tspan14"><tspan
           dx="0 21.183569 6.5169201 14.666649 14.666649 16.313786 24.434868 6.516922 16.313782 16.313782 8.1497345 6.516922"
           id="tspan13">Disseminatio</tspan></tspan></text>
    <text
       xml:space="preserve"
       transform="scale(0.26458333)"
       id="text44"
       style="font-style:normal;font-variant:normal;font-weight:normal;font-stretch:normal;font-size:26.6667px;font-family:Arial;-inkscape-font-specification:'Arial, Normal';font-variant-ligatures:normal;font-variant-caps:normal;font-variant-numeric:normal;font-variant-east-asian:normal;text-align:start;writing-mode:lr-tb;direction:ltr;white-space:pre;shape-inside:url(#rect44);display:inline;fill:#000000;fill-opacity:1;stroke:none;stroke-width:2.89134;stroke-dasharray:none" />
    <path
       style="fill:#e66101;fill-opacity:1;stroke:none;stroke-width:0.3825;stroke-dasharray:none"
       d="m 96.196511,-96.493408 -2.889945,-5.055302 -4.782971,-2.93778 c -2.630634,-1.61577 -4.869937,-2.99292 -4.976228,-3.06032 -0.153358,-0.0973 -0.0168,-0.28392 0.661458,-0.90415 7.490217,-6.84945 16.391865,-10.81766 26.499315,-11.81297 2.02198,-0.19911 7.97797,-0.082 9.87571,0.19414 4.85506,0.70653 9.02268,1.93217 13.27595,3.90429 3.84136,1.78112 8.40055,4.88009 11.43021,7.76933 l 1.0921,1.04148 -3.16502,5.01163 -3.16501,5.011635 -4.93854,2.759818 c -2.7162,1.517899 -4.97973,2.760126 -5.03006,2.760502 -0.0503,2.64e-4 -0.43729,-0.30279 -0.8599,-0.673706 -2.59989,-2.281897 -6.35291,-4.114361 -10.04492,-4.904574 -1.27922,-0.273796 -1.78443,-0.307599 -4.54793,-0.304292 -2.94198,0.0035 -3.19396,0.02379 -4.69423,0.377381 -4.00251,0.943356 -7.52966,2.783686 -10.320876,5.385022 l -0.529167,0.49317 z"
       id="path80" />
    <path
       style="fill:#fdb863;fill-opacity:1;stroke:none;stroke-width:0.3825;stroke-dasharray:none"
       d="m 108.01614,298.84806 c -9.001796,-0.59174 -17.589456,-3.8264 -24.672386,-9.29321 -1.94833,-1.50377 -3.92394,-3.31358 -3.86164,-3.53756 0.0308,-0.11063 1.45689,-2.49114 3.16916,-5.29003 l 3.1132,-5.08888 4.77759,-2.75935 4.77758,-2.75936 1.02351,0.85254 c 2.95675,2.46285 6.243206,4.05103 10.085486,4.87381 1.1865,0.25408 1.80383,0.29858 4.23333,0.30514 2.45786,0.007 3.04656,-0.0333 4.33327,-0.2941 4.01923,-0.81461 7.80076,-2.68597 10.58532,-5.23833 0.31072,-0.28481 0.5854,-0.49425 0.61039,-0.46542 0.025,0.0288 1.30337,2.2636 2.84085,4.96617 l 2.79541,4.91375 4.99473,3.07943 c 2.74709,1.69368 5.02449,3.10522 5.06087,3.13675 0.0944,0.0819 -1.55811,1.59871 -2.96742,2.72374 -5.91107,4.7187 -12.62003,7.81651 -19.91904,9.19748 -3.14983,0.59594 -7.82859,0.8846 -10.98021,0.67743 z"
       id="path81" />
    <path
       style="fill:#b2abd2;fill-opacity:1;stroke:none;stroke-width:0.3825;stroke-dasharray:none"
       d="m 343.69375,120.72262 -5.02709,-3.11106 -2.85718,-4.99615 -2.85718,-4.99614 0.71978,-0.79375 c 0.93005,-1.02562 2.40884,-3.23555 3.14221,-4.69577 2.53729,-5.05206 3.00876,-11.42737 1.24543,-16.84124 -0.84835,-2.60466 -2.58141,-5.67119 -4.34514,-7.68844 l -0.80004,-0.91503 0.36252,-0.21724 c 0.19939,-0.11948 2.43531,-1.37417 4.96872,-2.7882 l 4.60619,-2.57098 3.11853,-4.96186 c 1.71519,-2.72903 3.14619,-4.99163 3.18001,-5.02801 0.15215,-0.16368 3.29831,3.6037 4.69529,5.62239 3.43213,4.95955 5.93423,10.90552 7.09781,16.86719 0.63669,3.2621 0.73264,4.38757 0.7331,8.59896 5.3e-4,4.213 -0.10993,5.51458 -0.73397,8.65348 -1.61973,8.14727 -5.63388,16.04342 -11.05438,21.74487 l -1.16753,1.22804 z"
       id="path84" />
    <path
       style="fill:#5e3c99;fill-opacity:1;stroke:none;stroke-width:0.3825;stroke-dasharray:none"
       d="m -166.2317,112.7694 c -6.27881,-7.05043 -10.05073,-15.454577 -11.18799,-24.927737 -0.31218,-2.60039 -0.31328,-7.43763 -0.002,-10.05416 1.12602,-9.47387 4.95117,-17.92456 11.35273,-25.080906 l 1.2073,-1.349653 1.60077,0.982445 c 0.88042,0.540346 3.12394,1.916425 4.98559,3.057954 l 3.38484,2.075505 2.30371,4.027393 c 1.26704,2.215067 2.5743,4.482572 2.90502,5.038902 l 0.60132,1.0115 -0.76624,0.9085 c -4.354,5.16238 -6.11495,12.21705 -4.72987,18.94867 0.73863,3.5898 2.56335,7.22593 5.11769,10.19807 l 0.55963,0.65116 -4.78517,2.762877 -4.78518,2.76288 -3.14624,5.15822 c -1.73043,2.83702 -3.1957,5.1747 -3.25615,5.19485 -0.0605,0.0202 -0.67221,-0.59476 -1.35947,-1.36647 z"
       id="path87" />
    <text
       xml:space="preserve"
       style="font-style:normal;font-variant:normal;font-weight:normal;font-stretch:normal;font-size:16.2347px;font-family:Arial;-inkscape-font-specification:'Arial, Normal';font-variant-ligatures:normal;font-variant-caps:normal;font-variant-numeric:normal;font-variant-east-asian:normal;text-align:start;writing-mode:lr-tb;direction:ltr;text-anchor:start;fill:#000000;fill-opacity:1;stroke:#ffffff;stroke-width:1.25732;stroke-dasharray:none"
       x="94.89431"
       y="97.987129"
       id="text89"><tspan
         sodipodi:role="line"
         id="tspan89"
         style="font-size:16.2347px;fill:#000000;stroke:#000000;stroke-width:1.25732"
         x="94.89431"
         y="97.987129"> DS</tspan></text>
    <path
       style="fill:#e66101;fill-opacity:1;stroke:#000000;stroke-width:3.82866;stroke-dasharray:none"
       d="M 471.53541,282.90959 C 460.41692,274.20657 440.22098,266 429.92182,266 c -1.79203,0 -3.87607,-0.23708 -4.63119,-0.52685 -1.12423,-0.4314 0.33459,-14.96919 8.05283,-80.25 l 9.42578,-79.72315 -5.68586,-56 c -3.12722,-30.8 -7.16085,-70.352121 -8.96362,-87.893602 l -3.27776,-31.893601 14.39951,0.680377 c 92.70121,4.380135 183.96384,40.519463 253.31372,100.310366 19.3546,16.68682 23.53075,20.87759 22.33033,22.40846 -12.82199,16.35163 -107.80912,132.57117 -110.75472,135.51165 -4.20063,4.19332 -123.01662,98.22515 -125.0305,98.95004 -0.60519,0.21783 -4.00941,-1.88101 -7.56493,-4.6641 z"
       id="path104"
       transform="scale(0.26458333)" />
    <path
       style="fill:#e66101;fill-opacity:1;stroke:#000000;stroke-width:3.82866;stroke-dasharray:none"
       d="M 310.61787,224.70893 260.64636,161.41787 194.32318,107.55782 C 157.84543,77.9348 127.325,53.05339 126.5,52.26581 c -1.31999,-1.26013 -0.35995,-2.51915 8,-10.49134 25.63391,-24.444925 62.52531,-49.979851 97.7058,-67.6285 52.35392,-26.263876 111.68068,-41.465772 170.98642,-43.813579 l 16.19221,-0.641021 0.51155,2.404315 c 0.28136,1.322374 4.4,40.654315 9.15254,87.404315 l 8.64099,85 -9.11836,78 c -5.0151,42.9 -9.3332,78.98018 -9.59578,80.17817 -0.40237,1.83579 -1.38109,2.27229 -6.22639,2.77694 -16.76967,1.74658 -33.5729,8.29322 -45.07447,17.5613 C 364.27299,285.75738 361.2873,288 361.03965,288 360.792,288 338.1022,259.51902 310.61787,224.70893 Z"
       id="path105"
       transform="scale(0.26458333)" />
    <path
       style="fill:#5e3c99;fill-opacity:1;stroke:#000000;stroke-width:3.82866;stroke-dasharray:none"
       d="m 253.17621,339.21318 -79.82379,-9.52517 -87.176211,9.00323 c -47.946915,4.95178 -87.1985606,8.95948 -87.2258791,8.906 C -1.0769887,347.54376 -0.7754854,339.85 -0.3796627,330.5 2.0399988,273.3435 17.115451,215.66515 43.390951,163.03457 61.462031,126.83768 86.025954,91.339537 111.26788,64.94336 l 9.80933,-10.257888 67.89322,55.238858 67.89322,55.23886 50.2285,63.61683 50.2285,63.61683 -3.66032,4.18858 c -9.96902,11.40772 -17.27413,29.13524 -18.81734,45.66457 -0.3466,3.7125 -0.90307,6.69113 -1.23659,6.61917 -0.33352,-0.072 -36.52711,-4.41715 -80.43019,-9.65599 z"
       id="path106"
       transform="scale(0.26458333)"
       sodipodi:nodetypes="scssssscccccssss" />
    <path
       style="fill:#5e3c99;fill-opacity:1;stroke:#000000;stroke-width:3.82866;stroke-dasharray:none"
       d="M 108.49697,633.40054 C 40.214261,557.3518 1.9376587,462.33436 -0.7504806,362.20583 -0.9812411,353.6104 -0.8496397,352.88098 1,352.50353 c 1.1,-0.22447 40.313306,-4.30204 87.140679,-9.06126 l 85.140681,-8.65313 78.35932,9.14558 c 43.09763,5.03007 79.30239,9.34366 80.45503,9.58576 1.80423,0.37895 2.25933,1.60982 3.27216,8.84986 2.12531,15.19238 8.04122,29.15308 17.13699,40.44082 l 4.81123,5.97068 -63.65805,50.24934 L 230,509.28051 175,577.0867 c -30.25,37.2934 -55.24482,67.83028 -55.54405,67.85974 -0.29923,0.0295 -5.23077,-5.1662 -10.95898,-11.5459 z"
       id="path107"
       transform="scale(0.26458333)" />
    <path
       style="fill:#b2abd2;fill-opacity:1;stroke:#000000;stroke-width:1.013;stroke-dasharray:none"
       d="M 171.97916,156.38446 153.9875,141.73114 140.81074,125.03596 c -8.41727,-10.66483 -13.10532,-16.81353 -12.97899,-17.02286 0.10876,-0.18023 0.66185,-0.91799 1.22907,-1.63948 2.16786,-2.75744 3.94828,-7.24697 4.32251,-10.899718 0.16426,-1.603277 0.18959,-1.648309 0.8617,-1.532125 0.38086,0.06584 9.93852,1.200634 21.23925,2.521776 l 20.54677,2.402075 22.31572,-2.274861 c 12.27365,-1.251172 22.71747,-2.340748 23.20849,-2.421282 l 0.89277,-0.146423 -0.18352,3.391594 c -1.00778,18.625074 -5.75432,35.077384 -14.6421,50.752004 -1.90567,3.36087 -6.41659,10.04758 -9.01377,13.36146 -2.50913,3.20153 -7.9224,9.29918 -8.37323,9.43181 -0.14552,0.0428 -8.36083,-6.51615 -18.25625,-14.57547 z"
       id="path110" />
    <path
       style="fill:#b2abd2;fill-opacity:1;stroke:#000000;stroke-width:3.82866;stroke-dasharray:none"
       d="m 583,358.42865 c -42.9,-5.13283 -78.1125,-9.35407 -78.25,-9.38053 -0.1375,-0.0265 -0.25,-1.80853 -0.25,-3.96015 0,-14.71162 -8.19822,-35.75394 -19.09426,-49.0091 -1.54674,-1.88162 -2.62556,-3.7232 -2.39739,-4.09238 0.22817,-0.36919 28.45797,-22.7964 62.73288,-49.83823 l 62.31802,-49.16698 55.28704,-67.97283 c 30.40787,-37.385049 55.66387,-68.20571 56.12443,-68.490352 1.96338,-1.213436 32.30566,34.927083 46.16083,54.981902 45.53358,65.90811 70.59225,141.179 74.46187,223.66762 l 0.68808,14.66762 -4.39075,0.59357 C 833.97584,350.75527 807.7,353.50202 778,356.53269 c -29.7,3.03067 -66.87513,6.85064 -82.6114,8.48881 -15.73627,1.63818 -29.91127,2.92474 -31.5,2.85904 C 662.29987,367.81483 625.9,363.56149 583,358.42865 Z"
       id="path111"
       transform="scale(0.26458333)" />
    <path
       style="fill:#fdb863;stroke:#1a1a1a;stroke-width:3.82866147;fill-opacity:1;stroke-dasharray:none"
       d="m 397,770.98727 c -72.57971,-4.34413 -140.32434,-25.90679 -201.30695,-64.07464 -15.9548,-9.9858 -34.39287,-23.54328 -49.19305,-36.17157 -7.34477,-6.26693 -23.50559,-21.16584 -23.48741,-21.6534 0.007,-0.18571 24.99081,-31.02794 55.51974,-68.53828 l 55.50715,-68.20063 63.54973,-50.15346 63.54973,-50.15346 3.05553,2.77573 c 9.31804,8.46477 24.20783,15.84108 37.63367,18.64348 5.2573,1.09736 13.55812,2.03896 17.97484,2.03896 2.23066,0 2.69911,0.1513 2.70909,0.875 0.007,0.48125 5.28123,36.875 11.72132,80.875 l 11.70925,80 31.44037,82.25 c 17.29221,45.2375 31.39537,82.316 31.34035,82.39667 -0.055,0.0807 -3.39672,0.81289 -7.42601,1.62716 -14.53193,2.93672 -33.89458,5.57258 -51.29735,6.98318 -8.84916,0.71727 -43.75542,1.03357 -53,0.48026 z"
       id="path23"
       transform="scale(0.26458333)" />
    <path
       style="fill:#fdb863;fill-opacity:1;stroke:#000000;stroke-width:3.82866147;stroke-dasharray:none"
       d="m 513,760.4289 c 0,-0.3141 -14.15982,-37.72035 -31.46626,-83.125 L 450.06748,594.75 438.53374,515.45597 C 432.19018,471.84425 427,435.9346 427,435.65674 c 0,-0.27786 1.96875,-0.7754 4.375,-1.10564 15.8224,-2.17151 31.04423,-9.00435 43.47846,-19.51677 l 3.60347,-3.04652 50.0633,63.4307 50.0633,63.43069 67.54005,54.9504 c 37.14703,30.22272 67.89699,55.21827 68.33324,55.54567 0.68976,0.51764 0.40201,0.99572 -2.20682,3.66651 -6.58814,6.74462 -19.78622,18.36181 -31,27.28677 -40.75477,32.4364 -87.65275,57.10533 -138.25,72.72125 -7.1363,2.20249 -28.54842,7.9681 -29.625,7.97708 -0.20625,0.002 -0.375,-0.25387 -0.375,-0.56798 z"
       id="path24"
       transform="scale(0.26458333)" />
  </g>
  <g
     inkscape:groupmode="layer"
     id="layer2"
     inkscape:label="Ebene 2"
     style="display:inline">
    <text
       xml:space="preserve"
       style="font-style:normal;font-variant:normal;font-weight:normal;font-stretch:normal;font-size:7.05556px;font-family:Arial;-inkscape-font-specification:'Arial, Normal';font-variant-ligatures:normal;font-variant-caps:normal;font-variant-numeric:normal;font-variant-east-asian:normal;text-align:start;writing-mode:lr-tb;direction:ltr;text-anchor:start;fill:#000000;fill-opacity:1;stroke:none;stroke-width:0.765;stroke-dasharray:none"
       x="33.924873"
       y="-68.166122"
       id="text37"><tspan
         sodipodi:role="line"
         id="tspan37"
         style="font-size:7.05556px;fill:#000000;fill-opacity:1;stroke-width:0.765"
         x="33.924873"
         y="-68.166122">Application/</tspan><tspan
         sodipodi:role="line"
         style="font-size:7.05556px;fill:#000000;fill-opacity:1;stroke-width:0.765"
         x="33.924873"
         y="-59.346672"
         id="tspan38">Dissemination</tspan></text>
    <text
       xml:space="preserve"
       style="font-style:normal;font-variant:normal;font-weight:normal;font-stretch:normal;font-size:7.05556px;font-family:Arial;-inkscape-font-specification:'Arial, Normal';font-variant-ligatures:normal;font-variant-caps:normal;font-variant-numeric:normal;font-variant-east-asian:normal;text-align:start;writing-mode:lr-tb;direction:ltr;text-anchor:start;fill:#000000;fill-opacity:1;stroke:none;stroke-width:0.765;stroke-dasharray:none"
       x="298.97382"
       y="0.53333008"
       id="text37-6"><tspan
         sodipodi:role="line"
         style="font-size:7.05556px;stroke-width:0.765"
         x="298.97382"
         y="0.53333008"
         id="tspan38-0">Search &amp;</tspan><tspan
         sodipodi:role="line"
         style="font-size:7.05556px;stroke-width:0.765"
         x="298.97382"
         y="9.3527803"
         id="tspan39">Discovery</tspan></text>
    <text
       xml:space="preserve"
       style="font-style:normal;font-variant:normal;font-weight:normal;font-stretch:normal;font-size:7.05556px;font-family:Arial;-inkscape-font-specification:'Arial, Normal';font-variant-ligatures:normal;font-variant-caps:normal;font-variant-numeric:normal;font-variant-east-asian:normal;text-align:start;writing-mode:lr-tb;direction:ltr;text-anchor:start;fill:#000000;fill-opacity:1;stroke:none;stroke-width:0.765;stroke-dasharray:none"
       x="283.36798"
       y="165.18036"
       id="text37-6-7"><tspan
         sodipodi:role="line"
         style="font-size:7.05556px;stroke-width:0.765"
         x="283.36798"
         y="165.18036"
         id="tspan38-0-8">Research</tspan><tspan
         sodipodi:role="line"
         style="font-size:7.05556px;stroke-width:0.765"
         x="283.36798"
         y="173.9998"
         id="tspan40">Hypothesis</tspan><tspan
         sodipodi:role="line"
         style="font-size:7.05556px;stroke-width:0.765"
         x="283.36798"
         y="182.81926"
         id="tspan39-8">/Question</tspan></text>
    <text
       xml:space="preserve"
       style="font-style:normal;font-variant:normal;font-weight:normal;font-stretch:normal;font-size:5.64444px;font-family:Arial;-inkscape-font-specification:'Arial, Normal';font-variant-ligatures:normal;font-variant-caps:normal;font-variant-numeric:normal;font-variant-east-asian:normal;text-align:start;writing-mode:lr-tb;direction:ltr;text-anchor:start;display:inline;fill:#000000;fill-opacity:1;stroke:none;stroke-width:0.765;stroke-dasharray:none"
       x="222.94453"
       y="151.94247"
       id="text37-6-7-7-9"><tspan
         sodipodi:role="line"
         id="tspan92"
         x="222.94453"
         y="151.94247">Conducting</tspan><tspan
         sodipodi:role="line"
         id="tspan93"
         x="222.94453"
         y="158.99803">Research</tspan></text>
    <text
       xml:space="preserve"
       style="font-style:normal;font-variant:normal;font-weight:normal;font-stretch:normal;font-size:5.64444px;font-family:Arial;-inkscape-font-specification:'Arial, Normal';font-variant-ligatures:normal;font-variant-caps:normal;font-variant-numeric:normal;font-variant-east-asian:normal;text-align:start;writing-mode:lr-tb;direction:ltr;text-anchor:start;display:inline;fill:#000000;fill-opacity:1;stroke:none;stroke-width:0.765;stroke-dasharray:none"
       x="71.420952"
       y="141.82494"
       id="text37-6-7-7-9-8"><tspan
         sodipodi:role="line"
         id="tspan93-2"
         x="71.420952"
         y="141.82494">Visualization </tspan><tspan
         sodipodi:role="line"
         x="71.420952"
         y="148.88049"
         id="tspan6">Theory</tspan><tspan
         sodipodi:role="line"
         x="71.420952"
         y="155.93604"
         id="tspan5" /></text>
    <text
       xml:space="preserve"
       style="font-style:normal;font-variant:normal;font-weight:normal;font-stretch:normal;font-size:5.64444px;font-family:Arial;-inkscape-font-specification:'Arial, Normal';font-variant-ligatures:normal;font-variant-caps:normal;font-variant-numeric:normal;font-variant-east-asian:normal;text-align:start;writing-mode:lr-tb;direction:ltr;text-anchor:start;display:inline;fill:#000000;fill-opacity:1;stroke:none;stroke-width:0.765;stroke-dasharray:none"
       x="84.774155"
       y="123.49977"
       id="text37-6-7-7-9-8-2"><tspan
         sodipodi:role="line"
         x="84.774155"
         y="123.49977"
         id="tspan5-8">Algorithm </tspan><tspan
         sodipodi:role="line"
         x="84.774155"
         y="130.55533"
         id="tspan9">Selection</tspan></text>
    <text
       xml:space="preserve"
       style="font-style:normal;font-variant:normal;font-weight:normal;font-stretch:normal;font-size:5.64444px;font-family:Arial;-inkscape-font-specification:'Arial, Normal';font-variant-ligatures:normal;font-variant-caps:normal;font-variant-numeric:normal;font-variant-east-asian:normal;text-align:start;writing-mode:lr-tb;direction:ltr;text-anchor:start;display:inline;fill:#000000;fill-opacity:1;stroke:none;stroke-width:0.765;stroke-dasharray:none"
       x="93.637695"
       y="192.02686"
       id="text37-6-7-7-9-8-18"><tspan
         sodipodi:role="line"
         x="93.637695"
         y="192.02686"
         id="tspan5-7">Data-oriented </tspan><tspan
         sodipodi:role="line"
         x="93.637695"
         y="199.08241"
         id="tspan11">Programming</tspan></text>
    <text
       xml:space="preserve"
       style="font-style:normal;font-variant:normal;font-weight:normal;font-stretch:normal;font-size:5.64444px;font-family:Arial;-inkscape-font-specification:'Arial, Normal';font-variant-ligatures:normal;font-variant-caps:normal;font-variant-numeric:normal;font-variant-east-asian:normal;text-align:start;writing-mode:lr-tb;direction:ltr;text-anchor:start;display:inline;fill:#000000;fill-opacity:1;stroke:none;stroke-width:0.765;stroke-dasharray:none"
       x="48.909332"
       y="171.65395"
       id="text37-6-7-7-9-8-18-3"><tspan
         sodipodi:role="line"
         x="48.909332"
         y="171.65395"
         id="tspan11-2">Design of Data Workflows</tspan></text>
    <text
       xml:space="preserve"
       style="font-style:normal;font-variant:normal;font-weight:normal;font-stretch:normal;font-size:5.64444px;font-family:Arial;-inkscape-font-specification:'Arial, Normal';font-variant-ligatures:normal;font-variant-caps:normal;font-variant-numeric:normal;font-variant-east-asian:normal;text-align:start;writing-mode:lr-tb;direction:ltr;text-anchor:start;display:inline;fill:#000000;fill-opacity:1;stroke:none;stroke-width:0.765;stroke-dasharray:none"
       x="63.210613"
       y="181.17896"
       id="text37-6-7-7-9-8-7"><tspan
         sodipodi:role="line"
         x="63.210613"
         y="181.17896"
         id="tspan7">Objective Function</tspan><tspan
         sodipodi:role="line"
         x="63.210613"
         y="188.23451"
         id="tspan12">Definition</tspan><tspan
         sodipodi:role="line"
         x="63.210613"
         y="195.29005"
         id="tspan5-4" /></text>
    <text
       xml:space="preserve"
       style="font-style:normal;font-variant:normal;font-weight:normal;font-stretch:normal;font-size:5.64444px;font-family:Arial;-inkscape-font-specification:'Arial, Normal';font-variant-ligatures:normal;font-variant-caps:normal;font-variant-numeric:normal;font-variant-east-asian:normal;text-align:start;writing-mode:lr-tb;direction:ltr;text-anchor:start;display:inline;fill:#000000;fill-opacity:1;stroke:none;stroke-width:0.765;stroke-dasharray:none"
       x="56.378296"
       y="156.30811"
       id="text37-6-7-7-9-8-1"><tspan
         sodipodi:role="line"
         id="tspan93-2-7"
         x="56.378296"
         y="156.30811">Data Integration</tspan><tspan
         sodipodi:role="line"
         x="56.378296"
         y="163.36366"
         id="tspan5-1">&amp; Feature Engineering</tspan></text>
    <text
       xml:space="preserve"
       style="font-style:normal;font-variant:normal;font-weight:normal;font-stretch:normal;font-size:5.64444px;font-family:Sans;-inkscape-font-specification:'Sans, Normal';font-variant-ligatures:normal;font-variant-caps:normal;font-variant-numeric:normal;font-variant-east-asian:normal;text-align:start;writing-mode:lr-tb;direction:ltr;text-anchor:start;display:inline;fill:#ffffff;fill-opacity:1;stroke:none;stroke-width:0.765;stroke-dasharray:none"
       x="4.1203346"
       y="99.803024"
       id="text37-6-7-7-9-6-1-3-8-1"><tspan
         sodipodi:role="line"
         id="tspan97-84-8-9"
         x="4.1203346"
         y="99.803024">Deployment of Data Pipelines</tspan><tspan
         sodipodi:role="line"
         x="4.1203346"
         y="106.85857"
         id="tspan24">&amp; Operational Models</tspan></text>
    <text
       xml:space="preserve"
       style="font-style:normal;font-variant:normal;font-weight:normal;font-stretch:normal;font-size:5.64444px;font-family:Sans;-inkscape-font-specification:'Sans, Normal';font-variant-ligatures:normal;font-variant-caps:normal;font-variant-numeric:normal;font-variant-east-asian:normal;text-align:start;writing-mode:lr-tb;direction:ltr;text-anchor:start;display:inline;fill:#ffffff;fill-opacity:1;stroke:none;stroke-width:0.765;stroke-dasharray:none"
       x="11.589301"
       y="123.11394"
       id="text37-6-7-7-9-6-1-3-8-1-2"><tspan
         sodipodi:role="line"
         x="11.589301"
         y="123.11394"
         id="tspan24-8">Project Management</tspan><tspan
         sodipodi:role="line"
         x="11.589301"
         y="130.16948"
         id="tspan25">&amp; Interdisciplinary </tspan><tspan
         sodipodi:role="line"
         x="11.589301"
         y="137.22504"
         id="tspan26">Communication</tspan></text>
    <text
       xml:space="preserve"
       style="font-style:normal;font-variant:normal;font-weight:normal;font-stretch:normal;font-size:5.64444px;font-family:Sans;-inkscape-font-specification:'Sans, Normal';font-variant-ligatures:normal;font-variant-caps:normal;font-variant-numeric:normal;font-variant-east-asian:normal;text-align:start;writing-mode:lr-tb;direction:ltr;text-anchor:start;display:inline;fill:#ffffff;fill-opacity:1;stroke:none;stroke-width:0.765;stroke-dasharray:none"
       x="7.0913858"
       y="65.250107"
       id="text37-6-7-7-9-6-1-3-8-1-2-3"><tspan
         sodipodi:role="line"
         x="7.0913858"
         y="65.250107"
         id="tspan26-5">Explorative Data Analysis</tspan></text>
    <text
       xml:space="preserve"
       style="font-style:normal;font-variant:normal;font-weight:normal;font-stretch:normal;font-size:5.64444px;font-family:Sans;-inkscape-font-specification:'Sans, Normal';font-variant-ligatures:normal;font-variant-caps:normal;font-variant-numeric:normal;font-variant-east-asian:normal;text-align:start;writing-mode:lr-tb;direction:ltr;text-anchor:start;display:inline;fill:#ffffff;fill-opacity:1;stroke:none;stroke-width:0.765;stroke-dasharray:none"
       x="15.191493"
       y="43.711369"
       id="text37-6-7-7-9-6-1-3-8-1-2-3-0"><tspan
         sodipodi:role="line"
         x="15.191493"
         y="43.711369"
         id="tspan26-5-01">Model Inference</tspan></text>
    <text
       xml:space="preserve"
       style="font-style:normal;font-variant:normal;font-weight:normal;font-stretch:normal;font-size:5.64444px;font-family:Sans;-inkscape-font-specification:'Sans, Normal';font-variant-ligatures:normal;font-variant-caps:normal;font-variant-numeric:normal;font-variant-east-asian:normal;text-align:start;writing-mode:lr-tb;direction:ltr;text-anchor:start;display:inline;fill:#ffffff;fill-opacity:1;stroke:none;stroke-width:0.765;stroke-dasharray:none"
       x="19.027952"
       y="35.906162"
       id="text37-6-7-7-9-6-1-3-8-1-2-3-9"><tspan
         sodipodi:role="line"
         x="19.027952"
         y="35.906162"
         id="tspan26-5-7">Data Mining</tspan></text>
    <text
       xml:space="preserve"
       style="font-style:normal;font-variant:normal;font-weight:normal;font-stretch:normal;font-size:5.64444px;font-family:Sans;-inkscape-font-specification:'Sans, Normal';font-variant-ligatures:normal;font-variant-caps:normal;font-variant-numeric:normal;font-variant-east-asian:normal;text-align:start;writing-mode:lr-tb;direction:ltr;text-anchor:start;display:inline;fill:#ffffff;fill-opacity:1;stroke:none;stroke-width:0.765;stroke-dasharray:none"
       x="2.7560771"
       y="72.815536"
       id="text37-6-7-7-9-6-1-3-8-1-2-3-7"><tspan
         sodipodi:role="line"
         x="2.7560771"
         y="72.815536"
         id="tspan26-5-5">Ethical Analysis of Bias,</tspan><tspan
         sodipodi:role="line"
         x="2.7560771"
         y="79.871086"
         id="tspan32">Fairness &amp; Model Accountability</tspan></text>
    <text
       xml:space="preserve"
       style="font-style:normal;font-variant:normal;font-weight:normal;font-stretch:normal;font-size:5.64444px;font-family:Sans;-inkscape-font-specification:'Sans, Normal';font-variant-ligatures:normal;font-variant-caps:normal;font-variant-numeric:normal;font-variant-east-asian:normal;text-align:start;writing-mode:lr-tb;direction:ltr;text-anchor:start;display:inline;fill:#ffffff;fill-opacity:1;stroke:none;stroke-width:0.765;stroke-dasharray:none"
       x="11.751911"
       y="50.458241"
       id="text37-6-7-7-9-6-1-3-8-1-2-3-6"><tspan
         sodipodi:role="line"
         x="11.751911"
         y="50.458241"
         id="tspan26-5-0">Time Series Analysis</tspan></text>
    <text
       xml:space="preserve"
       style="font-style:normal;font-variant:normal;font-weight:normal;font-stretch:normal;font-size:5.64444px;font-family:Sans;-inkscape-font-specification:'Sans, Normal';font-variant-ligatures:normal;font-variant-caps:normal;font-variant-numeric:normal;font-variant-east-asian:normal;text-align:start;writing-mode:lr-tb;direction:ltr;text-anchor:start;display:inline;fill:#ffffff;fill-opacity:1;stroke:none;stroke-width:0.765;stroke-dasharray:none"
       x="8.4666672"
       y="57.866577"
       id="text37-6-7-7-9-6-1-3-8-1-2-3-6-7"><tspan
         sodipodi:role="line"
         x="8.4666672"
         y="57.866577"
         id="tspan26-5-0-1">Optimization Strategies</tspan></text>
    <text
       xml:space="preserve"
       style="font-style:normal;font-variant:normal;font-weight:normal;font-stretch:normal;font-size:5.64444px;font-family:Sans;-inkscape-font-specification:'Sans, Normal';font-variant-ligatures:normal;font-variant-caps:normal;font-variant-numeric:normal;font-variant-east-asian:normal;text-align:start;writing-mode:lr-tb;direction:ltr;text-anchor:start;display:inline;fill:#000000;fill-opacity:1;stroke:none;stroke-width:0.765;stroke-dasharray:none"
       x="63.050762"
       y="26.488646"
       id="text37-6-7-7-9-6-1-3-8-1-2-6"><tspan
         sodipodi:role="line"
         x="63.050762"
         y="26.488646"
         id="tspan26-8">Result Reporting</tspan></text>
    <text
       xml:space="preserve"
       style="font-style:normal;font-variant:normal;font-weight:normal;font-stretch:normal;font-size:5.64444px;font-family:Sans;-inkscape-font-specification:'Sans, Normal';font-variant-ligatures:normal;font-variant-caps:normal;font-variant-numeric:normal;font-variant-east-asian:normal;text-align:start;writing-mode:lr-tb;direction:ltr;text-anchor:start;display:inline;fill:#000000;fill-opacity:1;stroke:none;stroke-width:0.765;stroke-dasharray:none"
       x="69.298782"
       y="-0.34175673"
       id="text37-6-7-7-9-6-1-3-8-1-2-6-9"><tspan
         sodipodi:role="line"
         x="69.298782"
         y="-0.34175673"
         id="tspan26-8-1">FAIR Principles</tspan></text>
    <text
       xml:space="preserve"
       style="font-style:normal;font-variant:normal;font-weight:normal;font-stretch:normal;font-size:5.64444px;font-family:Sans;-inkscape-font-specification:'Sans, Normal';font-variant-ligatures:normal;font-variant-caps:normal;font-variant-numeric:normal;font-variant-east-asian:normal;text-align:start;writing-mode:lr-tb;direction:ltr;text-anchor:start;display:inline;fill:#000000;fill-opacity:1;stroke:none;stroke-width:0.765;stroke-dasharray:none"
       x="43.766491"
       y="10.638455"
       id="text37-6-7-7-9-6-1-3-8-1-2-6-9-8"><tspan
         sodipodi:role="line"
         x="43.766491"
         y="10.638455"
         id="tspan26-8-1-4">Publishing on </tspan><tspan
         sodipodi:role="line"
         x="43.766491"
         y="17.694006"
         id="tspan30">Open Science Platforms</tspan></text>
    <text
       xml:space="preserve"
       style="font-style:normal;font-variant:normal;font-weight:normal;font-stretch:normal;font-size:5.64444px;font-family:Sans;-inkscape-font-specification:'Sans, Normal';font-variant-ligatures:normal;font-variant-caps:normal;font-variant-numeric:normal;font-variant-east-asian:normal;text-align:start;writing-mode:lr-tb;direction:ltr;text-anchor:start;display:inline;fill:#000000;fill-opacity:1;stroke:none;stroke-width:0.765;stroke-dasharray:none"
       x="76.971703"
       y="37.096786"
       id="text37-6-7-7-9-6-1-3-8-1-2-6-3"><tspan
         sodipodi:role="line"
         x="76.971703"
         y="37.096786"
         id="tspan26-8-7">Usage of</tspan><tspan
         sodipodi:role="line"
         x="76.971703"
         y="44.152336"
         id="tspan29">Dashboards</tspan></text>
    <text
       xml:space="preserve"
       style="font-style:normal;font-variant:normal;font-weight:normal;font-stretch:normal;font-size:5.64444px;font-family:Sans;-inkscape-font-specification:'Sans, Normal';font-variant-ligatures:normal;font-variant-caps:normal;font-variant-numeric:normal;font-variant-east-asian:normal;text-align:start;writing-mode:lr-tb;direction:ltr;text-anchor:start;display:inline;fill:#ffffff;fill-opacity:1;stroke:none;stroke-width:0.765;stroke-dasharray:none"
       x="23.098677"
       y="149.78448"
       id="text37-6-7-7-9-6-1-3-8-1-2-9"><tspan
         sodipodi:role="line"
         x="23.098677"
         y="149.78448"
         id="tspan26-6">Tool</tspan><tspan
         sodipodi:role="line"
         x="23.098677"
         y="156.84004"
         id="tspan28">Usage</tspan></text>
    <text
       xml:space="preserve"
       style="font-style:normal;font-variant:normal;font-weight:normal;font-stretch:normal;font-size:5.64444px;font-family:Sans;-inkscape-font-specification:'Sans, Normal';font-variant-ligatures:normal;font-variant-caps:normal;font-variant-numeric:normal;font-variant-east-asian:normal;text-align:start;writing-mode:lr-tb;direction:ltr;text-anchor:start;display:inline;fill:#ffffff;fill-opacity:1;stroke:none;stroke-width:0.765;stroke-dasharray:none"
       x="15.345835"
       y="114.48741"
       id="text37-6-7-7-9-6-1-3-8-1-2-9-9"><tspan
         sodipodi:role="line"
         x="15.345835"
         y="114.48741"
         id="tspan28-4">ML/DL Experiments</tspan></text>
    <text
       xml:space="preserve"
       style="font-style:normal;font-variant:normal;font-weight:normal;font-stretch:normal;font-size:7.05556px;font-family:Arial;-inkscape-font-specification:'Arial, Normal';font-variant-ligatures:normal;font-variant-caps:normal;font-variant-numeric:normal;font-variant-east-asian:normal;text-align:start;writing-mode:lr-tb;direction:ltr;text-anchor:start;fill:#000000;fill-opacity:1;stroke:none;stroke-width:0.765;stroke-dasharray:none"
       x="193.95193"
       y="235.73575"
       id="text37-6-7-3"><tspan
         sodipodi:role="line"
         style="font-size:7.05556px;stroke-width:0.765"
         x="193.95193"
         y="235.73575"
         id="tspan38-0-8-5">Study</tspan><tspan
         sodipodi:role="line"
         style="font-size:7.05556px;stroke-width:0.765"
         x="193.95193"
         y="244.55519"
         id="tspan39-8-8">Concept-</tspan><tspan
         sodipodi:role="line"
         style="font-size:7.05556px;stroke-width:0.765"
         x="193.95193"
         y="253.37465"
         id="tspan43">ualization</tspan></text>
    <text
       xml:space="preserve"
       style="font-style:normal;font-variant:normal;font-weight:normal;font-stretch:normal;font-size:5.64444px;font-family:Arial;-inkscape-font-specification:'Arial, Normal';font-variant-ligatures:normal;font-variant-caps:normal;font-variant-numeric:normal;font-variant-east-asian:normal;text-align:start;writing-mode:lr-tb;direction:ltr;text-anchor:start;display:inline;fill:#000000;fill-opacity:1;stroke:none;stroke-width:0.765;stroke-dasharray:none"
       x="131.71016"
       y="173.54395"
       id="text37-6-7-3-7"><tspan
         sodipodi:role="line"
         style="font-style:normal;font-variant:normal;font-weight:normal;font-stretch:normal;font-size:5.64444px;font-family:Arial;-inkscape-font-specification:'Arial, Normal';font-variant-ligatures:normal;font-variant-caps:normal;font-variant-numeric:normal;font-variant-east-asian:normal;stroke-width:0.765"
         x="131.71016"
         y="173.54395"
         id="tspan43-3">Awareness of Data</tspan><tspan
         sodipodi:role="line"
         style="font-style:normal;font-variant:normal;font-weight:normal;font-stretch:normal;font-size:5.64444px;font-family:Arial;-inkscape-font-specification:'Arial, Normal';font-variant-ligatures:normal;font-variant-caps:normal;font-variant-numeric:normal;font-variant-east-asian:normal;stroke-width:0.765"
         x="131.71016"
         y="180.5995"
         id="tspan19">Context, Purpose</tspan><tspan
         sodipodi:role="line"
         style="font-style:normal;font-variant:normal;font-weight:normal;font-stretch:normal;font-size:5.64444px;font-family:Arial;-inkscape-font-specification:'Arial, Normal';font-variant-ligatures:normal;font-variant-caps:normal;font-variant-numeric:normal;font-variant-east-asian:normal;stroke-width:0.765"
         x="131.71016"
         y="187.65504"
         id="tspan20">&amp; Implications</tspan></text>
    <text
       xml:space="preserve"
       style="font-style:normal;font-variant:normal;font-weight:normal;font-stretch:normal;font-size:5.64444px;font-family:Arial;-inkscape-font-specification:'Arial, Normal';font-variant-ligatures:normal;font-variant-caps:normal;font-variant-numeric:normal;font-variant-east-asian:normal;text-align:start;writing-mode:lr-tb;direction:ltr;text-anchor:start;display:inline;fill:#000000;fill-opacity:1;stroke:none;stroke-width:0.765;stroke-dasharray:none"
       x="121.98119"
       y="152.27599"
       id="text37-6-7-3-7-6"><tspan
         sodipodi:role="line"
         style="font-style:normal;font-variant:normal;font-weight:normal;font-stretch:normal;font-size:5.64444px;font-family:Arial;-inkscape-font-specification:'Arial, Normal';font-variant-ligatures:normal;font-variant-caps:normal;font-variant-numeric:normal;font-variant-east-asian:normal;stroke-width:0.765"
         x="121.98119"
         y="152.27599"
         id="tspan20-2">Understanding</tspan><tspan
         sodipodi:role="line"
         style="font-style:normal;font-variant:normal;font-weight:normal;font-stretch:normal;font-size:5.64444px;font-family:Arial;-inkscape-font-specification:'Arial, Normal';font-variant-ligatures:normal;font-variant-caps:normal;font-variant-numeric:normal;font-variant-east-asian:normal;stroke-width:0.765"
         x="121.98119"
         y="159.33154"
         id="tspan22">the Data Science </tspan><tspan
         sodipodi:role="line"
         style="font-style:normal;font-variant:normal;font-weight:normal;font-stretch:normal;font-size:5.64444px;font-family:Arial;-inkscape-font-specification:'Arial, Normal';font-variant-ligatures:normal;font-variant-caps:normal;font-variant-numeric:normal;font-variant-east-asian:normal;stroke-width:0.765"
         x="121.98119"
         y="166.38708"
         id="tspan23"> Lifecycle</tspan></text>
    <text
       xml:space="preserve"
       style="font-style:normal;font-variant:normal;font-weight:normal;font-stretch:normal;font-size:7.05556px;font-family:Arial;-inkscape-font-specification:'Arial, Normal';font-variant-ligatures:normal;font-variant-caps:normal;font-variant-numeric:normal;font-variant-east-asian:normal;text-align:start;writing-mode:lr-tb;direction:ltr;text-anchor:start;fill:#000000;fill-opacity:1;stroke:none;stroke-width:0.765;stroke-dasharray:none"
       x="44.071217"
       y="268.61584"
       id="text37-6-7-6"><tspan
         sodipodi:role="line"
         style="font-size:7.05556px;stroke-width:0.765"
         x="44.071217"
         y="268.61584"
         id="tspan38-0-8-3">Study</tspan><tspan
         sodipodi:role="line"
         style="font-size:7.05556px;stroke-width:0.765"
         x="44.071217"
         y="277.4353"
         id="tspan39-8-1">Design</tspan></text>
    <text
       xml:space="preserve"
       style="font-style:normal;font-variant:normal;font-weight:normal;font-stretch:normal;font-size:7.05556px;font-family:Arial;-inkscape-font-specification:'Arial, Normal';font-variant-ligatures:normal;font-variant-caps:normal;font-variant-numeric:normal;font-variant-east-asian:normal;text-align:start;writing-mode:lr-tb;direction:ltr;text-anchor:start;fill:#000000;fill-opacity:1;stroke:none;stroke-width:0.765;stroke-dasharray:none"
       x="-139.01723"
       y="170.73685"
       id="text37-6-7-0"><tspan
         sodipodi:role="line"
         style="font-size:7.05556px;fill:#000000;stroke-width:0.765"
         x="-139.01723"
         y="170.73685"
         id="tspan40-7">Implemen-</tspan><tspan
         sodipodi:role="line"
         style="font-size:7.05556px;fill:#000000;stroke-width:0.765"
         x="-139.01723"
         y="179.55629"
         id="tspan45">tation</tspan><tspan
         sodipodi:role="line"
         style="font-size:7.05556px;fill:#000000;stroke-width:0.765"
         x="-139.01723"
         y="188.37575"
         id="tspan39-8-3" /></text>
    <text
       xml:space="preserve"
       style="font-style:normal;font-variant:normal;font-weight:normal;font-stretch:normal;font-size:7.05556px;font-family:Arial;-inkscape-font-specification:'Arial, Normal';font-variant-ligatures:normal;font-variant-caps:normal;font-variant-numeric:normal;font-variant-east-asian:normal;text-align:start;writing-mode:lr-tb;direction:ltr;text-anchor:start;fill:#000000;fill-opacity:1;stroke:none;stroke-width:0.765;stroke-dasharray:none"
       x="-99.081543"
       y="-36.801193"
       id="text37-6-7-01"><tspan
         sodipodi:role="line"
         style="font-size:7.05556px;fill:#000000;stroke-width:0.765"
         x="-99.081543"
         y="-36.801193"
         id="tspan38-0-8-6">Analysis &amp;</tspan><tspan
         sodipodi:role="line"
         style="font-size:7.05556px;fill:#000000;stroke-width:0.765"
         x="-99.081543"
         y="-27.981743"
         id="tspan39-8-7">Interpre-</tspan><tspan
         sodipodi:role="line"
         style="font-size:7.05556px;fill:#000000;stroke-width:0.765"
         x="-99.081543"
         y="-19.162292"
         id="tspan46">tation</tspan></text>
    <text
       xml:space="preserve"
       style="font-style:normal;font-variant:normal;font-weight:normal;font-stretch:normal;font-size:7.05556px;font-family:Arial;-inkscape-font-specification:'Arial, Normal';font-variant-ligatures:normal;font-variant-caps:normal;font-variant-numeric:normal;font-variant-east-asian:normal;text-align:start;writing-mode:lr-tb;direction:ltr;text-anchor:start;fill:#000000;fill-opacity:1;stroke:none;stroke-width:0.765;stroke-dasharray:none"
       x="210.38879"
       y="-112.11749"
       id="text37-7"><tspan
         sodipodi:role="line"
         style="font-size:7.05556px;stroke-width:0.765"
         x="210.38879"
         y="-112.11749"
         id="tspan54">Practical</tspan><tspan
         sodipodi:role="line"
         style="font-size:7.05556px;stroke-width:0.765"
         x="210.38879"
         y="-103.29804"
         id="tspan55">Application</tspan></text>
    <text
       xml:space="preserve"
       style="font-style:normal;font-variant:normal;font-weight:normal;font-stretch:normal;font-size:5.64444px;font-family:Sans;-inkscape-font-specification:'Sans, Normal';font-variant-ligatures:normal;font-variant-caps:normal;font-variant-numeric:normal;font-variant-east-asian:normal;text-align:start;writing-mode:lr-tb;direction:ltr;text-anchor:start;fill:#000000;fill-opacity:1;stroke:#000000;stroke-width:1.013;stroke-dasharray:none"
       x="60.854164"
       y="160.60208"
       id="text99"><tspan
         sodipodi:role="line"
         id="tspan99"
         style="stroke-width:1.013"
         x="60.854164"
         y="160.60208" /></text>
  </g>
</svg>
