<?xml version="1.0" encoding="UTF-8" standalone="no"?>
<!-- Created with Inkscape (http://www.inkscape.org/) -->

<svg
   width="210mm"
   height="297mm"
   viewBox="0 0 210 297"
   version="1.1"
   id="svg1"
   inkscape:version="1.4 (86a8ad7, 2024-10-11)"
   sodipodi:docname="RC_RSE_competences.svg"
   xmlns:inkscape="http://www.inkscape.org/namespaces/inkscape"
   xmlns:sodipodi="http://sodipodi.sourceforge.net/DTD/sodipodi-0.dtd"
   xmlns="http://www.w3.org/2000/svg"
   xmlns:svg="http://www.w3.org/2000/svg">
  <sodipodi:namedview
     id="namedview1"
     pagecolor="#ffffff"
     bordercolor="#000000"
     borderopacity="0.25"
     inkscape:showpageshadow="2"
     inkscape:pageopacity="0.0"
     inkscape:pagecheckerboard="0"
     inkscape:deskcolor="#d1d1d1"
     inkscape:document-units="mm"
     showguides="true"
     inkscape:zoom="1"
     inkscape:cx="182.5"
     inkscape:cy="208.5"
     inkscape:window-width="3840"
     inkscape:window-height="2066"
     inkscape:window-x="-11"
     inkscape:window-y="-11"
     inkscape:window-maximized="1"
     inkscape:current-layer="layer1">
    <sodipodi:guide
       position="111.02955,221.08375"
       orientation="1,0"
       id="guide3"
       inkscape:locked="false" />
    <sodipodi:guide
       position="111.03296,204.2582"
       orientation="0.70710678,0.70710678"
       id="guide6"
       inkscape:locked="false"
       inkscape:label=""
       inkscape:color="rgb(0,134,229)" />
    <sodipodi:guide
       position="111.16587,204.3947"
       orientation="0.70710678,-0.70710678"
       id="guide7"
       inkscape:locked="false"
       inkscape:label=""
       inkscape:color="rgb(0,134,229)" />
  </sodipodi:namedview>
  <defs
     id="defs1">
    <rect
       x="151.75827"
       y="428.85536"
       width="116.12273"
       height="41.779605"
       id="rect44" />
    <rect
       x="275.86828"
       y="92.160894"
       width="144.99981"
       height="119.80916"
       id="rect36" />
    <rect
       x="200.28174"
       y="69.94655"
       width="266.75268"
       height="83.414519"
       id="rect14" />
    <rect
       x="247.63685"
       y="46.486216"
       width="221.56982"
       height="101.22699"
       id="rect10" />
    <rect
       x="308.45994"
       y="87.324574"
       width="198.10948"
       height="96.882488"
       id="rect7" />
  </defs>
  <g
     inkscape:label="Ebene 1"
     inkscape:groupmode="layer"
     id="layer1">
    <circle
       style="fill:none;stroke:#1a1a1a;stroke-width:1.056;stroke-dasharray:none"
       id="path4"
       cx="111.02578"
       cy="92.720245"
       r="21.882769" />
    <text
       xml:space="preserve"
       transform="scale(0.26458333)"
       id="text10"
       style="font-style:normal;font-variant:normal;font-weight:normal;font-stretch:normal;font-size:32px;font-family:Arial;-inkscape-font-specification:Arial;text-align:start;writing-mode:lr-tb;direction:ltr;white-space:pre;shape-inside:url(#rect10);display:inline;fill:#000000;stroke:#1a1a1a" />
    <path
       style="fill:none;stroke:#1a1a1a;stroke-width:1.06866;stroke-dasharray:none"
       d="M 133.42379,202.2779 116.72304,158.47159 110.4559,115.41614"
       id="path15-8-5-1-2-1-0-6-0" />
    <path
       style="fill:none;stroke:#1a1a1a;stroke-width:1.06866;stroke-dasharray:none"
       d="m -53.141583,168.75489 -4.79378,-46.63612 5.08997,-43.21043"
       id="path15-8-5-1-2-1-0-6-0-1" />
    <path
       style="fill:none;stroke:#1a1a1a;stroke-width:1.06866;stroke-dasharray:none"
       d="m 111.68727,-18.995363 4.79378,46.636117 -5.08997,43.21044"
       id="path15-8-5-1-2-1-0-6-0-1-5" />
    <path
       style="fill:none;stroke:#1a1a1a;stroke-width:1.06866;stroke-dasharray:none"
       d="m 222.63131,93.265027 -46.63612,4.79378 -43.21044,-5.08997"
       id="path15-8-5-1-2-1-0-6-0-1-5-2" />
    <path
       style="fill:none;stroke:#1a1a1a;stroke-width:1.06866;stroke-dasharray:none"
       d="m 189.89834,171.73053 -36.36643,-29.587 -26.95524,-34.15355"
       id="path15-8-5-1-2-1-0-6-0-1-8" />
    <path
       style="fill:none;stroke:#1a1a1a;stroke-width:1.06866;stroke-dasharray:none"
       d="m -0.82613334,92.697973 46.63612134,-4.79378 43.21043,5.08997"
       id="path15-8-5-1-2-1-0-6-0-1-9" />
    <path
       style="fill:none;stroke:#1a1a1a;stroke-width:1.06866;stroke-dasharray:none"
       d="m 189.98678,14.168176 -29.587,36.366431 -34.15355,26.955243"
       id="path15-8-5-1-2-1-0-6-0-1-9-2" />
    <path
       style="fill:none;stroke:#1a1a1a;stroke-width:1.06866;stroke-dasharray:none"
       d="M 32.126146,13.649164 68.492577,43.236167 95.447814,77.389708"
       id="path15-8-5-1-2-1-0-6-0-1-9-5" />
    <path
       style="fill:none;stroke:#1a1a1a;stroke-width:1.06866;stroke-dasharray:none"
       d="m 31.905418,171.47609 29.587,-36.36643 34.153541,-26.95524"
       id="path15-8-5-1-2-1-0-6-0-1-4" />
    <circle
       style="fill:none;fill-opacity:1;stroke:#000000;stroke-width:1.18168;stroke-dasharray:none"
       id="path35"
       cx="111.04015"
       cy="92.763351"
       r="112.03932"
       inkscape:export-filename="RC_RSE.png"
       inkscape:export-xdpi="96"
       inkscape:export-ydpi="96" />
    <text
       xml:space="preserve"
       transform="scale(0.26458333)"
       id="text36"
       style="font-style:normal;font-variant:normal;font-weight:normal;font-stretch:normal;font-size:29.3333px;font-family:Arial;-inkscape-font-specification:'Arial, Normal';font-variant-ligatures:normal;font-variant-caps:normal;font-variant-numeric:normal;font-variant-east-asian:normal;text-align:start;writing-mode:lr-tb;direction:ltr;white-space:pre;shape-inside:url(#rect36);display:inline;fill:#f4cae4;fill-opacity:1;stroke:none;stroke-width:2.89134;stroke-dasharray:none"><tspan
         x="275.86914"
         y="238.3928"
         id="tspan2"><tspan
           dx="0 19.565083 16.313786 16.313782 6.5169182 6.5169182 14.666656 16.313782 8.1497269 6.516922 16.313782 16.313789 8.1497192 19.565094"
           id="tspan1">Application/S
</tspan></tspan><tspan
         x="275.86914"
         y="275.05943"
         id="tspan4"><tspan
           dx="0 21.183569 6.5169201 14.666649 14.666649 16.313786 24.434868 6.516922 16.313782 16.313782 8.1497345 6.516922"
           id="tspan3">Disseminatio</tspan></tspan></text>
    <text
       xml:space="preserve"
       transform="scale(0.26458333)"
       id="text44"
       style="font-style:normal;font-variant:normal;font-weight:normal;font-stretch:normal;font-size:26.6667px;font-family:Arial;-inkscape-font-specification:'Arial, Normal';font-variant-ligatures:normal;font-variant-caps:normal;font-variant-numeric:normal;font-variant-east-asian:normal;text-align:start;writing-mode:lr-tb;direction:ltr;white-space:pre;shape-inside:url(#rect44);display:inline;fill:#000000;fill-opacity:1;stroke:none;stroke-width:2.89134;stroke-dasharray:none" />
    <path
       style="fill:#e66101;fill-opacity:1;stroke:none;stroke-width:0.3825;stroke-dasharray:none"
       d="m 96.196511,-96.493408 -2.889945,-5.055302 -4.782971,-2.93778 c -2.630634,-1.61577 -4.869937,-2.99292 -4.976228,-3.06032 -0.153358,-0.0973 -0.0168,-0.28392 0.661458,-0.90415 7.490217,-6.84945 16.391865,-10.81766 26.499315,-11.81297 2.02198,-0.19911 7.97797,-0.082 9.87571,0.19414 4.85506,0.70653 9.02268,1.93217 13.27595,3.90429 3.84136,1.78112 8.40055,4.88009 11.43021,7.76933 l 1.0921,1.04148 -3.16502,5.01163 -3.16501,5.011635 -4.93854,2.759818 c -2.7162,1.517899 -4.97973,2.760126 -5.03006,2.760502 -0.0503,2.64e-4 -0.43729,-0.30279 -0.8599,-0.673706 -2.59989,-2.281897 -6.35291,-4.114361 -10.04492,-4.904574 -1.27922,-0.273796 -1.78443,-0.307599 -4.54793,-0.304292 -2.94198,0.0035 -3.19396,0.02379 -4.69423,0.377381 -4.00251,0.943356 -7.52966,2.783686 -10.320876,5.385022 l -0.529167,0.49317 z"
       id="path80" />
    <path
       style="fill:#fdb863;fill-opacity:1;stroke:none;stroke-width:0.3825;stroke-dasharray:none"
       d="m 108.01614,298.84806 c -9.001796,-0.59174 -17.589456,-3.8264 -24.672386,-9.29321 -1.94833,-1.50377 -3.92394,-3.31358 -3.86164,-3.53756 0.0308,-0.11063 1.45689,-2.49114 3.16916,-5.29003 l 3.1132,-5.08888 4.77759,-2.75935 4.77758,-2.75936 1.02351,0.85254 c 2.95675,2.46285 6.243206,4.05103 10.085486,4.87381 1.1865,0.25408 1.80383,0.29858 4.23333,0.30514 2.45786,0.007 3.04656,-0.0333 4.33327,-0.2941 4.01923,-0.81461 7.80076,-2.68597 10.58532,-5.23833 0.31072,-0.28481 0.5854,-0.49425 0.61039,-0.46542 0.025,0.0288 1.30337,2.2636 2.84085,4.96617 l 2.79541,4.91375 4.99473,3.07943 c 2.74709,1.69368 5.02449,3.10522 5.06087,3.13675 0.0944,0.0819 -1.55811,1.59871 -2.96742,2.72374 -5.91107,4.7187 -12.62003,7.81651 -19.91904,9.19748 -3.14983,0.59594 -7.82859,0.8846 -10.98021,0.67743 z"
       id="path81" />
    <path
       style="fill:#b2abd2;fill-opacity:1;stroke:none;stroke-width:0.3825;stroke-dasharray:none"
       d="m 343.69375,120.72262 -5.02709,-3.11106 -2.85718,-4.99615 -2.85718,-4.99614 0.71978,-0.79375 c 0.93005,-1.02562 2.40884,-3.23555 3.14221,-4.69577 2.53729,-5.05206 3.00876,-11.42737 1.24543,-16.84124 -0.84835,-2.60466 -2.58141,-5.67119 -4.34514,-7.68844 l -0.80004,-0.91503 0.36252,-0.21724 c 0.19939,-0.11948 2.43531,-1.37417 4.96872,-2.7882 l 4.60619,-2.57098 3.11853,-4.96186 c 1.71519,-2.72903 3.14619,-4.99163 3.18001,-5.02801 0.15215,-0.16368 3.29831,3.6037 4.69529,5.62239 3.43213,4.95955 5.93423,10.90552 7.09781,16.86719 0.63669,3.2621 0.73264,4.38757 0.7331,8.59896 5.3e-4,4.213 -0.10993,5.51458 -0.73397,8.65348 -1.61973,8.14727 -5.63388,16.04342 -11.05438,21.74487 l -1.16753,1.22804 z"
       id="path84" />
    <path
       style="fill:#5e3c99;fill-opacity:1;stroke:none;stroke-width:0.3825;stroke-dasharray:none"
       d="m -166.2317,112.7694 c -6.27881,-7.05043 -10.05073,-15.454577 -11.18799,-24.927737 -0.31218,-2.60039 -0.31328,-7.43763 -0.002,-10.05416 1.12602,-9.47387 4.95117,-17.92456 11.35273,-25.080906 l 1.2073,-1.349653 1.60077,0.982445 c 0.88042,0.540346 3.12394,1.916425 4.98559,3.057954 l 3.38484,2.075505 2.30371,4.027393 c 1.26704,2.215067 2.5743,4.482572 2.90502,5.038902 l 0.60132,1.0115 -0.76624,0.9085 c -4.354,5.16238 -6.11495,12.21705 -4.72987,18.94867 0.73863,3.5898 2.56335,7.22593 5.11769,10.19807 l 0.55963,0.65116 -4.78517,2.762877 -4.78518,2.76288 -3.14624,5.15822 c -1.73043,2.83702 -3.1957,5.1747 -3.25615,5.19485 -0.0605,0.0202 -0.67221,-0.59476 -1.35947,-1.36647 z"
       id="path87" />
    <text
       xml:space="preserve"
       style="font-style:normal;font-variant:normal;font-weight:normal;font-stretch:normal;font-size:16.2347px;font-family:Arial;-inkscape-font-specification:'Arial, Normal';font-variant-ligatures:normal;font-variant-caps:normal;font-variant-numeric:normal;font-variant-east-asian:normal;text-align:start;writing-mode:lr-tb;direction:ltr;text-anchor:start;fill:#000000;fill-opacity:1;stroke:#ffffff;stroke-width:1.25732;stroke-dasharray:none"
       x="93.571396"
       y="98.251709"
       id="text89"><tspan
         sodipodi:role="line"
         id="tspan89"
         style="font-size:16.2347px;fill:#000000;stroke:#000000;stroke-width:1.25732"
         x="93.571396"
         y="98.251709">RSE</tspan></text>
    <path
       style="fill:#e66101;fill-opacity:1;stroke:#000000;stroke-width:3.82866;stroke-dasharray:none"
       d="M 471.53541,282.90959 C 460.41692,274.20657 440.22098,266 429.92182,266 c -1.79203,0 -3.87607,-0.23708 -4.63119,-0.52685 -1.12423,-0.4314 0.33459,-14.96919 8.05283,-80.25 l 9.42578,-79.72315 -5.68586,-56 c -3.12722,-30.8 -7.16085,-70.352121 -8.96362,-87.893602 l -3.27776,-31.893601 14.39951,0.680377 c 92.70121,4.380135 183.96384,40.519463 253.31372,100.310366 19.3546,16.68682 23.53075,20.87759 22.33033,22.40846 -12.82199,16.35163 -107.80912,132.57117 -110.75472,135.51165 -4.20063,4.19332 -123.01662,98.22515 -125.0305,98.95004 -0.60519,0.21783 -4.00941,-1.88101 -7.56493,-4.6641 z"
       id="path104"
       transform="scale(0.26458333)" />
    <path
       style="fill:#e66101;fill-opacity:1;stroke:#000000;stroke-width:3.82866;stroke-dasharray:none"
       d="M 310.61787,224.70893 260.64636,161.41787 194.32318,107.55782 C 157.84543,77.9348 127.325,53.05339 126.5,52.26581 c -1.31999,-1.26013 -0.35995,-2.51915 8,-10.49134 25.63391,-24.444925 62.52531,-49.979851 97.7058,-67.6285 52.35392,-26.263876 111.68068,-41.465772 170.98642,-43.813579 l 16.19221,-0.641021 0.51155,2.404315 c 0.28136,1.322374 4.4,40.654315 9.15254,87.404315 l 8.64099,85 -9.11836,78 c -5.0151,42.9 -9.3332,78.98018 -9.59578,80.17817 -0.40237,1.83579 -1.38109,2.27229 -6.22639,2.77694 -16.76967,1.74658 -33.5729,8.29322 -45.07447,17.5613 C 364.27299,285.75738 361.2873,288 361.03965,288 360.792,288 338.1022,259.51902 310.61787,224.70893 Z"
       id="path105"
       transform="scale(0.26458333)" />
    <path
       style="fill:#5e3c99;fill-opacity:1;stroke:#000000;stroke-width:3.82866;stroke-dasharray:none"
       d="m 253.17621,339.21318 -79.82379,-9.52517 -87.176211,9.00323 c -47.946915,4.95178 -87.1985606,8.95948 -87.2258791,8.906 C -1.0769887,347.54376 -0.7754854,339.85 -0.3796627,330.5 2.0399988,273.3435 17.115451,215.66515 43.390951,163.03457 61.462031,126.83768 86.025954,91.339537 111.26788,64.94336 l 9.80933,-10.257888 67.89322,55.238858 67.89322,55.23886 50.2285,63.61683 50.2285,63.61683 -3.66032,4.18858 c -9.96902,11.40772 -17.27413,29.13524 -18.81734,45.66457 -0.3466,3.7125 -0.90307,6.69113 -1.23659,6.61917 -0.33352,-0.072 -36.52711,-4.41715 -80.43019,-9.65599 z"
       id="path106"
       transform="scale(0.26458333)" />
    <path
       style="fill:#5e3c99;fill-opacity:1;stroke:#000000;stroke-width:3.82866;stroke-dasharray:none"
       d="M 108.49697,633.40054 C 40.214261,557.3518 1.9376587,462.33436 -0.7504806,362.20583 -0.9812411,353.6104 -0.8496397,352.88098 1,352.50353 c 1.1,-0.22447 40.313306,-4.30204 87.140679,-9.06126 l 85.140681,-8.65313 78.35932,9.14558 c 43.09763,5.03007 79.30239,9.34366 80.45503,9.58576 1.80423,0.37895 2.25933,1.60982 3.27216,8.84986 2.12531,15.19238 8.04122,29.15308 17.13699,40.44082 l 4.81123,5.97068 -63.65805,50.24934 L 230,509.28051 175,577.0867 c -30.25,37.2934 -55.24482,67.83028 -55.54405,67.85974 -0.29923,0.0295 -5.23077,-5.1662 -10.95898,-11.5459 z"
       id="path107"
       transform="scale(0.26458333)" />
    <path
       style="fill:#fdb863;fill-opacity:1;stroke:#000000;stroke-width:3.82866;stroke-dasharray:none"
       d="m 389,770.2975 c -11.40555,-0.78016 -37.98849,-4.54135 -52,-7.35742 C 271.52645,749.78102 209.89502,721.06066 157.56699,679.32398 144.10846,668.58949 123.3537,649.92706 123.71784,648.88723 123.87303,648.44407 148.75,617.64829 179,580.45216 l 55,-67.62934 63.22638,-49.91141 C 332.00089,435.46013 360.69475,413 360.99051,413 c 0.29576,0 3.10804,2.09354 6.24952,4.6523 10.71967,8.73129 32.5342,17.3477 43.91993,17.3477 4.065,0 4.34004,0.17379 4.34004,2.74239 0,1.50831 5.20565,38.52081 11.56812,82.25 l 11.56812,79.50761 30.93188,81.18349 c 17.01253,44.65092 30.93188,81.60416 30.93188,82.11833 0,0.51416 -1.6875,1.19117 -3.75,1.50446 -38.09055,5.78586 -49.80134,6.74468 -79.55447,6.51347 C 404.43799,770.72062 391.75,770.4856 389,770.2975 Z"
       id="path108"
       transform="scale(0.26458333)" />
    <path
       style="fill:#fdb863;fill-opacity:1;stroke:#000000;stroke-width:3.82866;stroke-dasharray:none"
       d="M 474.7345,679.73522 443.46899,597.5 l -11.4794,-79 c -6.31367,-43.45 -11.48169,-79.75993 -11.48449,-80.68873 -0.004,-1.26762 1.17936,-1.83336 4.7449,-2.26876 20.56545,-2.51129 36.87773,-9.06624 49.09401,-19.72801 1.83921,-1.60517 3.70101,-2.78259 4.13734,-2.6165 0.43633,0.1661 23.08116,28.54526 50.32186,63.0648 l 49.52853,62.76281 68.02353,55.2372 c 37.41295,30.38045 67.90241,55.68719 67.75437,56.23719 -0.40839,1.51724 -20.01574,19.10329 -32.03319,28.73093 -37.84592,30.31982 -83.69301,55.16496 -130.57645,70.7611 -11.89256,3.95616 -41.68039,12.02459 -44.27763,11.99319 -0.69537,-0.008 -14.70182,-35.46871 -32.48787,-82.25 z"
       id="path109"
       transform="scale(0.26458333)" />
    <path
       style="fill:#b2abd2;fill-opacity:1;stroke:#000000;stroke-width:3.82866;stroke-dasharray:none"
       d="m 650,590.55938 -68,-55.38261 -49.80191,-63.09989 c -31.81333,-40.30803 -49.53194,-63.54723 -49.05448,-64.33838 0.41109,-0.68118 2.50148,-3.46958 4.64531,-6.19645 8.1935,-10.42185 14.92264,-27.39014 16.33707,-41.1958 0.62083,-6.05963 0.71655,-6.22983 3.25682,-5.79071 1.43945,0.24883 37.56288,4.53783 80.2743,9.53112 l 77.6571,9.07871 84.3429,-8.5979 c 46.38859,-4.72884 85.8613,-8.84692 87.71713,-9.1513 l 3.37424,-0.55341 -0.69361,12.81862 c -3.80895,70.39398 -21.74863,132.57594 -55.34025,191.81862 -7.20253,12.7025 -24.25167,37.9751 -34.06779,50.5 -9.48331,12.10027 -29.94294,35.14651 -31.64683,35.64779 -0.55,0.16181 -31.6,-24.62797 -69,-55.08841 z"
       id="path110"
       transform="scale(0.26458333)" />
    <path
       style="fill:#b2abd2;fill-opacity:1;stroke:#000000;stroke-width:3.82866;stroke-dasharray:none"
       d="m 583,358.42865 c -42.9,-5.13283 -78.1125,-9.35407 -78.25,-9.38053 -0.1375,-0.0265 -0.25,-1.80853 -0.25,-3.96015 0,-14.71162 -8.19822,-35.75394 -19.09426,-49.0091 -1.54674,-1.88162 -2.62556,-3.7232 -2.39739,-4.09238 0.22817,-0.36919 28.45797,-22.7964 62.73288,-49.83823 l 62.31802,-49.16698 55.28704,-67.97283 c 30.40787,-37.385049 55.66387,-68.20571 56.12443,-68.490352 1.96338,-1.213436 32.30566,34.927083 46.16083,54.981902 45.53358,65.90811 70.59225,141.179 74.46187,223.66762 l 0.68808,14.66762 -4.39075,0.59357 C 833.97584,350.75527 807.7,353.50202 778,356.53269 c -29.7,3.03067 -66.87513,6.85064 -82.6114,8.48881 -15.73627,1.63818 -29.91127,2.92474 -31.5,2.85904 C 662.29987,367.81483 625.9,363.56149 583,358.42865 Z"
       id="path111"
       transform="scale(0.26458333)" />
  </g>
  <g
     inkscape:groupmode="layer"
     id="layer2"
     inkscape:label="Ebene 2"
     style="display:inline">
    <text
       xml:space="preserve"
       style="font-style:normal;font-variant:normal;font-weight:normal;font-stretch:normal;font-size:7.05556px;font-family:Arial;-inkscape-font-specification:'Arial, Normal';font-variant-ligatures:normal;font-variant-caps:normal;font-variant-numeric:normal;font-variant-east-asian:normal;text-align:start;writing-mode:lr-tb;direction:ltr;text-anchor:start;fill:#000000;fill-opacity:1;stroke:none;stroke-width:0.765;stroke-dasharray:none"
       x="33.924873"
       y="-68.166122"
       id="text37"><tspan
         sodipodi:role="line"
         id="tspan37"
         style="font-size:7.05556px;fill:#000000;fill-opacity:1;stroke-width:0.765"
         x="33.924873"
         y="-68.166122">Application/</tspan><tspan
         sodipodi:role="line"
         style="font-size:7.05556px;fill:#000000;fill-opacity:1;stroke-width:0.765"
         x="33.924873"
         y="-59.346672"
         id="tspan38">Dissemination</tspan></text>
    <text
       xml:space="preserve"
       style="font-style:normal;font-variant:normal;font-weight:normal;font-stretch:normal;font-size:7.05556px;font-family:Arial;-inkscape-font-specification:'Arial, Normal';font-variant-ligatures:normal;font-variant-caps:normal;font-variant-numeric:normal;font-variant-east-asian:normal;text-align:start;writing-mode:lr-tb;direction:ltr;text-anchor:start;fill:#000000;fill-opacity:1;stroke:none;stroke-width:0.765;stroke-dasharray:none"
       x="298.97382"
       y="0.53333008"
       id="text37-6"><tspan
         sodipodi:role="line"
         style="font-size:7.05556px;stroke-width:0.765"
         x="298.97382"
         y="0.53333008"
         id="tspan38-0">Search &amp;</tspan><tspan
         sodipodi:role="line"
         style="font-size:7.05556px;stroke-width:0.765"
         x="298.97382"
         y="9.3527803"
         id="tspan39">Discovery</tspan></text>
    <text
       xml:space="preserve"
       style="font-style:normal;font-variant:normal;font-weight:normal;font-stretch:normal;font-size:7.05556px;font-family:Arial;-inkscape-font-specification:'Arial, Normal';font-variant-ligatures:normal;font-variant-caps:normal;font-variant-numeric:normal;font-variant-east-asian:normal;text-align:start;writing-mode:lr-tb;direction:ltr;text-anchor:start;fill:#000000;fill-opacity:1;stroke:none;stroke-width:0.765;stroke-dasharray:none"
       x="283.36798"
       y="165.18036"
       id="text37-6-7"><tspan
         sodipodi:role="line"
         style="font-size:7.05556px;stroke-width:0.765"
         x="283.36798"
         y="165.18036"
         id="tspan38-0-8">Research</tspan><tspan
         sodipodi:role="line"
         style="font-size:7.05556px;stroke-width:0.765"
         x="283.36798"
         y="173.9998"
         id="tspan40">Hypothesis</tspan><tspan
         sodipodi:role="line"
         style="font-size:7.05556px;stroke-width:0.765"
         x="283.36798"
         y="182.81926"
         id="tspan39-8">/Question</tspan></text>
    <text
       xml:space="preserve"
       style="font-style:normal;font-variant:normal;font-weight:normal;font-stretch:normal;font-size:5.64444px;font-family:Arial;-inkscape-font-specification:'Arial, Normal';font-variant-ligatures:normal;font-variant-caps:normal;font-variant-numeric:normal;font-variant-east-asian:normal;text-align:start;writing-mode:lr-tb;direction:ltr;text-anchor:start;display:inline;fill:#000000;fill-opacity:1;stroke:none;stroke-width:0.765;stroke-dasharray:none"
       x="138.37709"
       y="177.55884"
       id="text37-6-7-7"><tspan
         sodipodi:role="line"
         id="tspan90"
         x="138.37709"
         y="177.55884">Understanding </tspan><tspan
         sodipodi:role="line"
         id="tspan91"
         x="138.37709"
         y="184.6144">the RC</tspan></text>
    <text
       xml:space="preserve"
       style="font-style:normal;font-variant:normal;font-weight:normal;font-stretch:normal;font-size:5.64444px;font-family:Arial;-inkscape-font-specification:'Arial, Normal';font-variant-ligatures:normal;font-variant-caps:normal;font-variant-numeric:normal;font-variant-east-asian:normal;text-align:start;writing-mode:lr-tb;direction:ltr;text-anchor:start;display:inline;fill:#000000;fill-opacity:1;stroke:none;stroke-width:0.765;stroke-dasharray:none"
       x="117.1112"
       y="139.50706"
       id="text37-6-7-7-9"><tspan
         sodipodi:role="line"
         id="tspan92"
         x="117.1112"
         y="139.50706">Conducting</tspan><tspan
         sodipodi:role="line"
         id="tspan93"
         x="117.1112"
         y="146.56262">Research</tspan></text>
    <text
       xml:space="preserve"
       style="font-style:normal;font-variant:normal;font-weight:normal;font-stretch:normal;font-size:5.64444px;font-family:Arial;-inkscape-font-specification:'Arial, Normal';font-variant-ligatures:normal;font-variant-caps:normal;font-variant-numeric:normal;font-variant-east-asian:normal;text-align:start;writing-mode:lr-tb;direction:ltr;text-anchor:start;display:inline;fill:#000000;fill-opacity:1;stroke:none;stroke-width:0.765;stroke-dasharray:none"
       x="140.21262"
       y="157.03847"
       id="text37-6-7-7-9-6"><tspan
         sodipodi:role="line"
         id="tspan94"
         x="140.21262"
         y="157.03847">Leading</tspan><tspan
         sodipodi:role="line"
         id="tspan95"
         x="140.21262"
         y="164.09402">Research</tspan></text>
    <text
       xml:space="preserve"
       style="font-style:normal;font-variant:normal;font-weight:normal;font-stretch:normal;font-size:5.64444px;font-family:Sans;-inkscape-font-specification:'Sans, Normal';font-variant-ligatures:normal;font-variant-caps:normal;font-variant-numeric:normal;font-variant-east-asian:normal;text-align:start;writing-mode:lr-tb;direction:ltr;text-anchor:start;display:inline;fill:#000000;fill-opacity:1;stroke:none;stroke-width:0.765;stroke-dasharray:none"
       x="89.015755"
       y="121.25082"
       id="text37-6-7-7-9-6-1"><tspan
         sodipodi:role="line"
         id="tspan96"
         x="89.015755"
         y="121.25082">SW </tspan><tspan
         sodipodi:role="line"
         id="tspan97"
         x="89.015755"
         y="128.30637">Design</tspan></text>
    <text
       xml:space="preserve"
       style="font-style:normal;font-variant:normal;font-weight:normal;font-stretch:normal;font-size:5.64444px;font-family:Sans;-inkscape-font-specification:'Sans, Normal';font-variant-ligatures:normal;font-variant-caps:normal;font-variant-numeric:normal;font-variant-east-asian:normal;text-align:start;writing-mode:lr-tb;direction:ltr;text-anchor:start;display:inline;fill:#ffffff;fill-opacity:1;stroke:none;stroke-width:0.765;stroke-dasharray:none"
       x="14.84422"
       y="131.17819"
       id="text37-6-7-7-9-6-1-3"><tspan
         sodipodi:role="line"
         id="tspan97-84"
         x="14.84422"
         y="131.17819">Source control</tspan></text>
    <text
       xml:space="preserve"
       style="font-style:normal;font-variant:normal;font-weight:normal;font-stretch:normal;font-size:5.64444px;font-family:Sans;-inkscape-font-specification:'Sans, Normal';font-variant-ligatures:normal;font-variant-caps:normal;font-variant-numeric:normal;font-variant-east-asian:normal;text-align:start;writing-mode:lr-tb;direction:ltr;text-anchor:start;display:inline;fill:#ffffff;fill-opacity:1;stroke:none;stroke-width:0.765;stroke-dasharray:none"
       x="7.1713109"
       y="100.86137"
       id="text37-6-7-7-9-6-1-3-8"><tspan
         sodipodi:role="line"
         id="tspan97-84-8"
         x="7.1713109"
         y="100.86137">Interdisciplinary Teamwork</tspan></text>
    <text
       xml:space="preserve"
       style="font-style:normal;font-variant:normal;font-weight:normal;font-stretch:normal;font-size:5.64444px;font-family:Sans;-inkscape-font-specification:'Sans, Normal';font-variant-ligatures:normal;font-variant-caps:normal;font-variant-numeric:normal;font-variant-east-asian:normal;text-align:start;writing-mode:lr-tb;direction:ltr;text-anchor:start;display:inline;fill:#ffffff;fill-opacity:1;stroke:none;stroke-width:0.765;stroke-dasharray:none"
       x="3.5911677"
       y="110.78323"
       id="text37-6-7-7-9-6-1-3-8-1"><tspan
         sodipodi:role="line"
         id="tspan97-84-8-9"
         x="3.5911677"
         y="110.78323">Project and Task Management</tspan></text>
    <text
       xml:space="preserve"
       style="font-style:normal;font-variant:normal;font-weight:normal;font-stretch:normal;font-size:5.64444px;font-family:Sans;-inkscape-font-specification:'Sans, Normal';font-variant-ligatures:normal;font-variant-caps:normal;font-variant-numeric:normal;font-variant-east-asian:normal;text-align:start;writing-mode:lr-tb;direction:ltr;text-anchor:start;display:inline;fill:#ffffff;fill-opacity:1;stroke:none;stroke-width:0.765;stroke-dasharray:none"
       x="18.812975"
       y="141.07805"
       id="text37-6-7-7-9-6-1-3-5"><tspan
         sodipodi:role="line"
         id="tspan97-84-5"
         x="18.812975"
         y="141.07805">SW Testing</tspan></text>
    <text
       xml:space="preserve"
       style="font-style:normal;font-variant:normal;font-weight:normal;font-stretch:normal;font-size:5.64444px;font-family:Sans;-inkscape-font-specification:'Sans, Normal';font-variant-ligatures:normal;font-variant-caps:normal;font-variant-numeric:normal;font-variant-east-asian:normal;text-align:start;writing-mode:lr-tb;direction:ltr;text-anchor:start;display:inline;fill:#ffffff;fill-opacity:1;stroke:none;stroke-width:0.765;stroke-dasharray:none"
       x="26.089018"
       y="121.63116"
       id="text37-6-7-7-9-6-1-3-7"><tspan
         sodipodi:role="line"
         id="tspan97-84-4"
         x="26.089018"
         y="121.63116">CI/CD/DevOps</tspan></text>
    <text
       xml:space="preserve"
       style="font-style:normal;font-variant:normal;font-weight:normal;font-stretch:normal;font-size:5.64444px;font-family:Sans;-inkscape-font-specification:'Sans, Normal';font-variant-ligatures:normal;font-variant-caps:normal;font-variant-numeric:normal;font-variant-east-asian:normal;text-align:start;writing-mode:lr-tb;direction:ltr;text-anchor:start;display:inline;fill:#000000;fill-opacity:1;stroke:none;stroke-width:0.765;stroke-dasharray:none"
       x="53.933418"
       y="148.83154"
       id="text37-6-7-7-9-6-1-9"
       transform="rotate(-0.47736344)"><tspan
         sodipodi:role="line"
         id="tspan97-8"
         x="53.933418"
         y="148.83154">SW Documentation</tspan></text>
    <text
       xml:space="preserve"
       style="font-style:normal;font-variant:normal;font-weight:normal;font-stretch:normal;font-size:5.64444px;font-family:Sans;-inkscape-font-specification:'Sans, Normal';font-variant-ligatures:normal;font-variant-caps:normal;font-variant-numeric:normal;font-variant-east-asian:normal;text-align:start;writing-mode:lr-tb;direction:ltr;text-anchor:start;display:inline;fill:#000000;fill-opacity:1;stroke:none;stroke-width:0.765;stroke-dasharray:none"
       x="47.782673"
       y="160.69632"
       id="text37-6-7-7-9-6-1-9-71"
       transform="rotate(-0.57154148)"><tspan
         sodipodi:role="line"
         id="tspan97-8-0"
         x="47.782673"
         y="160.69632">SW Behavior Analysis</tspan></text>
    <text
       xml:space="preserve"
       style="font-style:normal;font-variant:normal;font-weight:normal;font-stretch:normal;font-size:5.64444px;font-family:Sans;-inkscape-font-specification:'Sans, Normal';font-variant-ligatures:normal;font-variant-caps:normal;font-variant-numeric:normal;font-variant-east-asian:normal;text-align:start;writing-mode:lr-tb;direction:ltr;text-anchor:start;display:inline;fill:#ffffff;fill-opacity:1;stroke:none;stroke-width:0.765;stroke-dasharray:none"
       x="7.6230588"
       y="78.290154"
       id="text37-6-7-7-9-6-1-9-71-2"
       transform="rotate(-0.57154148)"><tspan
         sodipodi:role="line"
         id="tspan97-8-0-2"
         x="7.6230588"
         y="78.290154">SW Behavior Interpretation</tspan></text>
    <text
       xml:space="preserve"
       style="font-style:normal;font-variant:normal;font-weight:normal;font-stretch:normal;font-size:5.64444px;font-family:Sans;-inkscape-font-specification:'Sans, Normal';font-variant-ligatures:normal;font-variant-caps:normal;font-variant-numeric:normal;font-variant-east-asian:normal;text-align:start;writing-mode:lr-tb;direction:ltr;text-anchor:start;display:inline;fill:#ffffff;fill-opacity:1;stroke:none;stroke-width:0.765;stroke-dasharray:none"
       x="14.012553"
       y="47.83823"
       id="text37-6-7-7-9-6-1-9-71-2-9"
       transform="rotate(-0.57154148)"><tspan
         sodipodi:role="line"
         id="tspan97-8-0-2-0"
         x="14.012553"
         y="47.83823">Documentation of</tspan><tspan
         sodipodi:role="line"
         x="14.012553"
         y="54.89378"
         id="tspan100">Research Results</tspan><tspan
         sodipodi:role="line"
         x="14.012553"
         y="61.949329"
         id="tspan101">&amp; Workflows</tspan></text>
    <text
       xml:space="preserve"
       style="font-style:normal;font-variant:normal;font-weight:normal;font-stretch:normal;font-size:5.64444px;font-family:Sans;-inkscape-font-specification:'Sans, Normal';font-variant-ligatures:normal;font-variant-caps:normal;font-variant-numeric:normal;font-variant-east-asian:normal;text-align:start;writing-mode:lr-tb;direction:ltr;text-anchor:start;display:inline;fill:#000000;fill-opacity:1;stroke:none;stroke-width:0.765;stroke-dasharray:none"
       x="65.739273"
       y="-0.60842365"
       id="text37-6-7-7-9-6-1-9-71-2-9-5"
       transform="rotate(-0.57154148)"><tspan
         sodipodi:role="line"
         x="65.739273"
         y="-0.60842365"
         id="tspan101-2">SW publication</tspan><tspan
         sodipodi:role="line"
         x="65.739273"
         y="6.4471264"
         id="tspan102">&amp; citation</tspan></text>
    <text
       xml:space="preserve"
       style="font-style:normal;font-variant:normal;font-weight:normal;font-stretch:normal;font-size:5.64444px;font-family:Sans;-inkscape-font-specification:'Sans, Normal';font-variant-ligatures:normal;font-variant-caps:normal;font-variant-numeric:normal;font-variant-east-asian:normal;text-align:start;writing-mode:lr-tb;direction:ltr;text-anchor:start;display:inline;fill:#000000;fill-opacity:1;stroke:none;stroke-width:0.765;stroke-dasharray:none"
       x="64.995277"
       y="29.774359"
       id="text37-6-7-7-9-6-1-9-71-2-9-5-8"
       transform="rotate(-0.57154148)"><tspan
         sodipodi:role="line"
         x="64.995277"
         y="29.774359"
         id="tspan102-1">Use of Domain</tspan><tspan
         sodipodi:role="line"
         x="64.995277"
         y="36.82991"
         id="tspan103">Repositories</tspan></text>
    <text
       xml:space="preserve"
       style="font-style:normal;font-variant:normal;font-weight:normal;font-stretch:normal;font-size:5.64444px;font-family:Sans;-inkscape-font-specification:'Sans, Normal';font-variant-ligatures:normal;font-variant-caps:normal;font-variant-numeric:normal;font-variant-east-asian:normal;text-align:start;writing-mode:lr-tb;direction:ltr;text-anchor:start;display:inline;fill:#000000;fill-opacity:1;stroke:none;stroke-width:0.765;stroke-dasharray:none"
       x="78.168549"
       y="49.737782"
       id="text37-6-7-7-9-6-1-9-71-2-9-5-8-6"
       transform="rotate(-0.57154148)"><tspan
         sodipodi:role="line"
         x="78.168549"
         y="49.737782"
         id="tspan103-9">Teaching</tspan></text>
    <text
       xml:space="preserve"
       style="font-style:normal;font-variant:normal;font-weight:normal;font-stretch:normal;font-size:5.64444px;font-family:Sans;-inkscape-font-specification:'Sans, Normal';font-variant-ligatures:normal;font-variant-caps:normal;font-variant-numeric:normal;font-variant-east-asian:normal;text-align:start;writing-mode:lr-tb;direction:ltr;text-anchor:start;display:inline;fill:#000000;fill-opacity:1;stroke:none;stroke-width:0.765;stroke-dasharray:none"
       x="49.91959"
       y="16.91061"
       id="text37-6-7-7-9-6-1-9-71-2-9-5-8-0"
       transform="rotate(-0.57154148)"><tspan
         sodipodi:role="line"
         x="49.91959"
         y="16.91061"
         id="tspan103-91">Communication</tspan></text>
    <text
       xml:space="preserve"
       style="font-style:normal;font-variant:normal;font-weight:normal;font-stretch:normal;font-size:5.64444px;font-family:Sans;-inkscape-font-specification:'Sans, Normal';font-variant-ligatures:normal;font-variant-caps:normal;font-variant-numeric:normal;font-variant-east-asian:normal;text-align:start;writing-mode:lr-tb;direction:ltr;text-anchor:start;display:inline;fill:#000000;fill-opacity:1;stroke:none;stroke-width:0.765;stroke-dasharray:none"
       x="74.635475"
       y="191.63969"
       id="text37-6-7-7-9-6-1-9-7"
       transform="rotate(-0.05482439)"><tspan
         sodipodi:role="line"
         id="tspan97-8-8"
         x="74.635475"
         y="191.63969">Modular SW</tspan></text>
    <text
       xml:space="preserve"
       style="font-style:normal;font-variant:normal;font-weight:normal;font-stretch:normal;font-size:5.64444px;font-family:Sans;-inkscape-font-specification:'Sans, Normal';font-variant-ligatures:normal;font-variant-caps:normal;font-variant-numeric:normal;font-variant-east-asian:normal;text-align:start;writing-mode:lr-tb;direction:ltr;text-anchor:start;display:inline;fill:#000000;fill-opacity:1;stroke:none;stroke-width:0.765;stroke-dasharray:none"
       x="49.813103"
       y="182.94554"
       id="text37-6-7-7-9-6-1-9-7-9"
       transform="rotate(-0.05482439)"><tspan
         sodipodi:role="line"
         id="tspan97-8-8-6"
         x="49.813103"
         y="182.94554">Full-Stack programming</tspan></text>
    <text
       xml:space="preserve"
       style="font-style:normal;font-variant:normal;font-weight:normal;font-stretch:normal;font-size:5.64444px;font-family:Sans;-inkscape-font-specification:'Sans, Normal';font-variant-ligatures:normal;font-variant-caps:normal;font-variant-numeric:normal;font-variant-east-asian:normal;text-align:start;writing-mode:lr-tb;direction:ltr;text-anchor:start;display:inline;fill:#000000;fill-opacity:1;stroke:none;stroke-width:0.765;stroke-dasharray:none"
       x="73.903564"
       y="135.63826"
       id="text37-6-7-7-9-6-1-0"
       inkscape:transform-center-x="5.7969696"
       inkscape:transform-center-y="-7.963001"
       transform="rotate(0.18364754)"><tspan
         sodipodi:role="line"
         id="tspan97-6"
         x="73.903564"
         y="135.63826">SW re-use</tspan></text>
    <text
       xml:space="preserve"
       style="font-style:normal;font-variant:normal;font-weight:normal;font-stretch:normal;font-size:5.64444px;font-family:Sans;-inkscape-font-specification:'Sans, Normal';font-variant-ligatures:normal;font-variant-caps:normal;font-variant-numeric:normal;font-variant-east-asian:normal;text-align:start;writing-mode:lr-tb;direction:ltr;text-anchor:start;display:inline;fill:#000000;fill-opacity:1;stroke:none;stroke-width:0.765;stroke-dasharray:none"
       x="48.202068"
       y="173.47626"
       id="text37-6-7-7-9-6-1-7"
       transform="rotate(-0.03594244)"
       inkscape:transform-center-x="11.671512"
       inkscape:transform-center-y="11.783126"><tspan
         sodipodi:role="line"
         id="tspan98"
         x="48.202068"
         y="173.47626">Distributable SW</tspan></text>
    <text
       xml:space="preserve"
       style="font-style:normal;font-variant:normal;font-weight:normal;font-stretch:normal;font-size:7.05556px;font-family:Arial;-inkscape-font-specification:'Arial, Normal';font-variant-ligatures:normal;font-variant-caps:normal;font-variant-numeric:normal;font-variant-east-asian:normal;text-align:start;writing-mode:lr-tb;direction:ltr;text-anchor:start;fill:#000000;fill-opacity:1;stroke:none;stroke-width:0.765;stroke-dasharray:none"
       x="193.95193"
       y="235.73575"
       id="text37-6-7-3"><tspan
         sodipodi:role="line"
         style="font-size:7.05556px;stroke-width:0.765"
         x="193.95193"
         y="235.73575"
         id="tspan38-0-8-5">Study</tspan><tspan
         sodipodi:role="line"
         style="font-size:7.05556px;stroke-width:0.765"
         x="193.95193"
         y="244.55519"
         id="tspan39-8-8">Concept-</tspan><tspan
         sodipodi:role="line"
         style="font-size:7.05556px;stroke-width:0.765"
         x="193.95193"
         y="253.37465"
         id="tspan43">ualization</tspan></text>
    <text
       xml:space="preserve"
       style="font-style:normal;font-variant:normal;font-weight:normal;font-stretch:normal;font-size:7.05556px;font-family:Arial;-inkscape-font-specification:'Arial, Normal';font-variant-ligatures:normal;font-variant-caps:normal;font-variant-numeric:normal;font-variant-east-asian:normal;text-align:start;writing-mode:lr-tb;direction:ltr;text-anchor:start;fill:#000000;fill-opacity:1;stroke:none;stroke-width:0.765;stroke-dasharray:none"
       x="44.071217"
       y="268.61584"
       id="text37-6-7-6"><tspan
         sodipodi:role="line"
         style="font-size:7.05556px;stroke-width:0.765"
         x="44.071217"
         y="268.61584"
         id="tspan38-0-8-3">Study</tspan><tspan
         sodipodi:role="line"
         style="font-size:7.05556px;stroke-width:0.765"
         x="44.071217"
         y="277.4353"
         id="tspan39-8-1">Design</tspan></text>
    <text
       xml:space="preserve"
       style="font-style:normal;font-variant:normal;font-weight:normal;font-stretch:normal;font-size:7.05556px;font-family:Arial;-inkscape-font-specification:'Arial, Normal';font-variant-ligatures:normal;font-variant-caps:normal;font-variant-numeric:normal;font-variant-east-asian:normal;text-align:start;writing-mode:lr-tb;direction:ltr;text-anchor:start;fill:#000000;fill-opacity:1;stroke:none;stroke-width:0.765;stroke-dasharray:none"
       x="-139.01723"
       y="170.73685"
       id="text37-6-7-0"><tspan
         sodipodi:role="line"
         style="font-size:7.05556px;fill:#000000;stroke-width:0.765"
         x="-139.01723"
         y="170.73685"
         id="tspan40-7">Implemen-</tspan><tspan
         sodipodi:role="line"
         style="font-size:7.05556px;fill:#000000;stroke-width:0.765"
         x="-139.01723"
         y="179.55629"
         id="tspan45">tation</tspan><tspan
         sodipodi:role="line"
         style="font-size:7.05556px;fill:#000000;stroke-width:0.765"
         x="-139.01723"
         y="188.37575"
         id="tspan39-8-3" /></text>
    <text
       xml:space="preserve"
       style="font-style:normal;font-variant:normal;font-weight:normal;font-stretch:normal;font-size:7.05556px;font-family:Arial;-inkscape-font-specification:'Arial, Normal';font-variant-ligatures:normal;font-variant-caps:normal;font-variant-numeric:normal;font-variant-east-asian:normal;text-align:start;writing-mode:lr-tb;direction:ltr;text-anchor:start;fill:#000000;fill-opacity:1;stroke:none;stroke-width:0.765;stroke-dasharray:none"
       x="-99.081543"
       y="-36.801193"
       id="text37-6-7-01"><tspan
         sodipodi:role="line"
         style="font-size:7.05556px;fill:#000000;stroke-width:0.765"
         x="-99.081543"
         y="-36.801193"
         id="tspan38-0-8-6">Analysis &amp;</tspan><tspan
         sodipodi:role="line"
         style="font-size:7.05556px;fill:#000000;stroke-width:0.765"
         x="-99.081543"
         y="-27.981743"
         id="tspan39-8-7">Interpre-</tspan><tspan
         sodipodi:role="line"
         style="font-size:7.05556px;fill:#000000;stroke-width:0.765"
         x="-99.081543"
         y="-19.162292"
         id="tspan46">tation</tspan></text>
    <text
       xml:space="preserve"
       style="font-style:normal;font-variant:normal;font-weight:normal;font-stretch:normal;font-size:7.05556px;font-family:Arial;-inkscape-font-specification:'Arial, Normal';font-variant-ligatures:normal;font-variant-caps:normal;font-variant-numeric:normal;font-variant-east-asian:normal;text-align:start;writing-mode:lr-tb;direction:ltr;text-anchor:start;fill:#000000;fill-opacity:1;stroke:none;stroke-width:0.765;stroke-dasharray:none"
       x="210.38879"
       y="-112.11749"
       id="text37-7"><tspan
         sodipodi:role="line"
         style="font-size:7.05556px;stroke-width:0.765"
         x="210.38879"
         y="-112.11749"
         id="tspan54">Practical</tspan><tspan
         sodipodi:role="line"
         style="font-size:7.05556px;stroke-width:0.765"
         x="210.38879"
         y="-103.29804"
         id="tspan55">Application</tspan></text>
    <text
       xml:space="preserve"
       style="font-style:normal;font-variant:normal;font-weight:normal;font-stretch:normal;font-size:5.64444px;font-family:Sans;-inkscape-font-specification:'Sans, Normal';font-variant-ligatures:normal;font-variant-caps:normal;font-variant-numeric:normal;font-variant-east-asian:normal;text-align:start;writing-mode:lr-tb;direction:ltr;text-anchor:start;fill:#000000;fill-opacity:1;stroke:#000000;stroke-width:1.013;stroke-dasharray:none"
       x="60.854164"
       y="160.60208"
       id="text99"><tspan
         sodipodi:role="line"
         id="tspan99"
         style="stroke-width:1.013"
         x="60.854164"
         y="160.60208"></tspan></text>
  </g>
</svg>
