<?xml version="1.0" encoding="UTF-8" standalone="no"?>
<!-- Created with Inkscape (http://www.inkscape.org/) -->

<svg
   width="173.13741mm"
   height="173.13741mm"
   viewBox="0 0 173.13741 173.13741"
   version="1.1"
   id="svg1"
   inkscape:version="1.2.2 (b0a8486541, 2022-12-01)"
   sodipodi:docname="Research_cycle.svg"
   inkscape:export-filename="Research_cycle.pdf"
   inkscape:export-xdpi="96"
   inkscape:export-ydpi="96"
   xmlns:inkscape="http://www.inkscape.org/namespaces/inkscape"
   xmlns:sodipodi="http://sodipodi.sourceforge.net/DTD/sodipodi-0.dtd"
   xmlns="http://www.w3.org/2000/svg"
   xmlns:svg="http://www.w3.org/2000/svg">
  <sodipodi:namedview
     id="namedview1"
     pagecolor="#ffffff"
     bordercolor="#000000"
     borderopacity="0.25"
     inkscape:showpageshadow="2"
     inkscape:pageopacity="0.0"
     inkscape:pagecheckerboard="0"
     inkscape:deskcolor="#d1d1d1"
     inkscape:document-units="mm"
     showguides="true"
     inkscape:zoom="2.0000001"
     inkscape:cx="276.24999"
     inkscape:cy="336.74998"
     inkscape:window-width="2560"
     inkscape:window-height="1527"
     inkscape:window-x="0"
     inkscape:window-y="0"
     inkscape:window-maximized="1"
     inkscape:current-layer="layer2"
     showgrid="false">
    <sodipodi:guide
       position="151.25761,210.45328"
       orientation="0,-1"
       id="guide2"
       inkscape:locked="false" />
    <sodipodi:guide
       position="86.5581,227.2784"
       orientation="1,0"
       id="guide3"
       inkscape:locked="false" />
    <sodipodi:guide
       position="86.56151,210.45285"
       orientation="0.70710678,0.70710678"
       id="guide6"
       inkscape:locked="false"
       inkscape:label=""
       inkscape:color="rgb(0,134,229)" />
    <sodipodi:guide
       position="86.69442,210.58935"
       orientation="0.70710678,-0.70710678"
       id="guide7"
       inkscape:locked="false"
       inkscape:label=""
       inkscape:color="rgb(0,134,229)" />
  </sodipodi:namedview>
  <defs
     id="defs1">
    <rect
       x="151.75827"
       y="428.85535"
       width="116.12273"
       height="41.779606"
       id="rect44" />
    <rect
       x="275.86829"
       y="92.160896"
       width="144.99982"
       height="119.80916"
       id="rect36" />
    <rect
       x="200.28174"
       y="69.946548"
       width="266.75269"
       height="83.41452"
       id="rect14" />
    <rect
       x="247.63686"
       y="46.486217"
       width="221.56982"
       height="101.22699"
       id="rect10" />
    <rect
       x="308.45993"
       y="87.324577"
       width="198.10948"
       height="96.882484"
       id="rect7" />
  </defs>
  <g
     inkscape:label="Ebene 1"
     inkscape:groupmode="layer"
     id="layer1"
     transform="translate(-24.47145,-6.1946477)">
    <circle
       style="fill:none;stroke:#1a1a1a;stroke-width:0.930892"
       id="path3"
       cx="111.02578"
       cy="92.748985"
       r="45.447483" />
    <circle
       style="fill:none;stroke:#1a1a1a;stroke-width:0.656271"
       id="path4"
       cx="111.02578"
       cy="92.720245"
       r="21.882769" />
    <text
       xml:space="preserve"
       transform="scale(0.26458333)"
       id="text10"
       style="font-style:normal;font-variant:normal;font-weight:normal;font-stretch:normal;font-size:32px;font-family:Arial;-inkscape-font-specification:Arial;text-align:start;writing-mode:lr-tb;direction:ltr;white-space:pre;shape-inside:url(#rect10);display:inline;fill:#000000;stroke:#1a1a1a" />
    <path
       style="fill:none;stroke:#1a1a1a;stroke-width:1.15589;stroke-dasharray:none"
       d="m 111.40429,178.57671 -10.2115,-21.1724 9.59566,-19.45502"
       id="path15-8-5-1-2-1-0-6-0-3"
       sodipodi:nodetypes="ccc" />
    <path
       style="fill:none;stroke:#1a1a1a;stroke-width:1.15589;stroke-dasharray:none"
       d="m 50.668187,153.78275 7.75053,-22.19176 20.54193,-6.97163"
       id="path15-8-5-1-2-1-0-6-0-3-42"
       sodipodi:nodetypes="ccc" />
    <path
       style="fill:none;stroke:#1a1a1a;stroke-width:1.15589;stroke-dasharray:none"
       d="M 25.079884,92.968727 46.25228,82.757232 65.707305,92.352887"
       id="path15-8-5-1-2-1-0-6-0-3-42-1"
       sodipodi:nodetypes="ccc" />
    <path
       style="fill:none;stroke:#1a1a1a;stroke-width:1.15589;stroke-dasharray:none"
       d="m 49.959674,32.303759 22.191762,7.750527 6.971627,20.541933"
       id="path15-8-5-1-2-1-0-6-0-3-42-1-7"
       sodipodi:nodetypes="ccc" />
    <path
       style="fill:none;stroke:#1a1a1a;stroke-width:1.15589;stroke-dasharray:none"
       d="m 110.73166,7.243207 10.21149,21.172395 -9.59565,19.455027"
       id="path15-8-5-1-2-1-0-6-0-3-42-1-7-9"
       sodipodi:nodetypes="ccc" />
    <path
       style="fill:none;stroke:#1a1a1a;stroke-width:1.15589;stroke-dasharray:none"
       d="m 171.57288,31.407216 -7.75053,22.191758 -20.54193,6.971632"
       id="path15-8-5-1-2-1-0-6-0-3-42-1-7-9-5"
       sodipodi:nodetypes="ccc" />
    <path
       style="fill:none;stroke:#1a1a1a;stroke-width:1.15589;stroke-dasharray:none"
       d="m 197.08105,92.232855 -21.1724,10.211495 -19.45503,-9.595654"
       id="path15-8-5-1-2-1-0-6-0-3-42-1-7-9-5-2"
       sodipodi:nodetypes="ccc" />
    <path
       style="fill:none;stroke:#1a1a1a;stroke-width:1.15589;stroke-dasharray:none"
       d="m 172.55801,153.02179 -22.19178,-7.75053 -6.97162,-20.54194"
       id="path15-8-5-1-2-1-0-6-0-3-42-1-7-9-5-2-1"
       sodipodi:nodetypes="ccc" />
    <circle
       style="fill:none;fill-opacity:1;stroke:#000000;stroke-width:0.908251;stroke-dasharray:none"
       id="path35"
       cx="111.04015"
       cy="92.763351"
       r="86.114578"
       inkscape:export-filename="Research_cycle.png"
       inkscape:export-xdpi="96"
       inkscape:export-ydpi="96" />
    <text
       xml:space="preserve"
       transform="scale(0.26458333)"
       id="text36"
       style="font-style:normal;font-variant:normal;font-weight:normal;font-stretch:normal;font-size:29.3333px;font-family:Arial;-inkscape-font-specification:'Arial, Normal';font-variant-ligatures:normal;font-variant-caps:normal;font-variant-numeric:normal;font-variant-east-asian:normal;text-align:start;writing-mode:lr-tb;direction:ltr;white-space:pre;shape-inside:url(#rect36);display:inline;fill:#f4cae4;fill-opacity:1;stroke:none;stroke-width:2.89134;stroke-dasharray:none"><tspan
         x="275.86914"
         y="238.3928"
         id="tspan551"><tspan
           dx="0 19.565083 16.313786 16.313782 6.5169182 6.5169182 14.666656 16.313782 8.1497269 6.516922 16.313782 16.313789 8.1497192 19.565094"
           id="tspan549">Application/S
</tspan></tspan><tspan
         x="275.86914"
         y="275.05943"
         id="tspan555"><tspan
           dx="0 21.183569 6.5169201 14.666649 14.666649 16.313786 24.434868 6.516922 16.313782 16.313782 8.1497345 6.516922"
           id="tspan553">Disseminatio</tspan></tspan></text>
    <text
       xml:space="preserve"
       transform="scale(0.26458333)"
       id="text44"
       style="font-style:normal;font-variant:normal;font-weight:normal;font-stretch:normal;font-size:26.6667px;font-family:Arial;-inkscape-font-specification:'Arial, Normal';font-variant-ligatures:normal;font-variant-caps:normal;font-variant-numeric:normal;font-variant-east-asian:normal;text-align:start;writing-mode:lr-tb;direction:ltr;white-space:pre;shape-inside:url(#rect44);display:inline;fill:#000000;fill-opacity:1;stroke:none;stroke-width:2.89134;stroke-dasharray:none" />
    <path
       style="fill:none;stroke:#1a1a1a;stroke-width:0.765;stroke-dasharray:none"
       d="m 143.34538,60.981526 -4.78017,12.605852 -12.17052,3.890358"
       id="path15-8-5"
       sodipodi:nodetypes="ccc" />
    <path
       style="fill:none;stroke:#1a1a1a;stroke-width:0.765;stroke-dasharray:none"
       d="m 142.99222,124.6768 -12.60585,-4.78017 -3.89036,-12.17052"
       id="path15-8-5-4"
       sodipodi:nodetypes="ccc" />
    <path
       style="fill:none;stroke:#1a1a1a;stroke-width:0.765;stroke-dasharray:none"
       d="m 78.392597,124.56354 4.78018,-12.60586 12.17052,-3.89036"
       id="path15-8-5-4-7"
       sodipodi:nodetypes="ccc" />
    <path
       style="fill:none;stroke:#1a1a1a;stroke-width:0.765;stroke-dasharray:none"
       d="m 78.925681,60.59988 12.605864,4.780184 3.89036,12.17052"
       id="path15-8-5-4-7-2"
       sodipodi:nodetypes="ccc" />
    <path
       style="fill:#5e3c99;fill-opacity:1;stroke:#1a1a1a;stroke-width:1.35364"
       d="m 293.79214,464.4977 c -9.79504,-10.57309 -19.03539,-24.1537 -26.17248,-38.46588 -28.5484,-57.24884 -22.41818,-125.3519 15.92826,-176.95346 1.58955,-2.139 3.80587,-5.00278 4.92517,-6.36396 3.42574,-4.16607 10.18383,-11.4908 10.59674,-11.48524 0.21443,0.003 10.55247,3.86104 22.9734,8.57367 l 22.58353,8.56842 7.04153,22.03368 7.04153,22.03367 -1.90814,2.06102 c -8.01687,8.65918 -15.33506,22.20869 -18.45883,34.17624 -2.79961,10.72563 -3.50457,23.01578 -1.94922,33.98242 2.17228,15.31655 9.25008,30.80953 19.57182,42.84182 0.90537,1.05541 1.58695,1.97809 1.51463,2.05041 -0.0723,0.0723 -10.03856,3.29573 -22.1472,7.16312 -12.10863,3.86739 -22.13731,7.22839 -22.28595,7.46889 -0.14863,0.2405 -3.96949,10.23385 -8.49079,22.20744 -4.5213,11.97359 -8.3287,21.89712 -8.46088,22.05228 -0.13217,0.15516 -1.16858,-0.71988 -2.30312,-1.94454 z"
       id="path1"
       transform="scale(0.26458333)" />
    <path
       style="fill:#e66101;fill-opacity:1;stroke:#1a1a1a;stroke-width:1.35364"
       d="m 476.54533,288.53722 c -10.09697,-9.59856 -25.1256,-17.38432 -39.1998,-20.30792 -6.91689,-1.43683 -10.54803,-1.7933 -18.03122,-1.77016 -10.68913,0.0331 -19.57572,1.62314 -29.39441,5.25957 -9.27908,3.43658 -20.48413,10.30868 -26.82058,16.44917 l -1.76776,1.7131 -7.03204,-22.0232 -7.03204,-22.0232 -22.66645,-8.58297 c -12.46654,-4.72063 -22.7293,-8.64099 -22.80612,-8.71191 -0.38608,-0.3564 9.57843,-8.97237 15.69603,-13.57181 24.94771,-18.75665 53.59827,-29.96007 85.55991,-33.45707 7.78915,-0.85223 25.35211,-0.86352 33.05725,-0.0213 6.75049,0.73791 15.00035,2.0912 20.88854,3.42651 29.87196,6.77429 57.63617,21.66048 79.71875,42.74236 l 3.20334,3.05818 -8.68342,22.90733 c -4.77587,12.59904 -8.92206,23.03789 -9.21374,23.19744 -0.62267,0.34061 -42.66539,13.80532 -43.04959,13.78718 -0.14339,-0.007 -1.23538,-0.93888 -2.42665,-2.07135 z"
       id="path2"
       transform="scale(0.26458333)" />
    <path
       style="fill:#b2abd2;fill-opacity:1;stroke:#1a1a1a;stroke-width:1.35364"
       d="m 517.30047,460.71392 c -12.61101,-4.80565 -23.05324,-8.96683 -23.20496,-9.24707 -0.22545,-0.41641 -12.50412,-38.53866 -13.45305,-41.76838 -0.24671,-0.83972 -0.0241,-1.24141 1.8613,-3.35876 7.40964,-8.32113 13.29571,-18.53281 16.85002,-29.23294 3.02666,-9.11166 4.28301,-16.99158 4.28301,-26.86338 0,-19.60998 -6.43144,-37.66734 -18.8924,-53.04363 -1.69785,-2.09507 -3.03392,-3.85385 -2.96906,-3.90841 0.0649,-0.0546 9.8095,-3.18863 21.65475,-6.96463 l 21.53681,-6.86546 8.59118,-22.61607 c 4.72516,-12.43884 8.65539,-22.77517 8.73386,-22.96963 0.50756,-1.25776 12.4007,13.17859 18.77132,22.78535 26.18625,39.48832 34.71047,87.92525 23.55374,133.8388 -6.14605,25.29297 -17.97151,48.78146 -34.62084,68.76613 -3.51792,4.22266 -9.17778,10.27805 -9.55182,10.21934 -0.11812,-0.0185 -10.53286,-3.96561 -23.14386,-8.77126 z"
       id="path5"
       transform="scale(0.26458333)" />
    <path
       style="fill:#fdb863;fill-opacity:1;stroke:#1a1a1a;stroke-width:1.35364"
       d="m 411.35936,520.22246 c -17.65376,-1.18666 -31.75261,-3.93679 -46.95273,-9.15864 -23.31397,-8.00926 -43.84795,-20.57206 -62.78984,-38.41513 l -3.14622,-2.96371 8.58223,-22.62207 8.58223,-22.62208 22.3126,-7.11728 22.3126,-7.11728 2.83376,2.55701 c 12.24794,11.05178 27.70391,18.37648 44.02273,20.86267 5.2672,0.80247 14.83293,1.07087 20.15254,0.56546 17.95246,-1.70564 35.16983,-9.11795 48.03231,-20.67854 1.23594,-1.11084 2.31825,-1.9486 2.40515,-1.8617 0.0869,0.0869 3.21885,9.7447 6.95987,21.46178 l 6.80187,21.30377 20.66824,7.83809 c 11.36754,4.31094 21.83465,8.28463 23.26026,8.83041 l 2.59201,0.99233 -1.1778,1.24194 c -2.14647,2.26338 -9.78435,8.81922 -13.99765,12.01465 -9.54726,7.24079 -17.70972,12.28817 -28.19234,17.43317 -19.26103,9.45354 -38.75457,14.96709 -59.9273,16.94981 -4.21324,0.39455 -19.92178,0.73473 -23.33452,0.50534 z"
       id="path6"
       transform="scale(0.26458333)" />
    <path
       style="fill:#fdb863;fill-opacity:1;stroke:#1a1a1a;stroke-width:1.35364"
       d="m 404.81862,673.83572 c -72.84969,-3.44165 -142.33655,-31.29108 -197.35623,-79.0978 -6.84124,-5.94437 -13.73852,-12.52018 -13.59969,-12.96583 0.43212,-1.38707 28.76882,-82.38868 28.85051,-82.47037 0.20651,-0.20651 73.92886,-25.18047 74.34092,-25.18351 0.23257,-0.002 2.22131,1.6855 4.41942,3.74937 17.26146,16.2073 38.96362,29.15903 62.03985,37.02506 14.68355,5.0052 31.42922,8.30802 45.37109,8.94872 2.62513,0.12064 4.96933,0.3223 5.20932,0.44814 0.30365,0.15922 -3.4117,8.02125 -12.21611,25.85049 -6.95886,14.09193 -14.76938,29.93644 -17.35672,35.21001 l -4.70425,9.58832 18.64342,38.67172 c 10.25388,21.26944 18.8665,39.10924 19.13915,39.64399 l 0.49573,0.97227 -3.633,-0.0533 c -1.99815,-0.0293 -6.33768,-0.18109 -9.64341,-0.33727 z"
       id="path7"
       transform="scale(0.26458333)" />
    <path
       style="fill:#fdb863;fill-opacity:1;stroke:#1a1a1a;stroke-width:1.35364"
       d="m 423.02662,673.86859 c 0,-0.19674 -8.5118,-18.01248 -18.91511,-39.59053 -10.4033,-21.57805 -18.9151,-39.29412 -18.9151,-39.36904 0,-0.155 34.60995,-70.32276 34.74024,-70.43192 0.0466,-0.0391 3.52287,-0.2506 7.72498,-0.47008 24.94403,-1.30287 46.80516,-6.93565 68.72732,-17.7084 15.56156,-7.6471 30.46353,-17.91918 41.9385,-28.90864 l 2.34052,-2.2415 2.34502,6.81954 c 1.28976,3.75074 7.08823,20.80154 12.88551,37.89066 l 10.54049,31.07113 40.74032,14.22969 c 22.40717,7.82633 40.81859,14.30797 40.91426,14.40364 0.25453,0.25453 -10.77048,10.51997 -17.53111,16.3233 -38.88919,33.38244 -84.1037,56.66465 -133.87137,68.93407 -20.62311,5.08429 -41.07473,8.00197 -63.41142,9.04642 -9.48204,0.44337 -10.25305,0.4435 -10.25305,0.002 z"
       id="path8"
       transform="scale(0.26458333)" />
    <path
       style="fill:#5e3c99;fill-opacity:1;stroke:#1a1a1a;stroke-width:1.35364"
       d="M 184.1524,572.32404 C 155.69531,541.85936 134.47767,508.61005 119.33819,470.75633 107.06155,440.06067 99.740915,408.69161 97.055991,375.27669 c -0.34423,-4.28408 -1.111931,-21.8432 -0.957976,-21.91117 0.03768,-0.0166 17.719895,-8.53274 39.293815,-18.92469 21.57392,-10.39194 39.39302,-18.84973 39.59798,-18.79508 0.20497,0.0546 16.21043,7.90705 35.56771,17.44979 l 35.19504,17.35044 0.41963,8.18283 c 0.77212,15.05648 2.87433,27.53698 6.99031,41.50036 7.30643,24.78695 21.32531,49.55128 38.35784,67.75911 l 2.093,2.23742 -37.20512,12.61949 c -20.46282,6.94072 -37.30503,12.73063 -37.42714,12.86646 -0.1221,0.13583 -6.54622,18.38426 -14.2758,40.55205 -7.72958,22.1678 -14.23228,40.74689 -14.45045,41.28687 l -0.39666,0.98177 z"
       id="path9"
       transform="scale(0.26458333)" />
    <path
       style="fill:#5e3c99;fill-opacity:1;stroke:#1a1a1a;stroke-width:1.35364"
       d="m 96.19052,342.70243 c 1.422633,-40.97571 8.75836,-76.35017 23.48393,-113.24461 14.49091,-36.30651 38.85293,-74.16662 65.20798,-101.33731 l 3.56152,-3.67174 41.01219,14.34017 c 22.55671,7.8871 41.12116,14.45039 41.25433,14.58509 0.2504,0.25327 25.39049,74.19095 25.39049,74.6741 0,0.14947 -1.52543,1.90351 -3.38985,3.89785 -11.5063,12.30816 -20.52302,25.23724 -28.09826,40.29012 -10.72417,21.31017 -16.96653,44.28923 -18.32321,67.45046 -0.16264,2.77655 -0.37042,5.123 -0.46175,5.21433 -0.0913,0.0913 -16.10186,-7.69914 -35.57895,-17.31215 l -35.4129,-17.4782 -38.80443,18.7201 c -21.34244,10.29607 -39.078579,18.80728 -39.41365,18.91381 -0.563319,0.1791 -0.595523,-0.20078 -0.42744,-5.04202 z"
       id="path10"
       transform="scale(0.26458333)" />
    <path
       style="fill:#e66101;fill-opacity:1;stroke:#1a1a1a;stroke-width:1.35364"
       d="m 299.48376,222.83418 c -0.3177,-0.9276 -6.00047,-17.67599 -12.62838,-37.21865 -6.62791,-19.54267 -12.23092,-35.71257 -12.45113,-35.93311 -0.22021,-0.22054 -18.81149,-6.82315 -41.31396,-14.67246 l -40.91358,-14.27148 2.19948,-2.24438 c 1.20972,-1.23441 4.66552,-4.48564 7.67957,-7.22496 39.19238,-35.620073 86.15609,-60.926377 137.53226,-74.108992 23.9007,-6.13268 48.99955,-9.553213 73.64432,-10.036428 5.56906,-0.109193 5.5817,-0.107663 4.34599,0.52629 l -1.2393,0.635802 2.23054,4.683812 c 1.2268,2.576096 8.72036,18.127678 16.65236,34.559072 7.93199,16.431393 15.49923,32.131129 16.81608,34.888294 l 2.39428,5.01304 -17.06037,34.58494 -17.06037,34.58494 -7.69372,0.41456 c -12.28182,0.66176 -20.86992,1.78017 -30.94151,4.02944 -20.16187,4.5027 -40.48575,13.12633 -57.7316,24.4961 -7.13104,4.70132 -16.07146,11.6731 -21.59355,16.83874 l -2.28978,2.14198 z"
       id="path11"
       transform="scale(0.26458333)" />
    <path
       style="fill:#e66101;fill-opacity:1;stroke:#1a1a1a;stroke-width:1.35364"
       d="m 538.09889,223.50504 c -14.74647,-14.06633 -34.58468,-26.5845 -54.61464,-34.46258 -17.26129,-6.78912 -36.30398,-11.01806 -53.1214,-11.79703 -2.67374,-0.12385 -4.86136,-0.25638 -4.86136,-0.29452 0,-0.0381 7.71308,-15.69843 17.14018,-34.80065 L 459.78184,107.41894 440.83279,68.116772 C 430.41081,46.500577 421.67915,28.41507 421.4291,27.926755 l -0.45464,-0.887845 5.18033,0.09275 c 56.97012,1.019975 114.06397,17.799656 163.04192,47.917448 13.65757,8.398381 27.55414,18.482696 39.77476,28.863292 4.51697,3.83687 12.94264,11.48497 15.09507,13.702 l 1.66004,1.70987 -14.21023,40.68758 -14.21023,40.68759 -25.28002,8.57556 c -13.90402,4.71656 -31.01671,10.52405 -38.02821,12.90554 l -12.74818,4.32999 z"
       id="path12"
       transform="scale(0.26458333)" />
    <path
       style="fill:#b2abd2;fill-opacity:1;stroke:#1a1a1a;stroke-width:1.35364"
       d="m 628.97147,366.84073 -35.35534,-17.44028 -0.23881,-2.96167 c -0.13134,-1.62892 -0.41224,-5.5868 -0.62423,-8.7953 -2.26209,-34.23808 -15.57842,-68.18393 -37.5177,-95.63971 -2.17383,-2.72043 -5.36038,-6.47652 -7.08123,-8.34688 l -3.12881,-3.40065 37.20009,-12.6123 c 20.46005,-6.93677 37.54076,-12.69929 37.95714,-12.8056 0.89822,-0.22934 -0.75826,4.30263 16.24395,-44.44206 l 13.05103,-37.41685 4.41942,4.54253 c 21.08299,21.67026 40.53048,49.33225 55.01016,78.24611 18.51387,36.96957 29.71713,76.71805 33.18357,117.73327 0.50592,5.98601 1.35849,23.00062 1.16194,23.18846 -0.39714,0.37954 -78.06944,37.61893 -78.43898,37.60696 -0.26777,-0.009 -16.39677,-7.86388 -35.8422,-17.45603 z"
       id="path15"
       transform="scale(0.26458333)" />
    <path
       style="fill:#b2abd2;fill-opacity:1;stroke:#1a1a1a;stroke-width:1.35364"
       d="m 610.72088,561.36436 -40.52444,-14.17503 -12.77999,-37.68617 c -7.029,-20.7274 -12.77718,-37.81759 -12.77373,-37.97821 0.003,-0.16062 1.34868,-1.75161 2.98942,-3.53553 19.42907,-21.12467 33.53715,-47.3728 40.48104,-75.3151 2.65092,-10.66739 4.4307,-22.43893 4.84571,-32.04987 0.12175,-2.81959 0.31943,-5.30341 0.4393,-5.51961 0.13785,-0.24862 13.21091,6.01987 35.57328,17.05726 19.44543,9.59768 35.58464,17.45109 35.86491,17.45203 0.28027,9.3e-4 17.86071,-8.36869 39.06765,-18.59917 21.20694,-10.23048 38.77367,-18.68616 39.03718,-18.79042 0.52039,-0.20588 0.41238,5.60243 -0.33701,18.12263 -3.07017,51.29436 -18.73088,101.89346 -45.28857,146.32557 -7.38433,12.35429 -18.42281,28.02886 -27.66909,39.28995 -7.1157,8.66625 -17.15657,19.63772 -17.93703,19.59946 -0.2553,-0.0125 -18.70018,-6.40152 -40.98863,-14.19779 z"
       id="path16"
       transform="scale(0.26458333)" />
  </g>
  <g
     inkscape:groupmode="layer"
     id="layer2"
     inkscape:label="Ebene 2"
     style="display:inline"
     transform="translate(-24.47145,-6.1946477)">
    <path
       d="m 124.02454,121.82753 -0.774,0.29187 q -0.35743,-0.95503 -0.11547,-1.75806 0.24094,-0.79728 1.01798,-1.33808 0.8042,-0.5597 1.53649,-0.58581 0.73127,-0.0204 1.42811,0.41638 0.69345,0.43911 1.18937,1.15169 0.5408,0.77705 0.64705,1.55936 0.10524,0.78805 -0.23326,1.46686 -0.33952,0.68458 -0.9978,1.14272 -0.74651,0.51954 -1.51998,0.49373 -0.77347,-0.0263 -1.45309,-0.57529 l 0.54184,-0.60375 q 0.55091,0.42247 1.05244,0.44111 0.50154,0.0186 1.00034,-0.32852 0.57345,-0.39911 0.769,-0.94318 0.19214,-0.54171 0.0247,-1.11521 -0.16509,-0.57011 -0.50752,-1.06212 -0.44161,-0.63454 -0.95547,-0.98206 -0.51488,-0.34177 -1.06804,-0.30432 -0.55318,0.0374 -1.00786,0.35389 -0.5531,0.38494 -0.71454,0.97076 -0.16146,0.58582 0.13971,1.30803 z m -1.53866,0.97228 q 0.505,1.11009 0.13094,1.92518 -0.31354,0.67857 -1.05486,1.0158 -0.8241,0.3749 -1.59368,0.071 -0.76785,-0.30017 -1.20095,-1.25222 -0.35093,-0.77142 -0.31962,-1.3216 0.0292,-0.5447 0.36203,-0.99129 0.329,-0.44488 0.85207,-0.68284 0.83915,-0.38173 1.60325,-0.0799 0.76033,0.30359 1.22082,1.31586 z m -0.69616,0.31668 q -0.34922,-0.76766 -0.85874,-0.99913 -0.50781,-0.22771 -1.01582,0.003 -0.50425,0.22938 -0.66455,0.76557 -0.1603,0.53619 0.19748,1.32265 0.33723,0.74133 0.84881,0.96733 0.50951,0.23148 1.01,0.004 0.508,-0.2311 0.67002,-0.76353 0.16202,-0.53242 -0.18721,-1.30008 z m -4.79065,-0.32946 1.16838,4.23212 -0.64558,0.17822 -0.16612,-0.60174 q -0.27373,0.8261 -1.15442,1.06925 -0.38256,0.10561 -0.73987,0.0542 -0.3602,-0.0464 -0.58121,-0.22553 -0.22101,-0.17915 -0.36948,-0.4684 -0.0949,-0.18825 -0.23238,-0.68638 l -0.71842,-2.60223 0.71731,-0.19804 0.71071,2.57434 q 0.12102,0.43835 0.26411,0.63044 0.1442,0.19608 0.39459,0.26419 0.24752,0.0732 0.53445,-0.006 0.45828,-0.12653 0.7127,-0.50984 0.25045,-0.38223 0.026,-1.19518 l -0.6381,-2.31132 z m -7.21947,3.09445 -0.73786,-0.007 q 0.029,-0.76545 0.46983,-1.25159 0.43756,-0.48154 1.15175,-0.56747 0.89477,-0.10768 1.51081,0.40948 0.61242,0.52175 0.7438,1.61355 0.085,0.70598 -0.0853,1.26361 -0.17024,0.55763 -0.61476,0.87761 -0.44811,0.32458 -1.01044,0.39224 -0.71008,0.0854 -1.20504,-0.22142 -0.49446,-0.30276 -0.70121,-0.94828 l 0.70495,-0.19726 q 0.15545,0.42684 0.44482,0.61687 0.28525,0.19054 0.65465,0.14609 0.55822,-0.0672 0.8587,-0.5114 0.30097,-0.44012 0.19677,-1.30617 -0.1057,-0.87837 -0.49018,-1.236 -0.38448,-0.35764 -0.92627,-0.29244 -0.43507,0.0523 -0.6944,0.3542 -0.25931,0.30187 -0.27062,0.86536 z m -4.60884,-0.17482 -0.76576,-0.11804 q 0.20193,-0.66814 0.70478,-1.02535 0.50285,-0.35722 1.26732,-0.33439 0.96281,0.0289 1.51129,0.63657 0.54422,0.61184 0.51226,1.6821 -0.033,1.10745 -0.6216,1.70199 -0.58851,0.59455 -1.49762,0.5674 -0.88018,-0.026 -1.42014,-0.64213 -0.53996,-0.61584 -0.5075,-1.70263 0.002,-0.0661 0.01,-0.19823 l 3.27276,0.0977 q -0.0197,-0.72438 -0.37603,-1.11967 -0.35629,-0.39529 -0.90588,-0.4117 -0.40909,-0.0124 -0.70477,0.19402 -0.29568,0.20624 -0.47917,0.67226 z m 2.40626,1.27542 -2.45044,-0.0731 q 0.0331,0.55521 0.25619,0.83898 0.34254,0.44037 0.90866,0.45727 0.51241,0.0151 0.87389,-0.31719 0.35736,-0.33261 0.4117,-0.90588 z m -3.75369,-4.48107 -1.13157,5.96667 -0.66612,-0.12633 0.1063,-0.56052 q -0.29797,0.28433 -0.62528,0.39056 -0.32809,0.1103 -0.75051,0.0302 -0.55239,-0.10482 -0.920899,-0.46919 -0.36849,-0.36443 -0.48516,-0.92516 -0.11744,-0.55666 -3.6e-4,-1.17404 0.12556,-0.66206 0.46611,-1.1487 0.335719,-0.48335 0.844549,-0.6814 0.504,-0.19475 1.00359,-0.10001 0.36556,0.0693 0.62873,0.27914 0.25911,0.20903 0.40127,0.48005 l 0.39825,-2.09991 z m -1.37999,3.65997 q 0.15792,-0.83266 -0.10372,-1.29464 -0.26163,-0.46198 -0.74091,-0.55288 -0.48741,-0.0924 -0.91046,0.25233 -0.42787,0.34804 -0.59195,1.21319 -0.156359,0.82453 0.10702,1.29947 0.25932,0.47416 0.73048,0.56352 0.4671,0.0886 0.91178,-0.28152 0.43986,-0.36682 0.59776,-1.19947 z m -5.280801,-2.87066 0.09528,-0.65922 q 0.31954,0.0315 0.556101,0.10605 0.386364,0.12188 0.560713,0.31125 0.174349,0.18938 0.198908,0.41387 0.02327,0.22844 -0.17816,0.86715 l -0.759876,2.40893 0.520418,0.16417 -0.174106,0.55196 -0.520429,-0.16416 -0.32708,1.03691 -0.840045,0.20319 0.461399,-1.46271 -0.713615,-0.22511 0.174117,-0.55196 0.713613,0.2251 0.772306,-2.44837 q 0.09575,-0.30358 0.08769,-0.40151 -0.01211,-0.0992 -0.07873,-0.17654 -0.07057,-0.0786 -0.228281,-0.12836 -0.11828,-0.0373 -0.320171,-0.0706 z m -2.395676,3.93985 -0.314548,0.79586 -0.69205,-0.27353 0.314549,-0.79585 z m 1.913128,-4.84051 -1.613779,4.0831 -0.692045,-0.27352 1.613767,-4.08309 z m -2.537506,1.39338 q -0.570344,1.07798 -1.444168,1.27981 -0.728759,0.16631 -1.448631,-0.21456 -0.800265,-0.42341 -1.029789,-1.21835 -0.231459,-0.79128 0.257684,-1.71579 0.396341,-0.7491 0.851038,-1.06042 0.449109,-0.30961 1.005971,-0.31899 0.553207,-0.0113 1.061137,0.25742 0.814881,0.43114 1.042685,1.2205 0.22415,0.78741 -0.295927,1.77038 z m -0.676022,-0.35767 q 0.394408,-0.74545 0.26639,-1.29025 -0.129951,-0.54114 -0.623265,-0.80214 -0.489659,-0.25908 -1.012085,-0.0584 -0.522426,0.20065 -0.926501,0.96437 -0.380874,0.71988 -0.247268,1.26295 0.128017,0.5448 0.614022,0.80194 0.493314,0.26101 1.013805,0.064 0.520491,-0.19701 0.914899,-0.94246 z m -2.665871,-3.994 -2.636749,3.51048 -0.535495,-0.40222 0.374904,-0.49913 q -0.82124,0.28798 -1.551763,-0.26073 -0.317331,-0.23834 -0.494875,-0.55266 -0.183333,-0.3135 -0.176518,-0.59792 0.0068,-0.28443 0.145105,-0.57868 0.09108,-0.1901 0.401437,-0.6033 l 1.621277,-2.15851 0.594996,0.44691 -1.603897,2.13537 q -0.273109,0.36361 -0.337765,0.59425 -0.06714,0.23395 0.03191,0.4738 0.09326,0.24067 0.331259,0.41943 0.380136,0.28552 0.839047,0.25277 0.455603,-0.0352 0.962098,-0.70956 l 1.440031,-1.9172 z"
       id="text11"
       style="font-size:8.46667px;font-family:Arial;-inkscape-font-specification:Arial;stroke:#1a1a1a;stroke-width:0.264583"
       aria-label="Conception" />
    <g
       id="text12"
       transform="rotate(5.373216,117.60187,69.945616)"
       style="fill:#ffffff">
      <path
         style="-inkscape-font-specification:Arial;fill:#ffffff"
         d="m 87.653622,111.3954 -5.031024,3.37933 -2.443442,-3.63771 0.593703,-0.39879 1.996245,2.97194 1.54088,-1.035 -1.869463,-2.7832 0.59027,-0.39648 1.869463,2.78319 1.71247,-1.15026 -2.07462,-3.08862 0.593702,-0.39879 z m -2.755779,-4.22707 -2.741002,-0.51722 -1.3063,2.22298 -0.384518,-0.84698 0.658762,-1.03913 q 0.188656,-0.29449 0.321494,-0.48193 -0.323642,-0.0528 -0.578856,-0.10496 l -1.250757,-0.24487 -0.367429,-0.80933 2.509368,0.52703 1.440523,-2.44736 0.377682,0.83192 -0.869681,1.38459 -0.235907,0.37043 2.054065,0.3342 z m -0.277793,-4.7967 -5.842255,1.65819 -0.185121,-0.65224 0.54883,-0.15577 q -0.387609,-0.13923 -0.629092,-0.38441 -0.245459,-0.24404 -0.362853,-0.65765 -0.153516,-0.54088 0.0075,-1.0335 0.160999,-0.49263 0.610232,-0.8479 0.445257,-0.354134 1.049766,-0.52571 0.648255,-0.183992 1.235844,-0.09722 0.582484,0.08393 0.9873,0.45034 0.39971,0.36356 0.538551,0.85274 0.101591,0.35793 0.03174,0.68717 -0.07098,0.32526 -0.249727,0.57368 l 2.056124,-0.58359 z m -3.890583,0.40377 q 0.815291,-0.2314 1.11135,-0.67211 0.29606,-0.44072 0.162863,-0.91001 -0.135455,-0.47724 -0.633082,-0.70128 -0.502732,-0.22689 -1.349839,0.0135 -0.807337,0.22915 -1.114199,0.67722 -0.30799,0.44411 -0.177051,0.90544 0.129811,0.45736 0.659792,0.68941 0.524875,0.22919 1.340166,-0.002 z m -0.690284,-7.31791 0.0031,-0.774796 q 0.69069,0.100623 1.118529,0.544936 0.427839,0.444314 0.518628,1.203718 0.114345,0.956438 -0.405421,1.588985 -0.524361,0.628932 -1.587526,0.756037 -1.100109,0.131521 -1.775356,-0.362322 -0.675247,-0.493842 -0.783212,-1.396917 -0.10453,-0.874341 0.424427,-1.499659 0.528957,-0.625318 1.608541,-0.754386 0.06568,-0.0079 0.197526,-0.01945 l 0.388675,3.251069 q 0.713447,-0.126931 1.051525,-0.537905 0.338077,-0.410975 0.272807,-0.956925 -0.04858,-0.406383 -0.296391,-0.668206 -0.247807,-0.261823 -0.735884,-0.374178 z m -0.904488,2.568796 -0.291015,-2.434197 q -0.544166,0.11502 -0.791711,0.377773 -0.384703,0.404059 -0.31747,0.966428 0.06085,0.509006 0.443272,0.817188 0.381929,0.304078 0.956924,0.272808 z m 2.235309,-4.432204 -4.390325,-0.03059 0.0047,-0.669711 0.665576,0.0046 q -0.465358,-0.259564 -0.612685,-0.47557 -0.147298,-0.220139 -0.145483,-0.480582 0.0026,-0.376196 0.245101,-0.763123 l 0.688595,0.261119 q -0.163127,0.271722 -0.165028,0.544567 -0.0017,0.243907 0.145771,0.439243 0.143337,0.195306 0.403204,0.279801 0.396001,0.126786 0.867279,0.130069 l 2.298513,0.01601 z m -5.103406,-3.275416 -0.852628,-0.07317 0.06363,-0.741416 0.852628,0.07317 z m 5.18579,0.445052 -4.374352,-0.375413 0.06363,-0.741415 4.374352,0.375412 z m 0.05356,-1.89621 -4.269671,-1.022641 0.155033,-0.647286 0.599041,0.143478 q -0.265445,-0.276129 -0.37448,-0.655081 -0.113055,-0.379915 -0.01098,-0.806078 0.113627,-0.474408 0.382847,-0.728754 0.270184,-0.258367 0.65383,-0.298261 -0.626465,-0.685678 -0.431951,-1.4978 0.152144,-0.635224 0.58779,-0.89222 0.431625,-0.257959 1.163339,-0.0827 l 2.930876,0.701983 -0.172366,0.719653 -2.689652,-0.644207 q -0.434204,-0.103997 -0.640496,-0.07689 -0.209349,0.02213 -0.370236,0.179139 -0.160887,0.157014 -0.220589,0.406279 -0.10785,0.450285 0.122423,0.820016 0.226253,0.368767 0.8856,0.526689 l 2.48059,0.594134 -0.173329,0.723673 -2.77408,-0.664428 q -0.482449,-0.115553 -0.766043,0.0036 -0.283593,0.119121 -0.379887,0.521162 -0.07318,0.305551 0.02504,0.605395 0.09919,0.295823 0.380834,0.486561 0.281646,0.190738 0.864605,0.330365 l 2.215244,0.530579 z m 1.835536,-10.1251 0.408211,-0.658545 q 0.535853,0.447257 0.667843,1.049784 0.13199,0.602528 -0.188136,1.297118 -0.403186,0.874809 -1.177152,1.141733 -0.77599,0.261439 -1.748417,-0.186738 -1.006217,-0.46375 -1.323093,-1.237977 -0.316876,-0.774228 0.06381,-1.600228 0.368578,-0.799717 1.146592,-1.055671 0.778014,-0.255954 1.765459,0.199144 0.06007,0.02769 0.178488,0.08681 L 81.76461,80.75144 q 0.674349,0.265277 1.177528,0.09205 0.503179,-0.173227 0.733324,-0.672581 0.17131,-0.3717 0.0972,-0.724499 -0.07411,-0.352799 -0.431179,-0.704003 z m -2.115244,1.715386 1.026133,-2.226444 q -0.523874,-0.18682 -0.872331,-0.0925 -0.539288,0.142929 -0.776354,0.657301 -0.214571,0.465563 -0.05003,0.928324 0.166273,0.459005 0.672581,0.733323 z m 4.193875,-2.636452 -3.649571,-2.440599 0.372295,-0.556714 0.518913,0.347015 q -0.33251,-0.804241 0.175374,-1.563709 0.220619,-0.329905 0.524746,-0.524391 0.302989,-0.200221 0.587358,-0.208987 0.284369,-0.0088 0.58575,0.113205 0.194806,0.08054 0.62437,0.367805 l 2.244039,1.50067 -0.413661,0.618571 -2.219984,-1.484583 q -0.378015,-0.252793 -0.611847,-0.304724 -0.237269,-0.05423 -0.471335,0.0578 -0.235205,0.106297 -0.400669,0.353725 -0.264284,0.395198 -0.20646,0.851628 0.06012,0.452992 0.761168,0.921808 l 1.993174,1.332907 z m 3.27845,-5.503259 0.569394,0.345572 q -0.153956,0.281762 -0.315184,0.470263 -0.26334,0.307885 -0.505838,0.394235 -0.242498,0.08635 -0.458699,0.02111 -0.219343,-0.06793 -0.728296,-0.503244 l -1.91957,-1.641843 -0.354703,0.414702 -0.439836,-0.376199 0.354702,-0.414703 -0.826263,-0.706718 0.141696,-0.852573 1.165566,0.996929 0.486372,-0.568645 0.439836,0.3762 -0.486372,0.568645 1.950987,1.668715 q 0.24191,0.206909 0.335211,0.237751 0.09599,0.0277 0.19326,-0.0033 0.09996,-0.03418 0.207445,-0.159852 0.08061,-0.09425 0.190292,-0.267003 z"
         id="path13" />
      <path
         style="-inkscape-font-specification:Arial;fill:#ffffff"
         d="m 84.123047,69.216797 -0.191406,1.15625 0.783203,0.669922 -0.355469,0.414062 L 85,72.005859 l 0.355469,-0.416015 1.818359,1.55664 c 0.343853,0.294102 0.5805,0.46894 0.775391,0.529297 0.172684,0.05211 0.35968,0.04183 0.542968,-0.02344 0.194218,-0.06916 0.375921,-0.215784 0.560547,-0.431641 0.115129,-0.134603 0.226029,-0.300141 0.332032,-0.494141 l 0.06055,-0.111328 -0.878906,-0.53125 v 0.191407 c -0.06135,0.09449 -0.116277,0.175589 -0.158203,0.224609 -0.06234,0.07289 -0.116982,0.107717 -0.150391,0.119141 -0.04032,0.0125 -0.07293,0.01269 -0.111328,0.002 -0.01244,-0.0046 -0.132897,-0.07737 -0.289062,-0.210938 l -1.84961,-1.582031 0.486329,-0.570313 -0.640625,-0.546875 -0.486329,0.56836 z m 0.185547,0.503906 1.08789,0.931641 0.486328,-0.56836 0.238282,0.203125 -0.486328,0.56836 2.050781,1.755859 c 0.16519,0.14129 0.267305,0.224182 0.380859,0.261719 l 0.002,0.002 h 0.002 c 0.08806,0.02541 0.183781,0.02405 0.271485,-0.0039 h 0.002 c 0.09987,-0.03415 0.184652,-0.104545 0.265625,-0.199219 0.0378,-0.04419 0.08201,-0.115297 0.125,-0.177734 l 0.347656,0.210937 c -0.07636,0.12745 -0.154036,0.254389 -0.230469,0.34375 -0.166493,0.194656 -0.320105,0.309494 -0.449218,0.355469 -0.140043,0.04987 -0.259417,0.05246 -0.375,0.01758 v 0.002 c -0.09757,-0.03022 -0.34689,-0.192199 -0.681641,-0.478516 l -2.019531,-1.728515 -0.355469,0.416015 -0.238281,-0.205078 0.355469,-0.414062 -0.871094,-0.744141 z m -0.363282,3.021484 c -0.219137,0.0068 -0.439116,0.08698 -0.65625,0.230469 -0.218149,0.139977 -0.407024,0.328055 -0.5625,0.560547 -0.300834,0.449856 -0.275902,0.936285 -0.158203,1.417969 l -0.46289,-0.310547 -0.517578,0.777344 3.86914,2.585937 0.560547,-0.83789 -2.103516,-1.40625 C 83.462231,75.45761 83.243445,75.172844 83.210937,74.931641 v -0.002 c -0.03425,-0.273833 0.02531,-0.52015 0.185547,-0.759765 0.09907,-0.148151 0.211441,-0.246846 0.34375,-0.306641 h 0.002 l 0.002,-0.002 c 0.132844,-0.06358 0.255088,-0.07651 0.384765,-0.04687 0.126266,0.02804 0.321395,0.121308 0.566406,0.285156 l 2.330079,1.558594 0.560546,-0.839844 -2.353515,-1.574218 C 84.943113,73.05067 84.735401,72.927028 84.585937,72.865234 h -0.002 c -0.21536,-0.08718 -0.428756,-0.129542 -0.638672,-0.123047 z m 0.0078,0.263672 c 0.169243,-0.0052 0.344769,0.02802 0.53125,0.103516 0.110278,0.04559 0.318119,0.16592 0.601562,0.355469 l 2.134766,1.425781 -0.267578,0.400391 -2.109375,-1.41211 c -0.259008,-0.173208 -0.47074,-0.281066 -0.65625,-0.322265 -0.185394,-0.04237 -0.376506,-0.01795 -0.554688,0.06641 -0.181297,0.08193 -0.335486,0.218638 -0.457031,0.40039 -0.19175,0.286735 -0.270821,0.607466 -0.228515,0.941407 h 0.002 c 0.04812,0.362574 0.33608,0.693107 0.818359,1.015625 l 1.882813,1.257812 -0.265625,0.398438 -3.429688,-2.291016 0.224609,-0.337891 0.771485,0.515625 -0.167969,-0.402343 c -0.206969,-0.500595 -0.155116,-0.962168 0.164063,-1.439453 0.138142,-0.206573 0.299947,-0.36714 0.486328,-0.486329 v -0.002 h 0.002 c 0.186851,-0.123475 0.357556,-0.182567 0.517578,-0.1875 z m -2.802734,4.361328 c -0.551638,0.18148 -0.968279,0.564593 -1.226563,1.125 -0.266207,0.577609 -0.290938,1.156476 -0.06641,1.705079 0.226337,0.553011 0.699192,0.989922 1.390625,1.308593 0.669314,0.308477 1.290856,0.37834 1.845703,0.191407 h 0.002 c 0.551395,-0.190164 0.973788,-0.603153 1.253906,-1.210938 0.222397,-0.482543 0.292317,-0.946956 0.197266,-1.380859 -0.09454,-0.431556 -0.337321,-0.809573 -0.712891,-1.123047 l -0.117187,-0.09766 -0.542969,0.876953 0.07422,0.07422 c 0.225519,0.221816 0.352096,0.434708 0.394531,0.636719 0.04327,0.205983 0.01662,0.415814 -0.08789,0.642578 -0.140523,0.304899 -0.351921,0.498746 -0.65625,0.603516 -0.257797,0.08875 -0.583156,0.03391 -0.9375,-0.07813 l 1.347657,-2.923828 -0.115235,-0.05664 c -0.07956,-0.03972 -0.139101,-0.07023 -0.18164,-0.08984 -0.678854,-0.312873 -1.304761,-0.386226 -1.861328,-0.203125 z m 0.08203,0.25 c 0.480784,-0.15817 1.030229,-0.100564 1.667969,0.19336 0.01291,0.006 0.04267,0.02071 0.06055,0.0293 l -1.375,2.984375 0.13086,0.05078 c 0.469126,0.184546 0.895274,0.221921 1.267578,0.09375 0.366577,-0.1262 0.64421,-0.381281 0.810547,-0.742188 0.123902,-0.268835 0.162966,-0.542224 0.107422,-0.80664 -0.0491,-0.233732 -0.210365,-0.455001 -0.408203,-0.671875 l 0.259765,-0.421875 c 0.256897,0.251956 0.46543,0.517638 0.535156,0.835937 0.08094,0.369467 0.02475,0.769314 -0.179687,1.212891 -0.257463,0.558627 -0.619049,0.906531 -1.099609,1.072266 -0.479807,0.161651 -1.023136,0.107452 -1.650391,-0.181641 -0.650189,-0.299662 -1.059695,-0.688678 -1.255859,-1.167969 -0.197969,-0.483701 -0.180827,-0.970415 0.06055,-1.49414 0.233154,-0.505882 0.582645,-0.826536 1.06836,-0.986329 z m 0.113281,0.394532 c -0.392873,0.104124 -0.689272,0.355199 -0.861328,0.728515 -0.155402,0.337182 -0.175154,0.690492 -0.05469,1.029297 0.12262,0.338497 0.374997,0.609976 0.734375,0.804688 l 0.123047,0.06641 1.146485,-2.484375 -0.136719,-0.04883 c -0.364624,-0.13003 -0.681465,-0.168707 -0.951172,-0.0957 z m 0.06836,0.253906 c 0.158398,-0.04287 0.394305,0.0041 0.644532,0.07227 l -0.873047,1.890625 c -0.228771,-0.155278 -0.425606,-0.321893 -0.507813,-0.548829 -0.09892,-0.278209 -0.08382,-0.544556 0.04687,-0.828125 0.144033,-0.312512 0.363276,-0.497536 0.689453,-0.583984 z m -1.421875,3.986328 c -0.507837,-0.121636 -0.934386,-0.09797 -1.261718,0.09766 -0.32571,0.192143 -0.543241,0.527242 -0.650391,0.97461 -0.125176,0.522626 0.07066,1.009056 0.416016,1.455078 -0.221586,0.04858 -0.435089,0.118066 -0.59961,0.27539 -0.202572,0.191381 -0.339905,0.460843 -0.419922,0.794922 -0.0727,0.303528 -0.07061,0.598331 0.01172,0.875 0.04619,0.15997 0.154315,0.282172 0.240235,0.417969 l -0.435547,-0.103516 -0.216797,0.904297 4.527344,1.083985 0.234375,-0.980469 -2.34375,-0.5625 c -0.380063,-0.09103 -0.655227,-0.198747 -0.820313,-0.310547 -0.16696,-0.11307 -0.27311,-0.24909 -0.330078,-0.417969 v -0.002 c -0.05773,-0.177348 -0.06471,-0.350781 -0.02148,-0.53125 0.05803,-0.242297 0.157736,-0.370735 0.302734,-0.43164 0.150285,-0.06314 0.377688,-0.06936 0.683594,0.0039 l 2.902343,0.695312 0.236329,-0.980468 -2.609375,-0.625 c -0.420215,-0.100647 -0.679406,-0.264556 -0.804688,-0.46875 -0.135875,-0.218164 -0.17049,-0.447278 -0.105469,-0.71875 0.035,-0.146118 0.09552,-0.255849 0.183594,-0.341797 0.08895,-0.08681 0.180452,-0.130891 0.291016,-0.142578 h 0.002 l 0.002,-0.002 c 0.103974,-0.01366 0.309475,0.0086 0.591797,0.07617 l 2.818359,0.673828 0.234375,-0.976562 z m -0.0625,0.257813 2.802735,0.669921 -0.111328,0.462891 -2.560547,-0.613281 c -0.294958,-0.07065 -0.514867,-0.101841 -0.685547,-0.08008 -0.168568,0.01782 -0.323657,0.09426 -0.449219,0.216797 -0.126447,0.123403 -0.211253,0.282514 -0.255859,0.46875 -0.07861,0.328225 -0.03161,0.645505 0.138672,0.919921 0.176389,0.287495 0.507882,0.476022 0.966797,0.585938 l 2.351562,0.564453 -0.111328,0.464844 -2.644531,-0.632813 c -0.33736,-0.0808 -0.621769,-0.08596 -0.84961,0.0098 -0.233126,0.09792 -0.386672,0.319523 -0.457031,0.613281 -0.05419,0.226271 -0.04335,0.455969 0.0293,0.677735 0.0754,0.224872 0.223556,0.413766 0.431641,0.554687 0.210442,0.142517 0.510987,0.254471 0.908203,0.349609 l 2.085937,0.5 -0.111328,0.464844 -4.011719,-0.960937 0.0918,-0.388672 0.910156,0.216797 -0.3125,-0.324219 c -0.162281,-0.168813 -0.276587,-0.368137 -0.34375,-0.601563 -0.06841,-0.229883 -0.07121,-0.473592 -0.0078,-0.738281 0.07149,-0.298464 0.187362,-0.514362 0.34375,-0.662109 v -0.002 h 0.002 c 0.159976,-0.15298 0.344499,-0.237831 0.574219,-0.261719 l 0.261719,-0.02734 -0.177735,-0.193359 c -0.395501,-0.432884 -0.520609,-0.875026 -0.40039,-1.376953 0.09571,-0.399598 0.272191,-0.660028 0.527343,-0.810547 0.248168,-0.148317 0.596673,-0.178449 1.064453,-0.06641 z m -4.572265,6.851562 -0.08594,1.003906 1.115235,0.0957 0.08594,-1.003906 z m 1.664062,0.142578 -0.08594,1.00586 4.636719,0.396484 0.08594,-1.003906 z m -1.423828,0.142578 0.589844,0.05078 -0.04102,0.478515 -0.589843,-0.05078 z m 1.664063,0.142578 4.111328,0.353516 -0.04102,0.478516 -4.111328,-0.353516 z m -0.179688,1.228516 -0.05664,0.0918 c -0.1718,0.274118 -0.263698,0.553124 -0.265625,0.832031 -0.0014,0.198827 0.05622,0.387679 0.167968,0.554688 v 0.002 c 0.06212,0.09108 0.22395,0.178465 0.337891,0.265625 l -0.412109,-0.0039 -0.0078,0.935546 4.65625,0.03125 0.0059,-1.007812 -2.429687,-0.01758 C 78.775544,92.699064 78.499802,92.658103 78.25,92.578125 78.098458,92.528851 77.990489,92.4525 77.912109,92.345703 v -0.002 c -0.08221,-0.108897 -0.120086,-0.221723 -0.11914,-0.357422 0.0011,-0.15584 0.04767,-0.313926 0.146484,-0.478516 L 78.019533,91.373 Z m 0.132813,0.332031 0.453125,0.171875 c -0.06935,0.152501 -0.139528,0.305419 -0.140625,0.462891 -0.0013,0.188656 0.05847,0.366466 0.171875,0.517578 0.112736,0.153611 0.273803,0.264739 0.46875,0.328125 h 0.002 c 0.278199,0.08907 0.58046,0.134449 0.90625,0.136719 l 2.166015,0.01563 -0.0039,0.478515 -4.126953,-0.0293 0.0039,-0.404297 0.533203,0.0039 0.06641,-0.248047 c -0.301792,-0.168331 -0.492778,-0.324731 -0.56836,-0.435547 -0.08388,-0.125994 -0.124076,-0.256519 -0.123047,-0.404297 0.0013,-0.190607 0.08119,-0.389768 0.191407,-0.59375 z m 2.695312,3.179688 -0.0039,0.927734 0.128906,-0.130859 -0.02539,0.259765 c 0.308262,0.07096 0.528029,0.18602 0.669921,0.335938 0.144686,0.152866 0.230129,0.345827 0.259766,0.59375 0.03985,0.33335 -0.03772,0.60886 -0.242187,0.857422 -0.173298,0.210663 -0.478996,0.335787 -0.839844,0.425781 l -0.382813,-3.197266 -0.126953,0.0098 c -0.08861,0.0078 -0.156507,0.01392 -0.203125,0.01953 -0.742198,0.08873 -1.314959,0.353448 -1.693359,0.800782 -0.375048,0.44337 -0.528328,0.988861 -0.455078,1.601562 0.0755,0.631506 0.359423,1.138354 0.83789,1.488281 0.482313,0.352741 1.113189,0.477095 1.869141,0.386719 0.731768,-0.08749 1.296948,-0.353037 1.671875,-0.802734 l 0.002,-0.002 c 0.370296,-0.450644 0.513037,-1.023002 0.433594,-1.6875 -0.06307,-0.527571 -0.246584,-0.95933 -0.554688,-1.279297 -0.306436,-0.318236 -0.711221,-0.51346 -1.195312,-0.583985 z m 0.263672,0.357422 c 0.350767,0.08022 0.666565,0.198878 0.892578,0.433593 0.262349,0.272452 0.424443,0.641985 0.482422,1.126954 0.07302,0.610752 -0.05423,1.095529 -0.376953,1.488281 -0.324221,0.388878 -0.816168,0.626996 -1.501953,0.708984 -0.71086,0.08499 -1.263624,-0.03217 -1.681641,-0.33789 -0.421862,-0.308529 -0.66006,-0.732094 -0.728515,-1.304688 -0.06612,-0.553087 0.0643,-1.008051 0.394531,-1.398437 0.326876,-0.386424 0.824237,-0.625626 1.521484,-0.708985 0.01405,-0.0017 0.04676,-0.0038 0.06641,-0.0059 l 0.390625,3.261719 0.136719,-0.02539 c 0.496325,-0.0883 0.880714,-0.279903 1.13086,-0.583984 0.246296,-0.299405 0.349908,-0.662058 0.302734,-1.056641 -0.03514,-0.293921 -0.146302,-0.547909 -0.332031,-0.744141 -0.164246,-0.173535 -0.416958,-0.278136 -0.699219,-0.359375 z m -1.216797,0.546875 -0.140625,0.0293 c -0.378051,0.07991 -0.667764,0.213276 -0.859375,0.416015 -0.280257,0.294358 -0.402311,0.664115 -0.353515,1.072266 0.04407,0.368646 0.212201,0.680618 0.492187,0.90625 0.281657,0.224245 0.638742,0.322977 1.046875,0.300781 l 0.140625,-0.0078 z m -0.222656,0.351562 0.248047,2.06836 c -0.277109,-0.012 -0.531362,-0.05287 -0.720703,-0.203125 -0.22991,-0.185278 -0.359422,-0.42044 -0.396485,-0.730469 -0.04085,-0.341674 0.05052,-0.614988 0.283203,-0.859375 0.112253,-0.119149 0.338017,-0.202505 0.585938,-0.275391 z m 2.337891,3.759766 c -0.41205,-0.06085 -0.843491,-0.02741 -1.291016,0.09961 -0.417797,0.118582 -0.784184,0.303016 -1.095703,0.550778 -0.316793,0.25053 -0.538595,0.55613 -0.654297,0.91016 -0.115643,0.3538 -0.118307,0.7289 -0.0098,1.11133 0.08274,0.29151 0.21475,0.53149 0.396485,0.71289 3.7e-4,3.7e-4 0.0016,-3.8e-4 0.002,0 3.8e-4,3.8e-4 -3.81e-4,0.002 0,0.002 0.104383,0.10561 0.261806,0.16701 0.40039,0.24414 l -0.390625,0.11133 0.257813,0.90625 6.095703,-1.73047 -0.275391,-0.9707 -1.916015,0.54297 c 0.05174,-0.11265 0.120608,-0.21427 0.148437,-0.3418 0.05129,-0.24175 0.03766,-0.49542 -0.03516,-0.75195 -0.09932,-0.34992 -0.29349,-0.65695 -0.576172,-0.91407 -0.289556,-0.262079 -0.645702,-0.423205 -1.05664,-0.482417 z m -0.03906,0.261719 c 0.365708,0.05269 0.667771,0.191508 0.917969,0.417969 0.249521,0.22735 0.414345,0.48727 0.5,0.78906 0.06264,0.22071 0.07114,0.42777 0.0293,0.625 -0.04395,0.20029 -0.118875,0.37378 -0.226563,0.52344 l -0.222656,0.30859 2.294922,-0.65039 0.128906,0.46094 -5.585937,1.58594 -0.113282,-0.39844 0.81836,-0.23242 -0.388672,-0.13867 c -0.243381,-0.0874 -0.433183,-0.20636 -0.578125,-0.35352 h -0.002 c -0.144618,-0.14378 -0.254609,-0.34059 -0.328125,-0.59961 -0.09615,-0.33875 -0.09319,-0.65401 0.0059,-0.95703 0.09896,-0.30281 0.284222,-0.56199 0.566406,-0.78516 0.282157,-0.22441 0.615692,-0.39176 1.003907,-0.501949 0.416815,-0.118304 0.808285,-0.148597 1.179687,-0.09375 z m 0.392578,0.564449 c -0.376515,-0.16992 -0.85954,-0.1573 -1.441406,0.008 -0.555114,0.15756 -0.956212,0.39448 -1.185547,0.72851 -0.222554,0.32092 -0.295042,0.67309 -0.197266,1.01758 0.09785,0.34475 0.355438,0.60752 0.734375,0.77344 0.387888,0.16937 0.867954,0.16319 1.429688,0.004 l 0.0957,-0.0273 v -0.0312 c 0.491677,-0.15766 0.885092,-0.36122 1.089844,-0.66602 0.214614,-0.31947 0.278485,-0.67339 0.179687,-1.02148 -0.100437,-0.35386 -0.34536,-0.62321 -0.705078,-0.78516 z m -0.109375,0.24219 c 0.303785,0.13677 0.480378,0.33278 0.560547,0.61524 0.0788,0.27762 0.03365,0.53263 -0.146484,0.80078 -0.172004,0.25604 -0.510758,0.46975 -1.03711,0.61914 -0.52532,0.14896 -0.940007,0.14402 -1.251953,0.008 -0.327704,-0.14348 -0.508751,-0.33845 -0.583984,-0.60352 -0.07681,-0.27061 -0.0299,-0.52368 0.158203,-0.79492 0.179954,-0.26276 0.520344,-0.47721 1.041016,-0.625 0.54761,-0.1554 0.965971,-0.15212 1.259765,-0.0195 z m 1.898438,2.52735 -1.521485,2.58398 -2.671875,-0.56055 0.501953,1.10938 1.31836,0.25781 c 0.112913,0.0231 0.250689,0.0452 0.382812,0.0684 -0.0669,0.0987 -0.128635,0.18793 -0.210937,0.31641 l -0.697266,1.10156 0.519531,1.14258 1.388672,-2.36133 2.898438,0.54687 -0.50586,-1.11718 -1.927734,-0.31446 0.128906,-0.20117 0.908203,-1.44336 z m -0.03125,0.57226 0.24414,0.53516 -0.832031,1.32422 -0.34375,0.53906 2.181641,0.35547 0.238281,0.52539 -2.582031,-0.48828 -1.22461,2.08398 -0.25,-0.55078 0.621094,-0.97852 c 0.12504,-0.19518 0.231616,-0.35416 0.318359,-0.47656 l 0.123047,-0.17187 -0.210937,-0.0352 c -0.214383,-0.035 -0.404292,-0.0692 -0.572266,-0.10352 h -0.002 l -1.183594,-0.23242 -0.232422,-0.50976 2.347657,0.49414 z m 1.984375,3.74414 -0.8125,0.54688 2.072265,3.08984 -1.492187,1.00195 -1.869141,-2.7832 -0.808594,0.54297 1.867188,2.7832 -1.320313,0.88867 -1.996093,-2.97265 -0.8125,0.54687 2.589843,3.85742 5.251954,-3.52734 z m -0.07227,0.36719 2.373047,3.53516 -4.810547,3.23046 -2.294922,-3.41601 0.373047,-0.25195 1.996094,2.97265 1.761719,-1.18359 -1.869141,-2.78321 0.369141,-0.24804 1.86914,2.7832 1.933594,-1.29883 -2.074219,-3.08789 z"
         id="path14" />
    </g>
    <path
       d="m 137.46618,79.034901 5.45926,-2.632048 1.167,2.420539 q 0.3519,0.729885 0.38607,1.181539 0.0379,0.449863 -0.22497,0.856557 -0.26287,0.406698 -0.71346,0.623941 -0.58093,0.280081 -1.16072,0.09607 -0.5798,-0.184008 -1.06662,-0.917686 5e-4,0.353175 -0.0618,0.56676 -0.13791,0.456568 -0.43711,0.94965 l -1.02801,1.665959 -0.43808,-0.908633 0.78749,-1.270034 q 0.33894,-0.553524 0.50087,-0.884016 0.16193,-0.330492 0.1872,-0.544616 0.0274,-0.21037 -0.0128,-0.397725 -0.0332,-0.135454 -0.16783,-0.41475 l -0.40397,-0.837879 -2.42426,1.168803 z m 3.39819,-0.74799 0.74869,1.552869 q 0.23878,0.495279 0.47398,0.726096 0.23893,0.229022 0.53238,0.266531 0.29718,0.03567 0.56158,-0.09176 0.38728,-0.186721 0.50034,-0.590028 0.11487,-0.399583 -0.17781,-1.006583 l -0.83306,-1.727892 z m 1.22147,8.753879 0.11206,0.766655 q -0.69797,0.0032 -1.18709,-0.372624 -0.48914,-0.375785 -0.6918,-1.113257 -0.25524,-0.928817 0.16475,-1.631594 0.42504,-0.699888 1.45751,-0.983609 1.06833,-0.293582 1.80948,0.09441 0.74115,0.387989 0.98216,1.264984 0.23333,0.849089 -0.19684,1.546083 -0.43013,0.696997 -1.47854,0.9851 -0.0638,0.01752 -0.19243,0.0486 l -0.86761,-3.157181 q -0.68664,0.231568 -0.95988,0.688228 -0.27324,0.456661 -0.12756,0.986843 0.10844,0.394647 0.39242,0.616728 0.28397,0.22208 0.78332,0.260639 z m 0.51261,-2.674703 0.6496,2.363899 q 0.52103,-0.194626 0.72677,-0.491256 0.32037,-0.456752 0.17032,-1.002879 -0.13583,-0.494305 -0.55982,-0.742222 -0.42288,-0.24393 -0.98684,-0.12754 z m -1.52967,4.89966 3.76882,-0.569807 -0.0983,-0.649938 0.57228,-0.08652 0.0983,0.649938 0.4619,-0.06984 q 0.43738,-0.06613 0.66168,-0.02059 0.30221,0.06302 0.51814,0.302142 0.22065,0.242594 0.29358,0.724937 0.047,0.310663 0.0302,0.697853 l -0.65845,-0.01335 q 0.006,-0.235089 -0.0246,-0.439469 -0.0507,-0.335185 -0.21476,-0.452538 -0.16408,-0.11735 -0.55649,-0.05799 l -0.4006,0.06057 0.12793,0.846145 -0.57227,0.08652 -0.12793,-0.846146 -3.76883,0.569806 z m 0.27632,2.140009 6.0416,-0.479689 0.0589,0.741807 -6.0416,0.479688 z m 1.48666,4.942484 -0.1189,0.765626 q -0.6679,-0.202708 -1.02453,-0.705969 -0.35664,-0.50326 -0.33292,-1.267703 0.0299,-0.962784 0.63832,-1.510557 0.61245,-0.543511 1.68268,-0.510309 1.10741,0.03436 1.70128,0.62356 0.59386,0.589206 0.56566,1.498274 -0.0273,0.880143 -0.64377,1.419393 -0.61646,0.53925 -1.70321,0.505536 -0.0661,-0.002 -0.19822,-0.01027 l 0.10153,-3.272645 q -0.72441,0.01888 -1.12011,0.374725 -0.39569,0.355838 -0.41274,0.905412 -0.0127,0.40908 0.1932,0.704994 0.2059,0.295915 0.67171,0.479947 z m 1.27822,-2.404784 -0.076,2.450352 q 0.55524,-0.03241 0.83927,-0.255218 0.44077,-0.342032 0.45833,-0.908134 0.0159,-0.512383 -0.31617,-0.874254 -0.33221,-0.357739 -0.90541,-0.412746 z m -1.77833,7.168254 -0.22498,0.70276 q -0.7227,-0.25384 -1.05654,-0.8191 -0.33051,-0.56044 -0.20131,-1.268077 0.16188,-0.88658 0.83816,-1.322021 0.67958,-0.430635 1.76138,-0.233101 0.6995,0.127725 1.18179,0.455337 0.4823,0.327608 0.65644,0.846892 0.17746,0.524093 0.0757,1.08125 -0.12844,0.70358 -0.56804,1.08558 -0.4355,0.38275 -1.1133,0.38926 l 0.0202,-0.73175 q 0.45372,-0.0222 0.72085,-0.24239 0.26641,-0.21611 0.33323,-0.58213 0.10096,-0.553098 -0.23443,-0.971555 -0.33136,-0.417716 -1.18948,-0.574407 -0.87031,-0.15892 -1.32569,0.102532 -0.45538,0.261451 -0.5534,0.798278 -0.0787,0.431092 0.13291,0.768102 0.21162,0.33702 0.74653,0.51454 z m -1.76686,2.78142 -0.66056,-0.0854 q 0.0269,-0.31995 0.0978,-0.55761 0.11618,-0.38813 0.30294,-0.56525 0.18677,-0.17713 0.41089,-0.205 0.22806,-0.0267 0.86967,0.16532 l 2.41991,0.7242 0.15645,-0.5228 0.55448,0.16594 -0.15646,0.52279 1.04163,0.31172 0.21558,0.83696 -1.46937,-0.43974 -0.21454,0.71687 -0.55447,-0.16594 0.21453,-0.71686 -2.45951,-0.73605 q -0.30496,-0.0913 -0.40276,-0.0817 -0.099,0.0136 -0.17536,0.0813 -0.0775,0.0717 -0.12497,0.23013 -0.0356,0.11882 -0.0659,0.3212 z m 3.97489,2.33698 0.80041,0.30275 -0.26325,0.69601 -0.80043,-0.30274 z m -4.86825,-1.84136 4.10649,1.55324 -0.26326,0.69602 -4.1065,-1.55323 z m 1.43086,2.51632 q 1.08631,0.55433 1.30103,1.42507 0.17708,0.72622 -0.19311,1.45165 -0.41152,0.80644 -1.20298,1.0477 -0.78777,0.24315 -1.71942,-0.23223 -0.75488,-0.38522 -1.0729,-0.83525 -0.31622,-0.44449 -0.33384,-1.00115 -0.0195,-0.55298 0.2417,-1.06483 0.41903,-0.82116 1.20493,-1.06062 0.78402,-0.23577 1.77458,0.2697 z m -0.34763,0.68124 q -0.7512,-0.38333 -1.29405,-0.24727 -0.53916,0.13794 -0.79284,0.63507 -0.25179,0.49343 -0.0434,1.01284 0.20836,0.51939 0.97798,0.91213 0.72543,0.37017 1.26647,0.22855 0.54284,-0.13607 0.79275,-0.62582 0.25368,-0.49712 0.049,-1.01464 -0.20468,-0.51752 -0.95588,-0.90086 z m -3.95389,2.7243 3.54915,2.58447 -0.39424,0.5414 -0.50464,-0.36748 q 0.30011,0.81689 -0.23771,1.55546 -0.23362,0.32082 -0.54528,0.503 -0.31075,0.18795 -0.59524,0.18535 -0.28449,-0.003 -0.58076,-0.1365 -0.19144,-0.0883 -0.60918,-0.39246 l -2.18229,-1.58913 0.43805,-0.60155 2.1589,1.5721 q 0.36761,0.26769 0.59918,0.32893 0.23491,0.0637 0.47327,-0.0389 0.23926,-0.0968 0.41448,-0.33743 0.27987,-0.38433 0.24032,-0.8427 -0.042,-0.45503 -0.72373,-0.95149 l -1.93833,-1.41147 z"
       id="text9"
       style="font-size:8.46667px;font-family:Arial;-inkscape-font-specification:Arial;stroke:#1a1a1a;stroke-width:0.264583"
       aria-label="Reflection" />
    <path
       d="m 95.684868,65.621345 -2.560586,-4.930278 3.564867,-1.851448 0.30217,0.581813 -2.912429,1.512598 0.784245,1.510024 2.727459,-1.416532 0.300424,0.578451 -2.72746,1.416531 0.871578,1.678178 3.026773,-1.571984 0.302171,0.581814 z m 4.130633,-2.079723 0.719369,-2.453645 -1.909838,-1.392385 0.807348,-0.274263 0.8884,0.694775 q 0.2516,0.198691 0.41059,0.336795 0.0774,-0.290458 0.14802,-0.518557 l 0.33634,-1.118833 0.77145,-0.262074 -0.70739,2.241461 2.10239,1.535088 -0.793,0.269388 -1.18447,-0.918378 -0.3166,-0.248651 -0.49037,1.843548 z m 4.417459,0.171611 -1.05319,-5.466395 0.61027,-0.117579 0.0989,0.513521 q 0.15775,-0.342997 0.40072,-0.544181 0.24225,-0.204905 0.62925,-0.279468 0.50608,-0.0975 0.94327,0.08841 0.43719,0.185919 0.72617,0.62423 0.28829,0.43459 0.39726,1.000207 0.11686,0.606551 -0.009,1.136321 -0.1226,0.525337 -0.48921,0.866115 -0.36358,0.336342 -0.82128,0.424527 -0.33491,0.06452 -0.63008,-0.02524 -0.29144,-0.0905 -0.5042,-0.273349 l 0.37067,1.923845 z m -0.0616,-3.58499 q 0.14698,0.76284 0.52609,1.068007 0.37912,0.305168 0.81822,0.220569 0.44654,-0.08603 0.69042,-0.522813 0.2469,-0.441216 0.0942,-1.233823 -0.14555,-0.755397 -0.53053,-1.071011 -0.38127,-0.316331 -0.81293,-0.233166 -0.42793,0.08245 -0.68168,0.548143 -0.25076,0.461257 -0.10381,1.224095 z m 6.71754,-0.09484 0.70813,0.05472 q -0.13823,0.624705 -0.57307,0.986103 -0.43484,0.361397 -1.13518,0.393565 -0.88205,0.04051 -1.42554,-0.477007 -0.53988,-0.521479 -0.58491,-1.501953 -0.0466,-1.014545 0.45007,-1.598811 0.49669,-0.584266 1.32952,-0.62252 0.80633,-0.03704 1.3426,0.488402 0.53628,0.52544 0.582,1.521057 0.003,0.06057 0.005,0.181881 l -2.99821,0.137715 q 0.0683,0.660744 0.42137,0.997329 0.3531,0.336588 0.85659,0.313461 0.37477,-0.01722 0.63072,-0.226238 0.25596,-0.209024 0.39134,-0.647713 z m -2.28789,-0.998849 2.24486,-0.103113 q -0.0687,-0.505182 -0.29237,-0.749083 -0.34365,-0.378751 -0.86228,-0.354929 -0.46941,0.02157 -0.77676,0.350547 -0.30356,0.328813 -0.31345,0.856578 z m 3.90237,2.330404 0.27968,-4.014829 0.61244,0.04271 -0.0421,0.608668 q 0.26415,-0.410861 0.47022,-0.53326 0.20984,-0.122136 0.44801,-0.105542 0.34401,0.02401 0.68411,0.267992 l -0.27838,0.615003 q -0.23924,-0.164821 -0.48874,-0.182204 -0.22306,-0.01553 -0.41022,0.108176 -0.1869,0.119936 -0.2791,0.352836 -0.1387,0.355021 -0.16872,0.785991 l -0.14643,2.101926 z m 3.25879,-4.49043 0.11072,-0.776593 0.6753,0.09631 -0.11072,0.776593 z m -0.67357,4.723327 0.56817,-3.984252 0.6753,0.0963 -0.56817,3.984252 z m 4.69449,-0.365995 0.66326,0.254014 q -0.31031,0.559525 -0.83003,0.782207 -0.51971,0.222684 -1.20024,0.05419 -0.85709,-0.212215 -1.23081,-0.863024 -0.36912,-0.653575 -0.13323,-1.606313 0.24409,-0.985846 0.88652,-1.404578 0.64244,-0.418732 1.45172,-0.218357 0.78352,0.193998 1.14806,0.850342 0.36454,0.656343 0.12499,1.623796 -0.0146,0.05885 -0.0474,0.175657 l -2.9134,-0.721348 q -0.12262,0.652849 0.12009,1.076014 0.24269,0.423164 0.73193,0.544299 0.36417,0.09016 0.66903,-0.03736 0.30486,-0.127528 0.55951,-0.509537 z m -1.90896,-1.60873 2.18136,0.5401 q 0.0779,-0.503853 -0.0671,-0.801317 -0.22164,-0.460895 -0.72559,-0.585674 -0.45614,-0.11294 -0.84441,0.114962 -0.38459,0.228811 -0.5443,0.731929 z m 3.09773,3.314698 1.51948,-3.726695 0.56848,0.231785 -0.21605,0.529878 q 0.66095,-0.446697 1.43647,-0.130496 0.33688,0.137354 0.56754,0.374636 0.23558,0.235203 0.29583,0.488945 0.0602,0.25374 0.006,0.546837 -0.0365,0.189764 -0.2153,0.628406 l -0.93429,2.291462 -0.63165,-0.25754 0.92429,-2.266898 q 0.15737,-0.386004 0.16095,-0.605542 0.005,-0.223043 -0.13871,-0.412603 -0.13877,-0.191632 -0.39143,-0.294648 -0.40355,-0.164539 -0.80276,-0.02855 -0.3957,0.137412 -0.68758,0.853274 l -0.82985,2.035296 z m 6.97704,1.747565 0.53703,0.411237 q -0.44231,0.545329 -1.03328,0.658858 -0.58578,0.112147 -1.1566,-0.217946 -0.71516,-0.413564 -0.8821,-1.131718 -0.16175,-0.719538 0.34288,-1.59217 0.32629,-0.56426 0.75802,-0.87932 0.43171,-0.31506 0.93367,-0.304955 0.50713,0.0087 0.95658,0.268622 0.56753,0.328196 0.76146,0.825566 0.19581,0.49409 -0.008,1.081072 l -0.62531,-0.243414 q 0.12101,-0.398447 0.0135,-0.697013 -0.10424,-0.296668 -0.39949,-0.467405 -0.44616,-0.258003 -0.91092,-0.09776 -0.46287,0.156964 -0.86316,0.849165 -0.40597,0.702043 -0.32098,1.17582 0.085,0.473777 0.51803,0.724192 0.34774,0.201091 0.70397,0.12255 0.35624,-0.07855 0.67467,-0.485376 z m 3.29289,2.623239 0.50268,0.501746 q -0.511,0.385014 -1.07636,0.377147 -0.56537,-0.0079 -1.11859,-0.438506 -0.69677,-0.542371 -0.77358,-1.288905 -0.0715,-0.747197 0.53139,-1.521714 0.62385,-0.80143 1.38104,-0.922779 0.75718,-0.121349 1.41508,0.390761 0.63695,0.495816 0.70313,1.243676 0.0662,0.747858 -0.54602,1.534337 -0.0373,0.04785 -0.11473,0.141213 l -2.36841,-1.843597 q -0.37745,0.546601 -0.32778,1.031881 0.0496,0.485278 0.44738,0.794874 0.29606,0.23045 0.62643,0.237892 0.33037,0.0074 0.71834,-0.238026 z m -1.08995,-2.245924 1.77331,1.380369 q 0.27604,-0.428649 0.26454,-0.759362 -0.0151,-0.51119 -0.42477,-0.830096 -0.37082,-0.288644 -0.81821,-0.238301 -0.4444,0.05267 -0.79487,0.44739 z"
       id="text14"
       style="font-size:7.76111px;font-family:Arial;-inkscape-font-specification:'Arial, Normal';stroke:#1a1a1a;stroke-width:0.264583"
       aria-label="Experience" />
    <text
       xml:space="preserve"
       style="font-style:normal;font-variant:normal;font-weight:normal;font-stretch:normal;font-size:7.05556px;font-family:Arial;-inkscape-font-specification:'Arial, Normal';font-variant-ligatures:normal;font-variant-caps:normal;font-variant-numeric:normal;font-variant-east-asian:normal;text-align:start;writing-mode:lr-tb;direction:ltr;text-anchor:start;fill:#000000;fill-opacity:1;stroke:none;stroke-width:0.765;stroke-dasharray:none"
       x="71.661713"
       y="27.532795"
       id="text37"><tspan
         sodipodi:role="line"
         id="tspan37"
         style="font-size:7.05556px;fill:#000000;fill-opacity:1;stroke-width:0.765"
         x="71.661713"
         y="27.532795">Application/</tspan><tspan
         sodipodi:role="line"
         style="font-size:7.05556px;fill:#000000;fill-opacity:1;stroke-width:0.765"
         x="71.661713"
         y="36.352245"
         id="tspan38">Dissemination</tspan></text>
    <text
       xml:space="preserve"
       style="font-style:normal;font-variant:normal;font-weight:normal;font-stretch:normal;font-size:7.05556px;font-family:Arial;-inkscape-font-specification:'Arial, Normal';font-variant-ligatures:normal;font-variant-caps:normal;font-variant-numeric:normal;font-variant-east-asian:normal;text-align:start;writing-mode:lr-tb;direction:ltr;text-anchor:start;fill:#000000;fill-opacity:1;stroke:none;stroke-width:0.765;stroke-dasharray:none"
       x="156.89256"
       y="68.79583"
       id="text37-6"><tspan
         sodipodi:role="line"
         style="font-size:7.05556px;stroke-width:0.765"
         x="156.89256"
         y="68.79583"
         id="tspan38-0">Search &amp;</tspan><tspan
         sodipodi:role="line"
         style="font-size:7.05556px;stroke-width:0.765"
         x="156.89256"
         y="77.61528"
         id="tspan39">Discovery</tspan></text>
    <text
       xml:space="preserve"
       style="font-style:normal;font-variant:normal;font-weight:normal;font-stretch:normal;font-size:7.05556px;font-family:Arial;-inkscape-font-specification:'Arial, Normal';font-variant-ligatures:normal;font-variant-caps:normal;font-variant-numeric:normal;font-variant-east-asian:normal;text-align:start;writing-mode:lr-tb;direction:ltr;text-anchor:start;fill:#000000;fill-opacity:1;stroke:none;stroke-width:0.765;stroke-dasharray:none"
       x="154.51588"
       y="114.11577"
       id="text37-6-7"><tspan
         sodipodi:role="line"
         style="font-size:7.05556px;stroke-width:0.765"
         x="154.51588"
         y="114.11577"
         id="tspan38-0-8">Research</tspan><tspan
         sodipodi:role="line"
         style="font-size:7.05556px;stroke-width:0.765"
         x="154.51588"
         y="122.93522"
         id="tspan40">Hypothesis</tspan><tspan
         sodipodi:role="line"
         style="font-size:7.05556px;stroke-width:0.765"
         x="154.51588"
         y="131.75467"
         id="tspan39-8">/Question</tspan></text>
    <text
       xml:space="preserve"
       style="font-style:normal;font-variant:normal;font-weight:normal;font-stretch:normal;font-size:7.05556px;font-family:Arial;-inkscape-font-specification:'Arial, Normal';font-variant-ligatures:normal;font-variant-caps:normal;font-variant-numeric:normal;font-variant-east-asian:normal;text-align:start;writing-mode:lr-tb;direction:ltr;text-anchor:start;fill:#000000;fill-opacity:1;stroke:none;stroke-width:0.765;stroke-dasharray:none"
       x="120.13319"
       y="146.83575"
       id="text37-6-7-3"><tspan
         sodipodi:role="line"
         style="font-size:7.05556px;stroke-width:0.765"
         x="120.13319"
         y="146.83575"
         id="tspan38-0-8-5">Study</tspan><tspan
         sodipodi:role="line"
         style="font-size:7.05556px;stroke-width:0.765"
         x="120.13319"
         y="155.6552"
         id="tspan39-8-8">Concep-</tspan><tspan
         sodipodi:role="line"
         style="font-size:7.05556px;stroke-width:0.765"
         x="120.13319"
         y="164.47466"
         id="tspan43">tualisation</tspan></text>
    <text
       xml:space="preserve"
       style="font-style:normal;font-variant:normal;font-weight:normal;font-stretch:normal;font-size:7.05556px;font-family:Arial;-inkscape-font-specification:'Arial, Normal';font-variant-ligatures:normal;font-variant-caps:normal;font-variant-numeric:normal;font-variant-east-asian:normal;text-align:start;writing-mode:lr-tb;direction:ltr;text-anchor:start;fill:#000000;fill-opacity:1;stroke:none;stroke-width:0.765;stroke-dasharray:none"
       x="73.969131"
       y="149.28877"
       id="text37-6-7-6"><tspan
         sodipodi:role="line"
         style="font-size:7.05556px;stroke-width:0.765"
         x="73.969131"
         y="149.28877"
         id="tspan38-0-8-3">Study</tspan><tspan
         sodipodi:role="line"
         style="font-size:7.05556px;stroke-width:0.765"
         x="73.969131"
         y="158.10822"
         id="tspan39-8-1">Design</tspan></text>
    <text
       xml:space="preserve"
       style="font-style:normal;font-variant:normal;font-weight:normal;font-stretch:normal;font-size:7.05556px;font-family:Arial;-inkscape-font-specification:'Arial, Normal';font-variant-ligatures:normal;font-variant-caps:normal;font-variant-numeric:normal;font-variant-east-asian:normal;text-align:start;writing-mode:lr-tb;direction:ltr;text-anchor:start;fill:#ffffff;fill-opacity:1;stroke:none;stroke-width:0.765;stroke-dasharray:none"
       x="32.168182"
       y="111.73476"
       id="text37-6-7-0"><tspan
         sodipodi:role="line"
         style="font-size:7.05556px;fill:#ffffff;stroke-width:0.765"
         x="32.168182"
         y="111.73476"
         id="tspan40-7">Implemen-</tspan><tspan
         sodipodi:role="line"
         style="font-size:7.05556px;fill:#ffffff;stroke-width:0.765"
         x="32.168182"
         y="120.55421"
         id="tspan45">tation</tspan><tspan
         sodipodi:role="line"
         style="font-size:7.05556px;fill:#ffffff;stroke-width:0.765"
         x="32.168182"
         y="129.37366"
         id="tspan39-8-3" /></text>
    <text
       xml:space="preserve"
       style="font-style:normal;font-variant:normal;font-weight:normal;font-stretch:normal;font-size:7.05556px;font-family:Arial;-inkscape-font-specification:'Arial, Normal';font-variant-ligatures:normal;font-variant-caps:normal;font-variant-numeric:normal;font-variant-east-asian:normal;text-align:start;writing-mode:lr-tb;direction:ltr;text-anchor:start;fill:#ffffff;fill-opacity:1;stroke:none;stroke-width:0.765;stroke-dasharray:none"
       x="36.120541"
       y="60.565472"
       id="text37-6-7-01"><tspan
         sodipodi:role="line"
         style="font-size:7.05556px;fill:#ffffff;stroke-width:0.765"
         x="36.120541"
         y="60.565472"
         id="tspan38-0-8-6">Analysis &amp;</tspan><tspan
         sodipodi:role="line"
         style="font-size:7.05556px;fill:#ffffff;stroke-width:0.765"
         x="36.120541"
         y="69.384918"
         id="tspan39-8-7">Interpre-</tspan><tspan
         sodipodi:role="line"
         style="font-size:7.05556px;fill:#ffffff;stroke-width:0.765"
         x="36.120541"
         y="78.204369"
         id="tspan46">tation</tspan></text>
    <text
       xml:space="preserve"
       style="font-style:normal;font-variant:normal;font-weight:normal;font-stretch:normal;font-size:7.05556px;font-family:Arial;-inkscape-font-specification:'Arial, Normal';font-variant-ligatures:normal;font-variant-caps:normal;font-variant-numeric:normal;font-variant-east-asian:normal;text-align:start;writing-mode:lr-tb;direction:ltr;text-anchor:start;display:inline;fill:#000000;fill-opacity:1;stroke:none;stroke-width:0.765;stroke-dasharray:none"
       x="126.58833"
       y="32.005692"
       id="text37-7"><tspan
         sodipodi:role="line"
         style="font-size:7.05556px;stroke-width:0.765"
         x="126.58833"
         y="32.005692"
         id="tspan54">Practical</tspan><tspan
         sodipodi:role="line"
         style="font-size:7.05556px;stroke-width:0.765"
         x="126.58833"
         y="40.825142"
         id="tspan55">Application</tspan></text>
  </g>
</svg>
