<?xml version="1.0" encoding="UTF-8" standalone="no"?>
<!-- Created with Inkscape (http://www.inkscape.org/) -->

<svg
   width="210mm"
   height="297mm"
   viewBox="0 0 210 297"
   version="1.1"
   id="svg1"
   inkscape:version="1.4 (86a8ad7, 2024-10-11)"
   sodipodi:docname="Research_cycle.svg"
   inkscape:export-filename="Research_cycle.png"
   inkscape:export-xdpi="96"
   inkscape:export-ydpi="96"
   xmlns:inkscape="http://www.inkscape.org/namespaces/inkscape"
   xmlns:sodipodi="http://sodipodi.sourceforge.net/DTD/sodipodi-0.dtd"
   xmlns="http://www.w3.org/2000/svg"
   xmlns:svg="http://www.w3.org/2000/svg">
  <sodipodi:namedview
     id="namedview1"
     pagecolor="#ffffff"
     bordercolor="#000000"
     borderopacity="0.25"
     inkscape:showpageshadow="2"
     inkscape:pageopacity="0.0"
     inkscape:pagecheckerboard="0"
     inkscape:deskcolor="#d1d1d1"
     inkscape:document-units="mm"
     showguides="true"
     inkscape:zoom="1.4142136"
     inkscape:cx="929.49187"
     inkscape:cy="278.95363"
     inkscape:window-width="3840"
     inkscape:window-height="2066"
     inkscape:window-x="-11"
     inkscape:window-y="-11"
     inkscape:window-maximized="1"
     inkscape:current-layer="layer1">
    <sodipodi:guide
       position="175.72906,204.25863"
       orientation="0,-1"
       id="guide2"
       inkscape:locked="false" />
    <sodipodi:guide
       position="111.02955,221.08375"
       orientation="1,0"
       id="guide3"
       inkscape:locked="false" />
    <sodipodi:guide
       position="111.03296,204.2582"
       orientation="0.70710678,0.70710678"
       id="guide6"
       inkscape:locked="false"
       inkscape:label=""
       inkscape:color="rgb(0,134,229)" />
    <sodipodi:guide
       position="111.16587,204.3947"
       orientation="0.70710678,-0.70710678"
       id="guide7"
       inkscape:locked="false"
       inkscape:label=""
       inkscape:color="rgb(0,134,229)" />
  </sodipodi:namedview>
  <defs
     id="defs1">
    <rect
       x="151.75827"
       y="428.85536"
       width="116.12273"
       height="41.779605"
       id="rect44" />
    <rect
       x="275.86828"
       y="92.160894"
       width="144.99981"
       height="119.80916"
       id="rect36" />
    <rect
       x="200.28174"
       y="69.94655"
       width="266.75268"
       height="83.414519"
       id="rect14" />
    <rect
       x="247.63685"
       y="46.486216"
       width="221.56982"
       height="101.22699"
       id="rect10" />
    <rect
       x="308.45994"
       y="87.324574"
       width="198.10948"
       height="96.882488"
       id="rect7" />
  </defs>
  <g
     inkscape:label="Ebene 1"
     inkscape:groupmode="layer"
     id="layer1">
    <circle
       style="fill:none;stroke:#1a1a1a;stroke-width:0.930892"
       id="path3"
       cx="111.02578"
       cy="92.748985"
       r="45.447483" />
    <circle
       style="fill:none;stroke:#1a1a1a;stroke-width:0.656271"
       id="path4"
       cx="111.02578"
       cy="92.720245"
       r="21.882769" />
    <text
       xml:space="preserve"
       transform="scale(0.26458333)"
       id="text10"
       style="font-style:normal;font-variant:normal;font-weight:normal;font-stretch:normal;font-size:32px;font-family:Arial;-inkscape-font-specification:Arial;text-align:start;writing-mode:lr-tb;direction:ltr;white-space:pre;shape-inside:url(#rect10);display:inline;fill:#000000;stroke:#1a1a1a" />
    <path
       style="fill:none;stroke:#1a1a1a;stroke-width:0.765;stroke-dasharray:none"
       d="m 79.027019,124.9489 6.667008,-10.9201 10.057984,-5.80489"
       id="path15" />
    <path
       style="fill:none;stroke:#1a1a1a;stroke-width:0.765;stroke-dasharray:none"
       d="m 143.30627,125.16409 -10.87943,-6.73317 -5.74373,-10.09304"
       id="path15-8" />
    <path
       style="fill:none;stroke:#1a1a1a;stroke-width:0.765;stroke-dasharray:none"
       d="m 143.49871,60.453886 -6.81476,10.82851 -10.13593,5.6677"
       id="path15-8-5" />
    <path
       style="fill:none;stroke:#1a1a1a;stroke-width:0.765;stroke-dasharray:none"
       d="m 78.36239,60.371487 10.901862,6.69679 5.777415,10.073795"
       id="path15-8-5-1" />
    <path
       style="fill:none;stroke:#1a1a1a;stroke-width:1.15589;stroke-dasharray:none"
       d="m 110.69323,6.5076168 4.31822,21.1724142 -3.70237,19.455015"
       id="path15-8-5-1-2-1" />
    <path
       style="fill:none;stroke:#1a1a1a;stroke-width:1.15589;stroke-dasharray:none"
       d="M 171.28516,31.543762 159.36745,49.568363 142.9927,60.707165"
       id="path15-8-5-1-2-1-0" />
    <path
       style="fill:none;stroke:#1a1a1a;stroke-width:1.15589;stroke-dasharray:none"
       d="M 196.80158,92.181836 175.62917,96.50006 156.17415,92.797685"
       id="path15-8-5-1-2-1-0-6" />
    <path
       style="fill:none;stroke:#1a1a1a;stroke-width:1.15589;stroke-dasharray:none"
       d="m 172.48562,153.35178 -18.02459,-11.91771 -11.1388,-16.37475"
       id="path15-8-5-1-2-1-0-6-0" />
    <path
       style="fill:none;stroke:#1a1a1a;stroke-width:1.15589;stroke-dasharray:none"
       d="m 111.40429,178.57671 -4.31821,-21.1724 3.70237,-19.45502"
       id="path15-8-5-1-2-1-0-6-0-3" />
    <path
       style="fill:none;stroke:#1a1a1a;stroke-width:1.15589;stroke-dasharray:none"
       d="M 50.34066,153.82575 62.258372,135.80117 78.633119,124.66236"
       id="path15-8-5-1-2-1-0-6-0-3-4" />
    <path
       style="fill:#000000;stroke:#000000;stroke-width:1.15589;stroke-dasharray:none"
       d="m 24.802634,92.872216 21.172398,-4.318207 19.455022,3.702366"
       id="path15-8-5-1-2-1-0-6-0-3-4-6" />
    <path
       style="fill:none;stroke:#000000;stroke-width:1.15589;stroke-dasharray:none"
       d="m 49.893983,31.875608 18.024579,11.917713 11.13881,16.374746"
       id="path15-8-5-1-2-1-0-6-0-3-4-6-4" />
    <circle
       style="fill:none;fill-opacity:1;stroke:#000000;stroke-width:0.908251;stroke-dasharray:none"
       id="path35"
       cx="111.04015"
       cy="92.763351"
       r="86.114578"
       inkscape:export-filename="Research_cycle.png"
       inkscape:export-xdpi="96"
       inkscape:export-ydpi="96" />
    <text
       xml:space="preserve"
       transform="scale(0.26458333)"
       id="text36"
       style="font-style:normal;font-variant:normal;font-weight:normal;font-stretch:normal;font-size:29.3333px;font-family:Arial;-inkscape-font-specification:'Arial, Normal';font-variant-ligatures:normal;font-variant-caps:normal;font-variant-numeric:normal;font-variant-east-asian:normal;text-align:start;writing-mode:lr-tb;direction:ltr;white-space:pre;shape-inside:url(#rect36);display:inline;fill:#f4cae4;fill-opacity:1;stroke:none;stroke-width:2.89134;stroke-dasharray:none"><tspan
         x="275.86914"
         y="238.3928"
         id="tspan6"><tspan
           dx="0 19.565083 16.313786 16.313782 6.5169182 6.5169182 14.666656 16.313782 8.1497269 6.516922 16.313782 16.313789 8.1497192 19.565094"
           id="tspan5">Application/S
</tspan></tspan><tspan
         x="275.86914"
         y="275.05943"
         id="tspan8"><tspan
           dx="0 21.183569 6.5169201 14.666649 14.666649 16.313786 24.434868 6.516922 16.313782 16.313782 8.1497345 6.516922"
           id="tspan7">Disseminatio</tspan></tspan></text>
    <text
       xml:space="preserve"
       transform="scale(0.26458333)"
       id="text44"
       style="font-style:normal;font-variant:normal;font-weight:normal;font-stretch:normal;font-size:26.6667px;font-family:Arial;-inkscape-font-specification:'Arial, Normal';font-variant-ligatures:normal;font-variant-caps:normal;font-variant-numeric:normal;font-variant-east-asian:normal;text-align:start;writing-mode:lr-tb;direction:ltr;white-space:pre;shape-inside:url(#rect44);display:inline;fill:#000000;fill-opacity:1;stroke:none;stroke-width:2.89134;stroke-dasharray:none" />
    <path
       style="fill:#e66101;fill-opacity:1;stroke:none;stroke-width:1.44567;stroke-dasharray:none"
       d="m 279.16646,194.10423 -20.66646,-30.402 -32.85739,-21.72306 -32.8574,-21.72307 1.8574,-1.93134 c 3.42479,-3.56113 15.77275,-14.40367 23.09991,-20.28365 C 249.2226,72.778637 285.84104,53.393644 324.5,41.526062 345.15054,35.186728 366.17318,30.902728 387,28.78979 397.36849,27.737877 415.77964,26.81697 416.21867,27.328301 416.41781,27.560235 420.09311,45.075 424.386,66.25 l 7.80525,38.5 -6.86031,36 -6.86032,36 -3.73531,0.10677 c -41.21081,1.17797 -80.49247,16.81521 -111.06885,44.21427 l -3.83354,3.43518 z"
       id="path78"
       transform="scale(0.26458333)" />
    <path
       style="fill:#e66101;fill-opacity:1;stroke:none;stroke-width:1.44567;stroke-dasharray:none"
       d="M 536,221.41529 C 524.50789,211.12148 511.93605,202.5468 498,195.49722 476.23872,184.48923 453.54856,178.37944 429.61328,177.08269 l -6.14074,-0.33269 6.85952,-36 6.85951,-36 -7.71691,-38 c -4.2443,-20.9 -7.81745,-38.421899 -7.94034,-38.937554 -0.21358,-0.896249 0.11116,-0.922968 7.37113,-0.606489 23.24606,1.01335 40.87143,3.22271 60.59455,7.595598 49.7045,11.020176 96.11196,33.616637 135.59662,66.023955 8.69153,7.13364 19.72512,17.26806 19.48082,17.89328 -0.11415,0.29216 -10.07435,15.45812 -22.13377,33.70213 l -21.92622,33.17092 -29.25872,19.86989 c -16.0923,10.92844 -29.48373,19.99641 -29.75873,20.15105 -0.275,0.15463 -2.75,-1.73424 -5.5,-4.19749 z"
       id="path79"
       transform="scale(0.26458333)" />
    <path
       style="fill:#e66101;fill-opacity:1;stroke:none;stroke-width:1.44567;stroke-dasharray:none"
       d="m 349.57737,271.30051 -10.92263,-19.10665 -18.07737,-11.10341 c -9.94255,-6.10687 -18.40606,-11.31184 -18.80779,-11.56659 -0.57962,-0.36755 -0.0635,-1.07309 2.5,-3.41725 28.30948,-25.88768 61.95352,-40.88566 100.15488,-44.64745 7.64216,-0.75255 30.15299,-0.31002 37.32554,0.73376 18.34981,2.67035 34.10144,7.3027 50.17682,14.75637 14.51851,6.7318 31.75011,18.44444 43.20079,29.36441 l 4.1276,3.9363 -11.96225,18.9416 -11.96225,18.9416 -18.66535,10.43081 c -10.26595,5.73694 -18.82102,10.43197 -19.01127,10.43339 -0.19024,10e-4 -1.65274,-1.1444 -3.25,-2.54629 -9.82636,-8.62449 -24.01099,-15.55034 -37.96504,-18.53697 -4.83485,-1.03482 -6.7443,-1.16258 -17.18905,-1.15008 -11.1193,0.0133 -12.07163,0.0899 -17.74197,1.42632 -15.12758,3.56544 -28.45855,10.52102 -39.00803,20.35284 l -2,1.86395 z"
       id="path80"
       transform="scale(0.26458333)" />
    <path
       style="fill:#fdb863;fill-opacity:1;stroke:none;stroke-width:1.44567;stroke-dasharray:none"
       d="m 409.25,520.00448 c -34.02257,-2.23649 -66.47984,-14.46197 -93.25,-35.12393 -7.36376,-5.68355 -14.83061,-12.52378 -14.59515,-13.37031 0.1163,-0.41813 5.50636,-9.41535 11.97791,-19.9938 l 11.76644,-19.23357 18.05702,-10.42906 18.05701,-10.42906 3.86838,3.2222 c 11.17511,9.30839 23.59637,15.31096 38.11839,18.4207 4.48441,0.96029 6.81762,1.12847 16,1.15329 9.28955,0.0251 11.51455,-0.1259 16.3777,-1.11156 15.1908,-3.07886 29.48319,-10.1517 40.00752,-19.79842 1.17438,-1.07645 2.21251,-1.86803 2.30696,-1.75907 0.0944,0.10896 4.92613,8.55535 10.73708,18.76976 l 10.56535,18.57165 18.87769,11.63879 c 10.38273,6.40133 18.9902,11.73629 19.1277,11.85546 0.35698,0.30939 -5.8889,6.04237 -11.21544,10.29445 -22.34105,17.83443 -47.69775,29.54271 -75.28456,34.76211 -11.90487,2.25239 -29.58837,3.34338 -41.5,2.56037 z"
       id="path81"
       transform="scale(0.26458333)" />
    <path
       style="fill:#fdb863;fill-opacity:1;stroke:none;stroke-width:1.44567;stroke-dasharray:none"
       d="m 423.25,673.78539 c 0,-0.20391 -3.60385,-18.04868 -8.00855,-39.65503 l -8.00855,-39.28429 6.59529,-34.79804 c 3.62741,-19.13892 6.74126,-34.97179 6.91968,-35.18417 0.17842,-0.21237 3.93452,-0.60372 8.34688,-0.86965 40.46336,-2.43875 76.95089,-17.53536 106.71468,-44.15287 l 4.80944,-4.30104 20.69056,30.40941 20.69057,30.4094 32.85253,21.69545 32.85252,21.69544 -3.10252,3.16825 c -1.7064,1.74253 -6.47753,6.15023 -10.60253,9.79488 -51.86368,45.82426 -115.59261,73.41259 -184.83869,80.01691 -9.44932,0.90123 -25.91131,1.57171 -25.91131,1.05535 z"
       id="path82"
       transform="scale(0.26458333)" />
    <path
       style="fill:#fdb863;fill-opacity:1;stroke:none;stroke-width:1.44567;stroke-dasharray:none"
       d="m 402.75,673.67271 c -29.48082,-1.99914 -51.41509,-5.88139 -77.25098,-13.67301 -47.12167,-14.21101 -92.97716,-40.87115 -127.89415,-74.35698 l -4.39513,-4.21499 21.89513,-33.12568 L 237,515.17637 l 30.2129,-20.5727 30.21291,-20.57271 4.03709,3.86661 c 12.26613,11.74814 30.35252,23.80402 46.56668,31.04005 19.48748,8.69684 40.64992,13.91059 60.72042,14.95959 l 6.75,0.35279 -0.16172,1.25 c -0.0889,0.6875 -3.07128,16.58755 -6.62742,35.33345 l -6.4657,34.08346 8.00242,39.29011 c 4.40133,21.60957 8.00242,39.40327 8.00242,39.54155 0,0.25651 -11.42303,0.20061 -15.5,-0.0759 z"
       id="path83"
       transform="scale(0.26458333)" />
    <path
       style="fill:#b2abd2;fill-opacity:1;stroke:none;stroke-width:1.44567;stroke-dasharray:none"
       d="m 521,458.27447 -19,-11.75833 -10.79881,-18.88307 -10.7988,-18.88307 2.72045,-3 c 3.51514,-3.87635 9.10427,-12.22886 11.87605,-17.74779 9.58978,-19.0944 11.37169,-43.19007 4.70714,-63.65195 -3.20637,-9.84438 -9.7565,-21.43441 -16.42257,-29.05866 l -3.02376,-3.45839 1.37015,-0.82104 c 0.75358,-0.45157 9.20431,-5.19371 18.77939,-10.53809 l 17.40924,-9.71707 11.78656,-18.7535 c 6.4826,-10.31443 11.89113,-18.86601 12.01894,-19.00351 0.57504,-0.61863 12.46604,13.62029 17.74599,21.25 12.97183,18.74474 22.42857,41.21768 26.82637,63.75 2.40638,12.32919 2.76903,16.58294 2.77078,32.5 0.002,15.92314 -0.41549,20.8425 -2.77406,32.70607 -6.12184,30.79282 -21.29343,60.63655 -41.78037,82.18533 L 540,470.0328 Z"
       id="path84"
       transform="scale(0.26458333)" />
    <path
       style="fill:#b2abd2;fill-opacity:1;stroke:none;stroke-width:1.44567;stroke-dasharray:none"
       d="M 618.2911,554.37067 585.5822,532.75 l -20.68021,-30.39375 -20.68021,-30.39374 3.9495,-4.40494 c 19.60636,-21.86727 32.72947,-46.24929 39.84441,-74.02875 2.86555,-11.18821 5.2278,-27.62265 5.2326,-36.40382 10e-4,-1.99742 0.20655,-3.125 0.5694,-3.125 0.31223,0 15.91927,2.925 34.68231,6.5 18.76303,3.575 34.65132,6.49994 35.3073,6.49986 0.65598,-7e-5 18.74159,-3.58243 40.19024,-7.96079 21.44865,-4.37836 39.09601,-7.86218 39.21636,-7.74184 0.36971,0.36972 -0.93617,24.51629 -1.74157,32.20277 -3.38979,32.35088 -11.46942,63.61567 -24.3132,94.08184 -3.62132,8.58998 -13.02964,27.303 -17.93284,35.66816 -10.73972,18.32266 -23.8393,36.43815 -37.42117,51.75 -4.85218,5.47023 -10.15504,11.00198 -10.54068,10.99567 -0.14544,-0.002 -14.98345,-9.73363 -32.97334,-21.625 z"
       id="path85"
       transform="scale(0.26458333)" />
    <path
       style="fill:#b2abd2;fill-opacity:1;stroke:none;stroke-width:1.44567;stroke-dasharray:none"
       d="m 627.44965,355.3655 -34.05036,-6.52344 -0.3181,-7.29603 c -1.43433,-32.89722 -13.08932,-66.07795 -32.59868,-92.80554 -3.87535,-5.30918 -6.89931,-9.02151 -13.70905,-16.8297 l -2.04008,-2.33921 20.13331,-13.70536 c 11.07332,-7.53794 24.07081,-16.36526 28.88331,-19.61625 4.8125,-3.25099 9.21746,-6.32747 9.7888,-6.83662 0.57135,-0.50914 10.91995,-15.87498 22.9969,-34.1463 l 21.95809,-33.22058 1.42713,1.35177 c 5.77373,5.4688 20.45612,22.51888 28.0135,32.53097 35.44115,46.95275 57.596,103.45535 63.54848,162.07079 0.86173,8.48574 1.93508,27.49868 1.57285,27.86091 -0.49485,0.49485 -78.09781,16.13127 -79.80575,16.08028 -0.9625,-0.0287 -17.07266,-2.9878 -35.80035,-6.57569 z"
       id="path86"
       transform="scale(0.26458333)" />
    <path
       style="fill:#5e3c99;fill-opacity:1;stroke:none;stroke-width:1.44567;stroke-dasharray:none"
       d="M 293.22272,463.71508 C 269.49179,437.0678 255.23569,405.30406 250.93739,369.5 c -1.17988,-9.82826 -1.18405,-28.11074 -0.009,-38 4.25582,-35.80674 18.7131,-67.74635 42.90796,-94.79396 l 4.56303,-5.10105 6.05014,3.71318 c 3.32757,2.04225 11.80702,7.24318 18.8432,11.55762 l 12.79307,7.84443 8.70693,15.22164 c 4.78882,8.37191 9.72965,16.942 10.97962,19.04466 l 2.27269,3.82301 -2.896,3.43368 c -16.45609,19.51136 -23.11165,46.17469 -17.87668,71.61705 2.79166,13.56773 9.68823,27.31058 19.34245,38.54387 l 2.11514,2.4611 -18.08571,10.44238 -18.08571,10.44239 -11.89128,19.49561 c -6.54021,10.72259 -12.07823,19.55794 -12.30671,19.6341 -0.22849,0.0762 -2.54066,-2.24792 -5.13815,-5.16463 z"
       id="path87"
       transform="scale(0.26458333)" />
    <path
       style="fill:#5e3c99;fill-opacity:1;stroke:none;stroke-width:1.44567;stroke-dasharray:none"
       d="m 96.252323,343.8625 c 0.0036,-6.35086 0.919892,-19.67366 2.036662,-29.6125 7.632195,-67.9237 37.104985,-132.40289 83.533185,-182.75 3.16994,-3.4375 6.13533,-6.55659 6.58977,-6.93132 0.72798,-0.6003 4.73076,1.90006 33.65827,21.02484 l 32.83202,21.70616 20.63431,30.34437 20.63431,30.34438 -4.01692,4.38078 c -27.30573,29.77915 -43.08924,66.37058 -45.85342,106.30346 -0.26356,3.80747 -0.55149,6.98176 -0.63985,7.05397 -0.0884,0.0722 -16.29843,-2.94233 -36.02237,-6.69899 l -35.86171,-6.83029 -37.13829,7.56658 c -20.42606,4.16162 -37.86954,7.71159 -38.76329,7.88882 L 96.25,347.975 Z"
       id="path88"
       transform="scale(0.26458333)" />
    <path
       style="fill:#5e3c99;fill-opacity:1;stroke:none;stroke-width:1.44567;stroke-dasharray:none"
       d="M 182.90883,570.84138 C 129.89826,513.80774 99.229797,439.83999 96.427334,362.26091 l -0.329618,-9.12464 2.451142,-0.56798 c 9.713412,-2.25081 74.306322,-15.13374 75.701142,-15.09844 0.9625,0.0243 17.3875,3.03984 36.5,6.70108 l 34.75,6.6568 0.3693,5.71113 c 1.75071,27.07403 6.73747,47.53557 16.65813,68.35117 7.70341,16.16336 18.21999,31.76384 29.09922,43.16631 l 2.20051,2.30635 -3.91358,2.72458 c -2.15247,1.49853 -15.72608,10.75136 -30.16358,20.56186 l -26.25,17.83726 -21.711,32.8818 c -11.94105,18.085 -21.84105,33.03543 -22,33.22319 -0.15895,0.18777 -3.25503,-2.84973 -6.88017,-6.75 z"
       id="path89"
       transform="scale(0.26458333)" />
  </g>
  <g
     inkscape:groupmode="layer"
     id="layer2"
     inkscape:label="Ebene 2"
     style="display:inline">
    <path
       d="m 126.11098,121.14616 -0.76324,0.31895 q -0.39084,-0.94185 -0.17731,-1.75291 0.21271,-0.80527 0.97022,-1.3731 0.78399,-0.58767 1.51491,-0.63956 0.7301,-0.0461 1.44189,0.36583 0.70848,0.41442 1.22919,1.10909 0.56783,0.75752 0.70157,1.5356 0.13292,0.78386 -0.18146,1.47417 -0.3152,0.69611 -0.95694,1.17715 -0.72775,0.54551 -1.50165,0.54696 -0.77391,0.001 -1.47244,-0.52376 l 0.52024,-0.62246 q 0.56544,0.40281 1.06732,0.40377 0.50188,9.5e-4 0.98815,-0.36355 0.55904,-0.41905 0.7353,-0.96967 0.17295,-0.54814 -0.0146,-1.11539 -0.18506,-0.56394 -0.54461,-1.04359 -0.46368,-0.61859 -0.98946,-0.9478 -0.5266,-0.32342 -1.0781,-0.26652 -0.55151,0.0569 -0.99477,0.38917 -0.5392,0.40418 -0.67991,0.99532 -0.14072,0.59114 0.18569,1.3023 z m -1.50346,1.02586 q 0.54378,1.09162 0.19866,1.91938 -0.28945,0.68919 -1.01843,1.05232 -0.81039,0.40369 -1.59019,0.12705 -0.77795,-0.27294 -1.24431,-1.20915 -0.37788,-0.75858 -0.36596,-1.30952 0.01,-0.54539 0.32689,-1.00343 0.31313,-0.45619 0.82749,-0.71242 0.82519,-0.41105 1.59945,-0.13627 0.77055,0.27662 1.2664,1.27204 z m -0.68458,0.34101 q -0.37603,-0.75489 -0.89339,-0.96827 -0.51551,-0.20969 -1.01507,0.0392 -0.49586,0.247 -0.63717,0.7885 -0.14132,0.5415 0.24393,1.31488 0.36313,0.72899 0.88235,0.93683 0.51735,0.21339 1.00951,-0.0318 0.49955,-0.24885 0.64272,-0.78665 0.14316,-0.5378 -0.23288,-1.29268 z m -4.79928,-0.16054 1.3167,4.18834 -0.6389,0.20085 -0.18721,-0.59552 q -0.24446,0.83523 -1.11604,1.10924 -0.37861,0.11902 -0.73751,0.0802 -0.36161,-0.0337 -0.58879,-0.20492 -0.22718,-0.17126 -0.38575,-0.4551 -0.10143,-0.18479 -0.25641,-0.67777 l -0.80961,-2.57532 0.70989,-0.22317 0.80093,2.54771 q 0.13638,0.43382 0.28615,0.62075 0.15101,0.19088 0.40365,0.25013 0.24994,0.0644 0.5339,-0.0248 0.45354,-0.14259 0.69431,-0.53463 0.23683,-0.39081 -0.0161,-1.19535 l -0.7191,-2.28741 z m -7.10601,3.34678 -0.73765,0.019 q 0.002,-0.76599 0.42546,-1.26736 0.42033,-0.49665 1.13105,-0.60768 0.89043,-0.13912 1.5243,0.35602 0.63041,0.49986 0.80016,1.58635 0.10976,0.70255 -0.0407,1.26583 -0.1505,0.56328 -0.58347,0.89872 -0.43641,0.34016 -0.996,0.42758 -0.70663,0.1104 -1.21209,-0.17884 -0.50482,-0.28516 -0.73418,-0.923 l 0.69757,-0.22196 q 0.17039,0.4211 0.46627,0.60082 0.29178,0.18037 0.65939,0.12294 0.55551,-0.0868 0.84016,-0.54132 0.28528,-0.45045 0.15064,-1.31229 -0.13657,-0.8741 -0.5334,-1.21797 -0.39684,-0.34388 -0.936,-0.25964 -0.43296,0.0676 -0.68149,0.37844 -0.24852,0.31081 -0.23998,0.87435 z m -4.61214,-0.0124 -0.76944,-0.091 q 0.17828,-0.67483 0.66823,-1.04953 0.48996,-0.37471 1.25476,-0.37882 0.96323,-0.005 1.53277,0.58296 0.56543,0.59229 0.57118,1.66301 0.006,1.10793 -0.56127,1.72283 -0.56721,0.6149 -1.47671,0.61979 -0.88055,0.005 -1.44187,-0.59172 -0.56131,-0.59644 -0.56715,-1.6837 -3.5e-4,-0.0661 0.003,-0.19846 l 3.27417,-0.0176 q -0.0452,-0.72324 -0.41522,-1.10573 -0.36999,-0.3825 -0.91982,-0.37954 -0.40927,0.002 -0.6975,0.21872 -0.28823,0.21652 -0.4552,0.68872 z m 2.44969,1.18989 -2.4515,0.0132 q 0.0526,0.5537 0.28558,0.82944 0.35784,0.42803 0.9242,0.42499 0.51262,-0.003 0.86218,-0.34777 0.34542,-0.34499 0.37954,-0.91982 z m -3.90918,-4.34609 -0.92073,6.00281 -0.67016,-0.10279 0.0865,-0.56391 q -0.28777,0.29464 -0.61114,0.41234 -0.324,0.12178 -0.74898,0.0566 -0.55574,-0.0853 -0.93685,-0.43647 -0.3811,-0.35123 -0.51745,-0.9075 -0.13697,-0.55218 -0.0417,-1.1733 0.10216,-0.66607 0.42536,-1.1644 0.31849,-0.49487 0.82003,-0.71072 0.49683,-0.21238 0.99945,-0.13529 0.36777,0.0564 0.63817,0.25682 0.26631,0.19978 0.41793,0.46562 l 0.32404,-2.11263 z m -1.25023,3.70629 q 0.12849,-0.8377 -0.14925,-1.29018 -0.27774,-0.45248 -0.75993,-0.52644 -0.49036,-0.0752 -0.901,0.28423 -0.41535,0.3629 -0.54886,1.23329 -0.12723,0.82952 0.15272,1.29489 0.27586,0.46474 0.74987,0.53745 0.46993,0.0721 0.9013,-0.31346 0.42667,-0.38208 0.55515,-1.21978 z m -5.378627,-2.6829 0.072,-0.66216 q 0.32045,0.0202 0.55949,0.0864 0.390417,0.10819 0.571327,0.29131 0.18091,0.18312 0.21336,0.40661 0.0313,0.22747 -0.14751,0.87288 l -0.674567,2.4342 0.525877,0.14574 -0.15456,0.55775 -0.525887,-0.14573 -0.29036,1.04778 -0.832368,0.23265 0.4096,-1.47805 -0.7211,-0.19984 0.15457,-0.55775 0.721098,0.19983 0.6856,-2.47405 q 0.085,-0.30676 0.0735,-0.40435 -0.0156,-0.0987 -0.0849,-0.17366 -0.0733,-0.0761 -0.23266,-0.12024 -0.11952,-0.0331 -0.32246,-0.0593 z m -2.255437,4.02178 -0.286325,0.80644 -0.701253,-0.24898 0.286325,-0.80644 z m 1.741469,-4.90488 -1.46898,4.1374 -0.701249,-0.24898 1.468969,-4.13739 z m -2.48686,1.48188 q -0.532026,1.0974 -1.3982,1.32987 -0.72245,0.19188 -1.455289,-0.1634 -0.81468,-0.39497 -1.072058,-1.18133 -0.259182,-0.78264 0.197098,-1.7238 0.369713,-0.7626 0.813164,-1.08974 0.437927,-0.32523 0.994113,-0.35422 0.552465,-0.0308 1.069545,0.21989 0.829559,0.40218 1.085021,1.18302 0.251742,0.77903 -0.233394,1.77971 z m -0.688199,-0.33364 q 0.36791,-0.75888 0.220785,-1.29883 -0.148928,-0.53623 -0.651128,-0.7797 -0.49848,-0.24167 -1.013514,-0.0227 -0.515035,0.21893 -0.891962,0.99641 -0.355286,0.73284 -0.202637,1.27087 0.147124,0.53995 0.641884,0.77982 0.5022,0.24347 1.015431,0.0283 0.513231,-0.21521 0.881141,-0.97409 z m -2.804878,-3.89764 -2.511481,3.60116 -0.549329,-0.38311 0.357094,-0.51202 q -0.810589,0.31672 -1.559983,-0.20592 -0.325528,-0.22702 -0.514032,-0.53489 -0.19426,-0.30685 -0.197465,-0.59133 -0.0032,-0.28449 0.124635,-0.58343 0.08433,-0.19319 0.379941,-0.61706 l 1.544253,-2.21427 0.610366,0.42567 -1.527699,2.19054 q -0.260134,0.373 -0.316627,0.60577 -0.05886,0.23617 0.04858,0.47238 0.101679,0.23724 0.345825,0.40751 0.389956,0.27195 0.847429,0.22306 0.454081,-0.0512 0.936512,-0.743 l 1.371618,-1.96673 z"
       id="text11"
       style="font-size:8.46667px;font-family:Arial;-inkscape-font-specification:Arial;stroke:#1a1a1a;stroke-width:0.264583"
       aria-label="Conception" />
    <g
       id="text12"
       transform="translate(-2.9886582,-0.11494839)"
       style="fill:#ffffff">
      <path
         style="-inkscape-font-specification:Arial;fill:#ffffff"
         d="m 87.653622,111.3954 -5.031024,3.37933 -2.443442,-3.63771 0.593703,-0.39879 1.996245,2.97194 1.54088,-1.035 -1.869463,-2.7832 0.59027,-0.39648 1.869463,2.78319 1.71247,-1.15026 -2.07462,-3.08862 0.593702,-0.39879 z m -2.755779,-4.22707 -2.741002,-0.51722 -1.3063,2.22298 -0.384518,-0.84698 0.658762,-1.03913 q 0.188656,-0.29449 0.321494,-0.48193 -0.323642,-0.0528 -0.578856,-0.10496 l -1.250757,-0.24487 -0.367429,-0.80933 2.509368,0.52703 1.440523,-2.44736 0.377682,0.83192 -0.869681,1.38459 -0.235907,0.37043 2.054065,0.3342 z m -0.277793,-4.7967 -5.842255,1.65819 -0.185121,-0.65224 0.54883,-0.15577 q -0.387609,-0.13923 -0.629092,-0.38441 -0.245459,-0.24404 -0.362853,-0.65765 -0.153516,-0.54088 0.0075,-1.0335 0.160999,-0.49263 0.610232,-0.8479 0.445257,-0.354134 1.049766,-0.52571 0.648255,-0.183992 1.235844,-0.09722 0.582484,0.08393 0.9873,0.45034 0.39971,0.36356 0.538551,0.85274 0.101591,0.35793 0.03174,0.68717 -0.07098,0.32526 -0.249727,0.57368 l 2.056124,-0.58359 z m -3.890583,0.40377 q 0.815291,-0.2314 1.11135,-0.67211 0.29606,-0.44072 0.162863,-0.91001 -0.135455,-0.47724 -0.633082,-0.70128 -0.502732,-0.22689 -1.349839,0.0135 -0.807337,0.22915 -1.114199,0.67722 -0.30799,0.44411 -0.177051,0.90544 0.129811,0.45736 0.659792,0.68941 0.524875,0.22919 1.340166,-0.002 z m -0.690284,-7.31791 0.0031,-0.774796 q 0.69069,0.100623 1.118529,0.544936 0.427839,0.444314 0.518628,1.203718 0.114345,0.956438 -0.405421,1.588985 -0.524361,0.628932 -1.587526,0.756037 -1.100109,0.131521 -1.775356,-0.362322 -0.675247,-0.493842 -0.783212,-1.396917 -0.10453,-0.874341 0.424427,-1.499659 0.528957,-0.625318 1.608541,-0.754386 0.06568,-0.0079 0.197526,-0.01945 l 0.388675,3.251069 q 0.713447,-0.126931 1.051525,-0.537905 0.338077,-0.410975 0.272807,-0.956925 -0.04858,-0.406383 -0.296391,-0.668206 -0.247807,-0.261823 -0.735884,-0.374178 z m -0.904488,2.568796 -0.291015,-2.434197 q -0.544166,0.11502 -0.791711,0.377773 -0.384703,0.404059 -0.31747,0.966428 0.06085,0.509006 0.443272,0.817188 0.381929,0.304078 0.956924,0.272808 z m 2.235309,-4.432204 -4.390325,-0.03059 0.0047,-0.669711 0.665576,0.0046 q -0.465358,-0.259564 -0.612685,-0.47557 -0.147298,-0.220139 -0.145483,-0.480582 0.0026,-0.376196 0.245101,-0.763123 l 0.688595,0.261119 q -0.163127,0.271722 -0.165028,0.544567 -0.0017,0.243907 0.145771,0.439243 0.143337,0.195306 0.403204,0.279801 0.396001,0.126786 0.867279,0.130069 l 2.298513,0.01601 z m -5.103406,-3.275416 -0.852628,-0.07317 0.06363,-0.741416 0.852628,0.07317 z m 5.18579,0.445052 -4.374352,-0.375413 0.06363,-0.741415 4.374352,0.375412 z m 0.05356,-1.89621 -4.269671,-1.022641 0.155033,-0.647286 0.599041,0.143478 q -0.265445,-0.276129 -0.37448,-0.655081 -0.113055,-0.379915 -0.01098,-0.806078 0.113627,-0.474408 0.382847,-0.728754 0.270184,-0.258367 0.65383,-0.298261 -0.626465,-0.685678 -0.431951,-1.4978 0.152144,-0.635224 0.58779,-0.89222 0.431625,-0.257959 1.163339,-0.0827 l 2.930876,0.701983 -0.172366,0.719653 -2.689652,-0.644207 q -0.434204,-0.103997 -0.640496,-0.07689 -0.209349,0.02213 -0.370236,0.179139 -0.160887,0.157014 -0.220589,0.406279 -0.10785,0.450285 0.122423,0.820016 0.226253,0.368767 0.8856,0.526689 l 2.48059,0.594134 -0.173329,0.723673 -2.77408,-0.664428 q -0.482449,-0.115553 -0.766043,0.0036 -0.283593,0.119121 -0.379887,0.521162 -0.07318,0.305551 0.02504,0.605395 0.09919,0.295823 0.380834,0.486561 0.281646,0.190738 0.864605,0.330365 l 2.215244,0.530579 z m 1.835536,-10.1251 0.408211,-0.658545 q 0.535853,0.447257 0.667843,1.049784 0.13199,0.602528 -0.188136,1.297118 -0.403186,0.874809 -1.177152,1.141733 -0.77599,0.261439 -1.748417,-0.186738 -1.006217,-0.46375 -1.323093,-1.237977 -0.316876,-0.774228 0.06381,-1.600228 0.368578,-0.799717 1.146592,-1.055671 0.778014,-0.255954 1.765459,0.199144 0.06007,0.02769 0.178488,0.08681 L 81.76461,80.75144 q 0.674349,0.265277 1.177528,0.09205 0.503179,-0.173227 0.733324,-0.672581 0.17131,-0.3717 0.0972,-0.724499 -0.07411,-0.352799 -0.431179,-0.704003 z m -2.115244,1.715386 1.026133,-2.226444 q -0.523874,-0.18682 -0.872331,-0.0925 -0.539288,0.142929 -0.776354,0.657301 -0.214571,0.465563 -0.05003,0.928324 0.166273,0.459005 0.672581,0.733323 z m 4.193875,-2.636452 -3.649571,-2.440599 0.372295,-0.556714 0.518913,0.347015 q -0.33251,-0.804241 0.175374,-1.563709 0.220619,-0.329905 0.524746,-0.524391 0.302989,-0.200221 0.587358,-0.208987 0.284369,-0.0088 0.58575,0.113205 0.194806,0.08054 0.62437,0.367805 l 2.244039,1.50067 -0.413661,0.618571 -2.219984,-1.484583 q -0.378015,-0.252793 -0.611847,-0.304724 -0.237269,-0.05423 -0.471335,0.0578 -0.235205,0.106297 -0.400669,0.353725 -0.264284,0.395198 -0.20646,0.851628 0.06012,0.452992 0.761168,0.921808 l 1.993174,1.332907 z m 3.27845,-5.503259 0.569394,0.345572 q -0.153956,0.281762 -0.315184,0.470263 -0.26334,0.307885 -0.505838,0.394235 -0.242498,0.08635 -0.458699,0.02111 -0.219343,-0.06793 -0.728296,-0.503244 l -1.91957,-1.641843 -0.354703,0.414702 -0.439836,-0.376199 0.354702,-0.414703 -0.826263,-0.706718 0.141696,-0.852573 1.165566,0.996929 0.486372,-0.568645 0.439836,0.3762 -0.486372,0.568645 1.950987,1.668715 q 0.24191,0.206909 0.335211,0.237751 0.09599,0.0277 0.19326,-0.0033 0.09996,-0.03418 0.207445,-0.159852 0.08061,-0.09425 0.190292,-0.267003 z"
         id="path13" />
      <path
         style="-inkscape-font-specification:Arial;fill:#ffffff"
         d="m 84.123047,69.216797 -0.191406,1.15625 0.783203,0.669922 -0.355469,0.414062 L 85,72.005859 l 0.355469,-0.416015 1.818359,1.55664 c 0.343853,0.294102 0.5805,0.46894 0.775391,0.529297 0.172684,0.05211 0.35968,0.04183 0.542968,-0.02344 0.194218,-0.06916 0.375921,-0.215784 0.560547,-0.431641 0.115129,-0.134603 0.226029,-0.300141 0.332032,-0.494141 l 0.06055,-0.111328 -0.878906,-0.53125 v 0.191407 c -0.06135,0.09449 -0.116277,0.175589 -0.158203,0.224609 -0.06234,0.07289 -0.116982,0.107717 -0.150391,0.119141 -0.04032,0.0125 -0.07293,0.01269 -0.111328,0.002 -0.01244,-0.0046 -0.132897,-0.07737 -0.289062,-0.210938 l -1.84961,-1.582031 0.486329,-0.570313 -0.640625,-0.546875 -0.486329,0.56836 z m 0.185547,0.503906 1.08789,0.931641 0.486328,-0.56836 0.238282,0.203125 -0.486328,0.56836 2.050781,1.755859 c 0.16519,0.14129 0.267305,0.224182 0.380859,0.261719 l 0.002,0.002 h 0.002 c 0.08806,0.02541 0.183781,0.02405 0.271485,-0.0039 h 0.002 c 0.09987,-0.03415 0.184652,-0.104545 0.265625,-0.199219 0.0378,-0.04419 0.08201,-0.115297 0.125,-0.177734 l 0.347656,0.210937 c -0.07636,0.12745 -0.154036,0.254389 -0.230469,0.34375 -0.166493,0.194656 -0.320105,0.309494 -0.449218,0.355469 -0.140043,0.04987 -0.259417,0.05246 -0.375,0.01758 v 0.002 c -0.09757,-0.03022 -0.34689,-0.192199 -0.681641,-0.478516 l -2.019531,-1.728515 -0.355469,0.416015 -0.238281,-0.205078 0.355469,-0.414062 -0.871094,-0.744141 z m -0.363282,3.021484 c -0.219137,0.0068 -0.439116,0.08698 -0.65625,0.230469 -0.218149,0.139977 -0.407024,0.328055 -0.5625,0.560547 -0.300834,0.449856 -0.275902,0.936285 -0.158203,1.417969 l -0.46289,-0.310547 -0.517578,0.777344 3.86914,2.585937 0.560547,-0.83789 -2.103516,-1.40625 C 83.462231,75.45761 83.243445,75.172844 83.210937,74.931641 v -0.002 c -0.03425,-0.273833 0.02531,-0.52015 0.185547,-0.759765 0.09907,-0.148151 0.211441,-0.246846 0.34375,-0.306641 h 0.002 l 0.002,-0.002 c 0.132844,-0.06358 0.255088,-0.07651 0.384765,-0.04687 0.126266,0.02804 0.321395,0.121308 0.566406,0.285156 l 2.330079,1.558594 0.560546,-0.839844 -2.353515,-1.574218 C 84.943113,73.05067 84.735401,72.927028 84.585937,72.865234 h -0.002 c -0.21536,-0.08718 -0.428756,-0.129542 -0.638672,-0.123047 z m 0.0078,0.263672 c 0.169243,-0.0052 0.344769,0.02802 0.53125,0.103516 0.110278,0.04559 0.318119,0.16592 0.601562,0.355469 l 2.134766,1.425781 -0.267578,0.400391 -2.109375,-1.41211 c -0.259008,-0.173208 -0.47074,-0.281066 -0.65625,-0.322265 -0.185394,-0.04237 -0.376506,-0.01795 -0.554688,0.06641 -0.181297,0.08193 -0.335486,0.218638 -0.457031,0.40039 -0.19175,0.286735 -0.270821,0.607466 -0.228515,0.941407 h 0.002 c 0.04812,0.362574 0.33608,0.693107 0.818359,1.015625 l 1.882813,1.257812 -0.265625,0.398438 -3.429688,-2.291016 0.224609,-0.337891 0.771485,0.515625 -0.167969,-0.402343 c -0.206969,-0.500595 -0.155116,-0.962168 0.164063,-1.439453 0.138142,-0.206573 0.299947,-0.36714 0.486328,-0.486329 v -0.002 h 0.002 c 0.186851,-0.123475 0.357556,-0.182567 0.517578,-0.1875 z m -2.802734,4.361328 c -0.551638,0.18148 -0.968279,0.564593 -1.226563,1.125 -0.266207,0.577609 -0.290938,1.156476 -0.06641,1.705079 0.226337,0.553011 0.699192,0.989922 1.390625,1.308593 0.669314,0.308477 1.290856,0.37834 1.845703,0.191407 h 0.002 c 0.551395,-0.190164 0.973788,-0.603153 1.253906,-1.210938 0.222397,-0.482543 0.292317,-0.946956 0.197266,-1.380859 -0.09454,-0.431556 -0.337321,-0.809573 -0.712891,-1.123047 l -0.117187,-0.09766 -0.542969,0.876953 0.07422,0.07422 c 0.225519,0.221816 0.352096,0.434708 0.394531,0.636719 0.04327,0.205983 0.01662,0.415814 -0.08789,0.642578 -0.140523,0.304899 -0.351921,0.498746 -0.65625,0.603516 -0.257797,0.08875 -0.583156,0.03391 -0.9375,-0.07813 l 1.347657,-2.923828 -0.115235,-0.05664 c -0.07956,-0.03972 -0.139101,-0.07023 -0.18164,-0.08984 -0.678854,-0.312873 -1.304761,-0.386226 -1.861328,-0.203125 z m 0.08203,0.25 c 0.480784,-0.15817 1.030229,-0.100564 1.667969,0.19336 0.01291,0.006 0.04267,0.02071 0.06055,0.0293 l -1.375,2.984375 0.13086,0.05078 c 0.469126,0.184546 0.895274,0.221921 1.267578,0.09375 0.366577,-0.1262 0.64421,-0.381281 0.810547,-0.742188 0.123902,-0.268835 0.162966,-0.542224 0.107422,-0.80664 -0.0491,-0.233732 -0.210365,-0.455001 -0.408203,-0.671875 l 0.259765,-0.421875 c 0.256897,0.251956 0.46543,0.517638 0.535156,0.835937 0.08094,0.369467 0.02475,0.769314 -0.179687,1.212891 -0.257463,0.558627 -0.619049,0.906531 -1.099609,1.072266 -0.479807,0.161651 -1.023136,0.107452 -1.650391,-0.181641 -0.650189,-0.299662 -1.059695,-0.688678 -1.255859,-1.167969 -0.197969,-0.483701 -0.180827,-0.970415 0.06055,-1.49414 0.233154,-0.505882 0.582645,-0.826536 1.06836,-0.986329 z m 0.113281,0.394532 c -0.392873,0.104124 -0.689272,0.355199 -0.861328,0.728515 -0.155402,0.337182 -0.175154,0.690492 -0.05469,1.029297 0.12262,0.338497 0.374997,0.609976 0.734375,0.804688 l 0.123047,0.06641 1.146485,-2.484375 -0.136719,-0.04883 c -0.364624,-0.13003 -0.681465,-0.168707 -0.951172,-0.0957 z m 0.06836,0.253906 c 0.158398,-0.04287 0.394305,0.0041 0.644532,0.07227 l -0.873047,1.890625 c -0.228771,-0.155278 -0.425606,-0.321893 -0.507813,-0.548829 -0.09892,-0.278209 -0.08382,-0.544556 0.04687,-0.828125 0.144033,-0.312512 0.363276,-0.497536 0.689453,-0.583984 z m -1.421875,3.986328 c -0.507837,-0.121636 -0.934386,-0.09797 -1.261718,0.09766 -0.32571,0.192143 -0.543241,0.527242 -0.650391,0.97461 -0.125176,0.522626 0.07066,1.009056 0.416016,1.455078 -0.221586,0.04858 -0.435089,0.118066 -0.59961,0.27539 -0.202572,0.191381 -0.339905,0.460843 -0.419922,0.794922 -0.0727,0.303528 -0.07061,0.598331 0.01172,0.875 0.04619,0.15997 0.154315,0.282172 0.240235,0.417969 l -0.435547,-0.103516 -0.216797,0.904297 4.527344,1.083985 0.234375,-0.980469 -2.34375,-0.5625 c -0.380063,-0.09103 -0.655227,-0.198747 -0.820313,-0.310547 -0.16696,-0.11307 -0.27311,-0.24909 -0.330078,-0.417969 v -0.002 c -0.05773,-0.177348 -0.06471,-0.350781 -0.02148,-0.53125 0.05803,-0.242297 0.157736,-0.370735 0.302734,-0.43164 0.150285,-0.06314 0.377688,-0.06936 0.683594,0.0039 l 2.902343,0.695312 0.236329,-0.980468 -2.609375,-0.625 c -0.420215,-0.100647 -0.679406,-0.264556 -0.804688,-0.46875 -0.135875,-0.218164 -0.17049,-0.447278 -0.105469,-0.71875 0.035,-0.146118 0.09552,-0.255849 0.183594,-0.341797 0.08895,-0.08681 0.180452,-0.130891 0.291016,-0.142578 h 0.002 l 0.002,-0.002 c 0.103974,-0.01366 0.309475,0.0086 0.591797,0.07617 l 2.818359,0.673828 0.234375,-0.976562 z m -0.0625,0.257813 2.802735,0.669921 -0.111328,0.462891 -2.560547,-0.613281 c -0.294958,-0.07065 -0.514867,-0.101841 -0.685547,-0.08008 -0.168568,0.01782 -0.323657,0.09426 -0.449219,0.216797 -0.126447,0.123403 -0.211253,0.282514 -0.255859,0.46875 -0.07861,0.328225 -0.03161,0.645505 0.138672,0.919921 0.176389,0.287495 0.507882,0.476022 0.966797,0.585938 l 2.351562,0.564453 -0.111328,0.464844 -2.644531,-0.632813 c -0.33736,-0.0808 -0.621769,-0.08596 -0.84961,0.0098 -0.233126,0.09792 -0.386672,0.319523 -0.457031,0.613281 -0.05419,0.226271 -0.04335,0.455969 0.0293,0.677735 0.0754,0.224872 0.223556,0.413766 0.431641,0.554687 0.210442,0.142517 0.510987,0.254471 0.908203,0.349609 l 2.085937,0.5 -0.111328,0.464844 -4.011719,-0.960937 0.0918,-0.388672 0.910156,0.216797 -0.3125,-0.324219 c -0.162281,-0.168813 -0.276587,-0.368137 -0.34375,-0.601563 -0.06841,-0.229883 -0.07121,-0.473592 -0.0078,-0.738281 0.07149,-0.298464 0.187362,-0.514362 0.34375,-0.662109 v -0.002 h 0.002 c 0.159976,-0.15298 0.344499,-0.237831 0.574219,-0.261719 l 0.261719,-0.02734 -0.177735,-0.193359 c -0.395501,-0.432884 -0.520609,-0.875026 -0.40039,-1.376953 0.09571,-0.399598 0.272191,-0.660028 0.527343,-0.810547 0.248168,-0.148317 0.596673,-0.178449 1.064453,-0.06641 z m -4.572265,6.851562 -0.08594,1.003906 1.115235,0.0957 0.08594,-1.003906 z m 1.664062,0.142578 -0.08594,1.00586 4.636719,0.396484 0.08594,-1.003906 z m -1.423828,0.142578 0.589844,0.05078 -0.04102,0.478515 -0.589843,-0.05078 z m 1.664063,0.142578 4.111328,0.353516 -0.04102,0.478516 -4.111328,-0.353516 z m -0.179688,1.228516 -0.05664,0.0918 c -0.1718,0.274118 -0.263698,0.553124 -0.265625,0.832031 -0.0014,0.198827 0.05622,0.387679 0.167968,0.554688 v 0.002 c 0.06212,0.09108 0.22395,0.178465 0.337891,0.265625 l -0.412109,-0.0039 -0.0078,0.935546 4.65625,0.03125 0.0059,-1.007812 -2.429687,-0.01758 C 78.775544,92.699064 78.499802,92.658103 78.25,92.578125 78.098458,92.528851 77.990489,92.4525 77.912109,92.345703 v -0.002 c -0.08221,-0.108897 -0.120086,-0.221723 -0.11914,-0.357422 0.0011,-0.15584 0.04767,-0.313926 0.146484,-0.478516 L 78.019533,91.373 Z m 0.132813,0.332031 0.453125,0.171875 c -0.06935,0.152501 -0.139528,0.305419 -0.140625,0.462891 -0.0013,0.188656 0.05847,0.366466 0.171875,0.517578 0.112736,0.153611 0.273803,0.264739 0.46875,0.328125 h 0.002 c 0.278199,0.08907 0.58046,0.134449 0.90625,0.136719 l 2.166015,0.01563 -0.0039,0.478515 -4.126953,-0.0293 0.0039,-0.404297 0.533203,0.0039 0.06641,-0.248047 c -0.301792,-0.168331 -0.492778,-0.324731 -0.56836,-0.435547 -0.08388,-0.125994 -0.124076,-0.256519 -0.123047,-0.404297 0.0013,-0.190607 0.08119,-0.389768 0.191407,-0.59375 z m 2.695312,3.179688 -0.0039,0.927734 0.128906,-0.130859 -0.02539,0.259765 c 0.308262,0.07096 0.528029,0.18602 0.669921,0.335938 0.144686,0.152866 0.230129,0.345827 0.259766,0.59375 0.03985,0.33335 -0.03772,0.60886 -0.242187,0.857422 -0.173298,0.210663 -0.478996,0.335787 -0.839844,0.425781 l -0.382813,-3.197266 -0.126953,0.0098 c -0.08861,0.0078 -0.156507,0.01392 -0.203125,0.01953 -0.742198,0.08873 -1.314959,0.353448 -1.693359,0.800782 -0.375048,0.44337 -0.528328,0.988861 -0.455078,1.601562 0.0755,0.631506 0.359423,1.138354 0.83789,1.488281 0.482313,0.352741 1.113189,0.477095 1.869141,0.386719 0.731768,-0.08749 1.296948,-0.353037 1.671875,-0.802734 l 0.002,-0.002 c 0.370296,-0.450644 0.513037,-1.023002 0.433594,-1.6875 -0.06307,-0.527571 -0.246584,-0.95933 -0.554688,-1.279297 -0.306436,-0.318236 -0.711221,-0.51346 -1.195312,-0.583985 z m 0.263672,0.357422 c 0.350767,0.08022 0.666565,0.198878 0.892578,0.433593 0.262349,0.272452 0.424443,0.641985 0.482422,1.126954 0.07302,0.610752 -0.05423,1.095529 -0.376953,1.488281 -0.324221,0.388878 -0.816168,0.626996 -1.501953,0.708984 -0.71086,0.08499 -1.263624,-0.03217 -1.681641,-0.33789 -0.421862,-0.308529 -0.66006,-0.732094 -0.728515,-1.304688 -0.06612,-0.553087 0.0643,-1.008051 0.394531,-1.398437 0.326876,-0.386424 0.824237,-0.625626 1.521484,-0.708985 0.01405,-0.0017 0.04676,-0.0038 0.06641,-0.0059 l 0.390625,3.261719 0.136719,-0.02539 c 0.496325,-0.0883 0.880714,-0.279903 1.13086,-0.583984 0.246296,-0.299405 0.349908,-0.662058 0.302734,-1.056641 -0.03514,-0.293921 -0.146302,-0.547909 -0.332031,-0.744141 -0.164246,-0.173535 -0.416958,-0.278136 -0.699219,-0.359375 z m -1.216797,0.546875 -0.140625,0.0293 c -0.378051,0.07991 -0.667764,0.213276 -0.859375,0.416015 -0.280257,0.294358 -0.402311,0.664115 -0.353515,1.072266 0.04407,0.368646 0.212201,0.680618 0.492187,0.90625 0.281657,0.224245 0.638742,0.322977 1.046875,0.300781 l 0.140625,-0.0078 z m -0.222656,0.351562 0.248047,2.06836 c -0.277109,-0.012 -0.531362,-0.05287 -0.720703,-0.203125 -0.22991,-0.185278 -0.359422,-0.42044 -0.396485,-0.730469 -0.04085,-0.341674 0.05052,-0.614988 0.283203,-0.859375 0.112253,-0.119149 0.338017,-0.202505 0.585938,-0.275391 z m 2.337891,3.759766 c -0.41205,-0.06085 -0.843491,-0.02741 -1.291016,0.09961 -0.417797,0.118582 -0.784184,0.303016 -1.095703,0.550778 -0.316793,0.25053 -0.538595,0.55613 -0.654297,0.91016 -0.115643,0.3538 -0.118307,0.7289 -0.0098,1.11133 0.08274,0.29151 0.21475,0.53149 0.396485,0.71289 3.7e-4,3.7e-4 0.0016,-3.8e-4 0.002,0 3.8e-4,3.8e-4 -3.81e-4,0.002 0,0.002 0.104383,0.10561 0.261806,0.16701 0.40039,0.24414 l -0.390625,0.11133 0.257813,0.90625 6.095703,-1.73047 -0.275391,-0.9707 -1.916015,0.54297 c 0.05174,-0.11265 0.120608,-0.21427 0.148437,-0.3418 0.05129,-0.24175 0.03766,-0.49542 -0.03516,-0.75195 -0.09932,-0.34992 -0.29349,-0.65695 -0.576172,-0.91407 -0.289556,-0.262079 -0.645702,-0.423205 -1.05664,-0.482417 z m -0.03906,0.261719 c 0.365708,0.05269 0.667771,0.191508 0.917969,0.417969 0.249521,0.22735 0.414345,0.48727 0.5,0.78906 0.06264,0.22071 0.07114,0.42777 0.0293,0.625 -0.04395,0.20029 -0.118875,0.37378 -0.226563,0.52344 l -0.222656,0.30859 2.294922,-0.65039 0.128906,0.46094 -5.585937,1.58594 -0.113282,-0.39844 0.81836,-0.23242 -0.388672,-0.13867 c -0.243381,-0.0874 -0.433183,-0.20636 -0.578125,-0.35352 h -0.002 c -0.144618,-0.14378 -0.254609,-0.34059 -0.328125,-0.59961 -0.09615,-0.33875 -0.09319,-0.65401 0.0059,-0.95703 0.09896,-0.30281 0.284222,-0.56199 0.566406,-0.78516 0.282157,-0.22441 0.615692,-0.39176 1.003907,-0.501949 0.416815,-0.118304 0.808285,-0.148597 1.179687,-0.09375 z m 0.392578,0.564449 c -0.376515,-0.16992 -0.85954,-0.1573 -1.441406,0.008 -0.555114,0.15756 -0.956212,0.39448 -1.185547,0.72851 -0.222554,0.32092 -0.295042,0.67309 -0.197266,1.01758 0.09785,0.34475 0.355438,0.60752 0.734375,0.77344 0.387888,0.16937 0.867954,0.16319 1.429688,0.004 l 0.0957,-0.0273 v -0.0312 c 0.491677,-0.15766 0.885092,-0.36122 1.089844,-0.66602 0.214614,-0.31947 0.278485,-0.67339 0.179687,-1.02148 -0.100437,-0.35386 -0.34536,-0.62321 -0.705078,-0.78516 z m -0.109375,0.24219 c 0.303785,0.13677 0.480378,0.33278 0.560547,0.61524 0.0788,0.27762 0.03365,0.53263 -0.146484,0.80078 -0.172004,0.25604 -0.510758,0.46975 -1.03711,0.61914 -0.52532,0.14896 -0.940007,0.14402 -1.251953,0.008 -0.327704,-0.14348 -0.508751,-0.33845 -0.583984,-0.60352 -0.07681,-0.27061 -0.0299,-0.52368 0.158203,-0.79492 0.179954,-0.26276 0.520344,-0.47721 1.041016,-0.625 0.54761,-0.1554 0.965971,-0.15212 1.259765,-0.0195 z m 1.898438,2.52735 -1.521485,2.58398 -2.671875,-0.56055 0.501953,1.10938 1.31836,0.25781 c 0.112913,0.0231 0.250689,0.0452 0.382812,0.0684 -0.0669,0.0987 -0.128635,0.18793 -0.210937,0.31641 l -0.697266,1.10156 0.519531,1.14258 1.388672,-2.36133 2.898438,0.54687 -0.50586,-1.11718 -1.927734,-0.31446 0.128906,-0.20117 0.908203,-1.44336 z m -0.03125,0.57226 0.24414,0.53516 -0.832031,1.32422 -0.34375,0.53906 2.181641,0.35547 0.238281,0.52539 -2.582031,-0.48828 -1.22461,2.08398 -0.25,-0.55078 0.621094,-0.97852 c 0.12504,-0.19518 0.231616,-0.35416 0.318359,-0.47656 l 0.123047,-0.17187 -0.210937,-0.0352 c -0.214383,-0.035 -0.404292,-0.0692 -0.572266,-0.10352 h -0.002 l -1.183594,-0.23242 -0.232422,-0.50976 2.347657,0.49414 z m 1.984375,3.74414 -0.8125,0.54688 2.072265,3.08984 -1.492187,1.00195 -1.869141,-2.7832 -0.808594,0.54297 1.867188,2.7832 -1.320313,0.88867 -1.996093,-2.97265 -0.8125,0.54687 2.589843,3.85742 5.251954,-3.52734 z m -0.07227,0.36719 2.373047,3.53516 -4.810547,3.23046 -2.294922,-3.41601 0.373047,-0.25195 1.996094,2.97265 1.761719,-1.18359 -1.869141,-2.78321 0.369141,-0.24804 1.86914,2.7832 1.933594,-1.29883 -2.074219,-3.08789 z"
         id="path14" />
    </g>
    <path
       d="m 135.73285,75.615772 5.20981,-3.096613 1.37298,2.30994 q 0.41401,0.696535 0.48731,1.14351 0.0769,0.444862 -0.14966,0.872869 -0.22653,0.428008 -0.65653,0.683595 -0.55439,0.329516 -1.14798,0.196602 -0.5936,-0.132914 -1.14235,-0.8215 0.0312,0.351794 -0.0123,0.569986 -0.0977,0.466827 -0.35291,0.98405 l -0.87931,1.74901 -0.5154,-0.867116 0.67411,-1.333676 q 0.28955,-0.580891 0.42214,-0.924207 0.13259,-0.343317 0.13915,-0.558826 0.009,-0.211955 -0.0473,-0.395109 -0.0448,-0.13206 -0.20325,-0.398592 l -0.47527,-0.799594 -2.31349,1.375099 z m 3.32031,-1.040535 0.88083,1.481915 q 0.28093,0.472649 0.5353,0.682149 0.25793,0.207387 0.55353,0.219247 0.29916,0.0097 0.55148,-0.140226 0.36959,-0.219678 0.44716,-0.631286 0.0797,-0.408055 -0.26463,-0.987317 l -0.9801,-1.648941 z m 1.97774,8.614576 0.17828,0.754012 q -0.69505,0.06382 -1.21499,-0.268029 -0.51995,-0.331846 -0.78594,-1.048912 -0.33501,-0.903116 0.0223,-1.639739 0.3626,-0.734184 1.3665,-1.106575 1.03877,-0.385332 1.81084,-0.06323 0.77207,0.322098 1.08839,1.174825 0.30625,0.825595 -0.0617,1.557341 -0.36792,0.731747 -1.38732,1.109889 -0.062,0.023 -0.18748,0.06514 l -1.13875,-3.069818 q -0.66392,0.290376 -0.89643,0.769058 -0.23251,0.478683 -0.0413,0.994196 0.14234,0.383727 0.44454,0.580284 0.3022,0.196556 0.80302,0.191564 z m 0.27819,-2.709137 0.85261,2.298488 q 0.50214,-0.239178 0.68132,-0.552569 0.27945,-0.48287 0.0825,-1.013887 -0.17828,-0.480628 -0.62221,-0.690753 -0.44249,-0.206249 -0.99419,-0.04128 z m -1.098,5.014077 3.70503,-0.895242 -0.15439,-0.638937 0.56259,-0.135937 0.15439,0.638937 0.45408,-0.10972 q 0.42998,-0.103895 0.65739,-0.07803 0.30654,0.03651 0.54244,0.255961 0.2409,0.222496 0.35548,0.696675 0.0738,0.305404 0.0908,0.692581 l -0.65712,0.04394 q -0.0142,-0.234744 -0.0627,-0.435668 -0.0796,-0.329514 -0.25328,-0.432158 -0.17366,-0.102644 -0.55943,-0.0094 l -0.39381,0.09516 0.20099,0.831823 -0.56258,0.135937 -0.201,-0.831823 -3.70503,0.895241 z m 0.46129,2.107891 5.97704,-1.003019 0.12315,0.73388 -5.97704,1.003018 z m 1.91064,4.794555 -0.0519,0.773063 q -0.68299,-0.143886 -1.08202,-0.614243 -0.39903,-0.470356 -0.44185,-1.233967 -0.0539,-0.961739 0.50461,-1.560324 0.56289,-0.594689 1.63195,-0.654639 1.10621,-0.06203 1.74904,0.473323 0.64283,0.535356 0.69375,1.443435 0.0493,0.879185 -0.51795,1.469978 -0.56726,0.590793 -1.65283,0.651669 -0.066,0.0037 -0.19836,0.007 l -0.18332,-3.269084 q -0.72002,0.08178 -1.08329,0.470668 -0.36327,0.388886 -0.33248,0.937861 0.0229,0.408636 0.25375,0.685533 0.23084,0.276898 0.71088,0.419744 z m 1.06435,-2.506787 0.13726,2.447685 q 0.55032,-0.08055 0.81391,-0.327203 0.40937,-0.379049 0.37766,-0.944535 -0.0287,-0.511826 -0.39097,-0.843463 -0.36204,-0.327509 -0.93786,-0.332484 z m -1.14852,7.295699 -0.16304,0.719652 q -0.74203,-0.190057 -1.12374,-0.724156 -0.37798,-0.529596 -0.31077,-1.245785 0.0842,-0.897294 0.72007,-1.389871 0.63958,-0.488075 1.73445,-0.38532 0.70796,0.06644 1.2169,0.35089 0.50895,0.284446 0.72757,0.786628 0.22234,0.506685 0.16942,1.070581 -0.0668,0.712073 -0.47153,1.130842 -0.40059,0.419155 -1.07525,0.484558 l -0.0435,-0.730736 q 0.45008,-0.06157 0.69706,-0.304132 0.24661,-0.23845 0.28137,-0.608892 0.0525,-0.55978 -0.318,-0.9475 -0.36641,-0.387333 -1.2349,-0.468842 -0.88083,-0.08267 -1.31176,0.217375 -0.43093,0.300044 -0.48192,0.843359 -0.0409,0.436299 0.19917,0.753647 0.24011,0.317347 0.78843,0.447702 z m -1.51841,2.924469 -0.66548,-0.0277 q -0.001,-0.32108 0.049,-0.563996 0.082,-0.396762 0.25266,-0.589454 0.17067,-0.192693 0.39151,-0.239936 0.22488,-0.04641 0.88075,0.08911 l 2.4737,0.511115 0.11042,-0.534415 0.5668,0.117113 -0.11042,0.534415 1.06478,0.220005 0.28751,0.815043 -1.50203,-0.31035 -0.15141,0.7328 -0.5668,-0.11712 0.15141,-0.73279 -2.51418,-0.519482 q -0.31174,-0.06441 -0.40834,-0.04638 -0.0974,0.02208 -0.16763,0.09623 -0.071,0.0782 -0.1045,0.240139 -0.0251,0.121458 -0.0377,0.325693 z m 4.16298,1.98263 0.8237,0.23203 -0.20176,0.71626 -0.82371,-0.23202 z m -5.00988,-1.41123 4.22596,1.19041 -0.20176,0.71627 -4.22597,-1.19041 z m 1.64417,2.38242 q 1.13038,0.45781 1.41998,1.30659 0.23953,0.70808 -0.0662,1.46294 -0.33987,0.83916 -1.10736,1.1483 -0.76366,0.3107 -1.7331,-0.0819 -0.78551,-0.31814 -1.14144,-0.73883 -0.35366,-0.41532 -0.4196,-0.96834 -0.0675,-0.54919 0.14823,-1.08181 0.34607,-0.85448 1.10818,-1.16134 0.76056,-0.30303 1.7913,0.11443 z m -0.2871,0.70888 q -0.78168,-0.31659 -1.31064,-0.13386 -0.52513,0.18429 -0.73464,0.70158 -0.20795,0.51345 0.0448,1.01278 0.25272,0.49932 1.05356,0.82367 0.75486,0.30572 1.28154,0.11761 0.52896,-0.18274 0.73536,-0.69236 0.20951,-0.51729 -0.0394,-1.01506 -0.24889,-0.49777 -1.03057,-0.81436 z m -3.70212,3.05766 3.76036,2.26619 -0.34569,0.57362 -0.53467,-0.32222 q 0.36998,0.78771 -0.10161,1.57023 -0.20485,0.33992 -0.49949,0.5485 -0.29324,0.21425 -0.57688,0.23638 -0.28364,0.0221 -0.59043,-0.0855 -0.19838,-0.0713 -0.64098,-0.33802 l -2.31216,-1.39343 0.3841,-0.63735 2.28738,1.3785 q 0.38949,0.23472 0.6255,0.2756 0.23956,0.043 0.4681,-0.0799 0.22994,-0.11724 0.38358,-0.37218 0.2454,-0.4072 0.16616,-0.8604 -0.0814,-0.44966 -0.80369,-0.88498 l -2.05368,-1.23765 z"
       id="text9"
       style="font-size:8.46667px;font-family:Arial;-inkscape-font-specification:Arial;stroke:#1a1a1a;stroke-width:0.264583"
       aria-label="Reflection" />
    <path
       d="m 93.965362,66.370291 -2.824479,-4.78399 3.459093,-2.042257 0.333312,0.56455 -2.826014,1.668485 0.865069,1.46522 2.646532,-1.562519 0.331385,0.561287 -2.646532,1.562518 0.961402,1.628385 2.936965,-1.733992 0.333312,0.564551 z m 4.011631,-2.300911 0.585093,-2.489082 -1.98261,-1.286644 0.791267,-0.317691 0.924807,0.645519 q 0.262019,0.184738 0.428262,0.314007 0.06155,-0.294231 0.119657,-0.525828 l 0.275094,-1.135443 0.756098,-0.303571 -0.584662,2.27656 2.182631,1.418684 -0.7772,0.312043 -1.232593,-0.852717 -0.329635,-0.231096 -0.389559,1.867451 z m 4.420267,-0.06847 -1.34842,-5.401154 0.60299,-0.150538 0.12667,0.507392 q 0.1389,-0.351056 0.37059,-0.565134 0.23077,-0.217755 0.61315,-0.313218 0.50004,-0.124837 0.94668,0.03707 0.44663,0.16191 0.75899,0.583885 0.31145,0.418298 0.45097,0.977165 0.14962,0.599311 0.0529,1.135123 -0.0939,0.531218 -0.44147,0.891397 -0.34478,0.355585 -0.79702,0.468489 -0.33091,0.08261 -0.63052,0.009 -0.29593,-0.07454 -0.5183,-0.245572 l 0.47457,1.900883 z m -0.25619,-3.576356 q 0.18818,0.753735 0.5833,1.03787 0.39513,0.284135 0.82899,0.175821 0.44121,-0.11015 0.66102,-0.559525 0.22258,-0.45397 0.0271,-1.237119 -0.18634,-0.746381 -0.58789,-1.040629 -0.39788,-0.295165 -0.82439,-0.188687 -0.42282,0.10556 -0.65092,0.584344 -0.22534,0.47419 -0.0372,1.227925 z m 6.70249,-0.459405 0.71005,0.0162 q -0.10411,0.631288 -0.51868,1.01576 -0.41458,0.384472 -1.11214,0.454615 -0.87855,0.08834 -1.44934,-0.398909 -0.56739,-0.4914 -0.66559,-1.467983 -0.10162,-1.010518 0.36261,-1.620888 0.46423,-0.61037 1.29376,-0.693783 0.80313,-0.08076 1.36714,0.414791 0.56401,0.49555 0.66372,1.487216 0.006,0.06033 0.0144,0.181367 l -2.98631,0.300287 q 0.10406,0.656062 0.4749,0.972982 0.37085,0.316921 0.87234,0.266494 0.37328,-0.03754 0.61751,-0.260147 0.24423,-0.222612 0.3556,-0.668004 z m -2.33875,-0.873164 2.23595,-0.224836 q -0.096,-0.500709 -0.3326,-0.732106 -0.36371,-0.359535 -0.88028,-0.307591 -0.46755,0.04702 -0.75658,0.392201 -0.28526,0.344808 -0.26649,0.872332 z m 4.02314,2.115104 0.0613,-4.024092 0.61385,0.0094 -0.009,0.610056 q 0.24145,-0.424595 0.44057,-0.558001 0.2029,-0.133349 0.44162,-0.12971 0.34481,0.0053 0.69765,0.230456 l -0.24458,0.62921 q -0.24783,-0.15159 -0.49791,-0.155402 -0.22357,-0.0034 -0.40374,0.130288 -0.18011,0.129906 -0.25953,0.367468 -0.11922,0.362027 -0.1258,0.793992 l -0.0321,2.106776 z m 3.01019,-4.66073 0.0684,-0.781459 0.67953,0.0595 -0.0684,0.781459 z m -0.41614,4.752929 0.35102,-4.009222 0.67953,0.0595 -0.35102,4.009222 z m 4.6677,-0.620323 0.67607,0.21763 q -0.27948,0.575547 -0.78634,0.826117 -0.50686,0.250571 -1.19553,0.119269 -0.86735,-0.16537 -1.27585,-0.794929 -0.40406,-0.632571 -0.22024,-1.596711 0.19021,-0.997644 0.80896,-1.450637 0.61876,-0.452993 1.43772,-0.29685 0.7929,0.151174 1.19253,0.786759 0.39964,0.635584 0.21297,1.614615 -0.0114,0.05956 -0.0378,0.177972 l -2.94826,-0.562114 q -0.087,0.658544 0.17833,1.067908 0.2653,0.409364 0.7604,0.503759 0.36853,0.07026 0.66601,-0.07363 0.29749,-0.143891 0.53102,-0.539162 z m -1.99349,-1.502718 2.20747,0.420875 q 0.0504,-0.507338 -0.11047,-0.796494 -0.24633,-0.448183 -0.75632,-0.545417 -0.46159,-0.08801 -0.83692,0.160636 -0.3716,0.249353 -0.50376,0.7604 z m 3.27312,3.141631 1.31491,-3.803693 0.58023,0.20058 -0.18696,0.540826 q 0.63572,-0.481922 1.42726,-0.208291 0.34384,0.118862 0.58704,0.343271 0.24801,0.222066 0.32194,0.472163 0.0739,0.250097 0.0359,0.545693 -0.0261,0.191464 -0.18086,0.639168 l -0.80851,2.338806 -0.6447,-0.222867 0.79985,-2.313735 q 0.13619,-0.393979 0.12784,-0.613388 -0.007,-0.222991 -0.1609,-0.404464 -0.14897,-0.183815 -0.40685,-0.272962 -0.41189,-0.142387 -0.80313,0.01507 -0.38766,0.158692 -0.64024,0.889345 l -0.71813,2.077347 z m 7.06163,1.366197 0.55856,0.381475 q -0.41205,0.568538 -0.99598,0.713984 -0.57883,0.143784 -1.16673,-0.154832 -0.73656,-0.374127 -0.94224,-1.082159 -0.20058,-0.709695 0.25593,-1.608437 0.29518,-0.581142 0.70916,-0.919176 0.41397,-0.338034 0.91574,-0.355195 0.50686,-0.01882 0.96975,0.216292 0.58452,0.2969 0.80516,0.783008 0.22235,0.48273 0.0508,1.079907 l -0.63761,-0.209106 q 0.0992,-0.404429 -0.0244,-0.696716 -0.12019,-0.290571 -0.42427,-0.445027 -0.45951,-0.233401 -0.91489,-0.04816 -0.45366,0.181862 -0.81578,0.894774 -0.36726,0.723048 -0.25667,1.191512 0.11058,0.468464 0.55658,0.695 0.35814,0.181915 0.70958,0.08415 0.35145,-0.09777 0.64733,-0.521289 z m 3.43045,2.440596 0.52918,0.473715 q -0.48935,0.41219 -1.0543,0.435028 -0.56496,0.02284 -1.14075,-0.37713 -0.72518,-0.503743 -0.84241,-1.245006 -0.11196,-0.742213 0.44799,-1.548319 0.57942,-0.834118 1.3289,-0.996396 0.74948,-0.162278 1.43421,0.313359 0.66293,0.460504 0.76962,1.203667 0.10668,0.743163 -0.46192,1.561719 -0.0346,0.0498 -0.10689,0.147233 l -2.46501,-1.712295 q -0.34722,0.566287 -0.27128,1.048155 0.0759,0.481868 0.48988,0.769413 0.30813,0.214037 0.63842,0.203532 0.33029,-0.0105 0.70436,-0.276675 z m -1.21028,-2.183437 1.84564,1.282059 q 0.25236,-0.443003 0.22292,-0.772604 -0.0428,-0.509618 -0.46921,-0.805811 -0.38594,-0.268086 -0.82994,-0.193528 -0.44088,0.07672 -0.76941,0.489884 z"
       id="text14"
       style="font-size:7.76111px;font-family:Arial;-inkscape-font-specification:'Arial, Normal';stroke:#1a1a1a;stroke-width:0.264583"
       aria-label="Experience" />
    <text
       xml:space="preserve"
       style="font-style:normal;font-variant:normal;font-weight:normal;font-stretch:normal;font-size:7.05556px;font-family:Arial;-inkscape-font-specification:'Arial, Normal';font-variant-ligatures:normal;font-variant-caps:normal;font-variant-numeric:normal;font-variant-east-asian:normal;text-align:start;writing-mode:lr-tb;direction:ltr;text-anchor:start;fill:#000000;fill-opacity:1;stroke:none;stroke-width:0.765;stroke-dasharray:none"
       x="65.674873"
       y="28.935961"
       id="text37"><tspan
         sodipodi:role="line"
         id="tspan37"
         style="font-size:7.05556px;fill:#000000;fill-opacity:1;stroke-width:0.765"
         x="65.674873"
         y="28.935961">Application/</tspan><tspan
         sodipodi:role="line"
         style="font-size:7.05556px;fill:#000000;fill-opacity:1;stroke-width:0.765"
         x="65.674873"
         y="37.755409"
         id="tspan38">Dissemination</tspan></text>
    <text
       xml:space="preserve"
       style="font-style:normal;font-variant:normal;font-weight:normal;font-stretch:normal;font-size:7.05556px;font-family:Arial;-inkscape-font-specification:'Arial, Normal';font-variant-ligatures:normal;font-variant-caps:normal;font-variant-numeric:normal;font-variant-east-asian:normal;text-align:start;writing-mode:lr-tb;direction:ltr;text-anchor:start;fill:#000000;fill-opacity:1;stroke:none;stroke-width:0.765;stroke-dasharray:none"
       x="156.89256"
       y="68.79583"
       id="text37-6"><tspan
         sodipodi:role="line"
         style="font-size:7.05556px;stroke-width:0.765"
         x="156.89256"
         y="68.79583"
         id="tspan38-0">Search &amp;</tspan><tspan
         sodipodi:role="line"
         style="font-size:7.05556px;stroke-width:0.765"
         x="156.89256"
         y="77.61528"
         id="tspan39">Discovery</tspan></text>
    <text
       xml:space="preserve"
       style="font-style:normal;font-variant:normal;font-weight:normal;font-stretch:normal;font-size:7.05556px;font-family:Arial;-inkscape-font-specification:'Arial, Normal';font-variant-ligatures:normal;font-variant-caps:normal;font-variant-numeric:normal;font-variant-east-asian:normal;text-align:start;writing-mode:lr-tb;direction:ltr;text-anchor:start;fill:#000000;fill-opacity:1;stroke:none;stroke-width:0.765;stroke-dasharray:none"
       x="154.51588"
       y="114.11577"
       id="text37-6-7"><tspan
         sodipodi:role="line"
         style="font-size:7.05556px;stroke-width:0.765"
         x="154.51588"
         y="114.11577"
         id="tspan38-0-8">Research</tspan><tspan
         sodipodi:role="line"
         style="font-size:7.05556px;stroke-width:0.765"
         x="154.51588"
         y="122.93522"
         id="tspan40">Hypothesis</tspan><tspan
         sodipodi:role="line"
         style="font-size:7.05556px;stroke-width:0.765"
         x="154.51588"
         y="131.75467"
         id="tspan39-8">/Question</tspan></text>
    <text
       xml:space="preserve"
       style="font-style:normal;font-variant:normal;font-weight:normal;font-stretch:normal;font-size:7.05556px;font-family:Arial;-inkscape-font-specification:'Arial, Normal';font-variant-ligatures:normal;font-variant-caps:normal;font-variant-numeric:normal;font-variant-east-asian:normal;text-align:start;writing-mode:lr-tb;direction:ltr;text-anchor:start;fill:#000000;fill-opacity:1;stroke:none;stroke-width:0.765;stroke-dasharray:none"
       x="120.13319"
       y="146.83575"
       id="text37-6-7-3"><tspan
         sodipodi:role="line"
         style="font-size:7.05556px;stroke-width:0.765"
         x="120.13319"
         y="146.83575"
         id="tspan38-0-8-5">Study</tspan><tspan
         sodipodi:role="line"
         style="font-size:7.05556px;stroke-width:0.765"
         x="120.13319"
         y="155.6552"
         id="tspan39-8-8">Concept-</tspan><tspan
         sodipodi:role="line"
         style="font-size:7.05556px;stroke-width:0.765"
         x="120.13319"
         y="164.47466"
         id="tspan43">ualization</tspan></text>
    <text
       xml:space="preserve"
       style="font-style:normal;font-variant:normal;font-weight:normal;font-stretch:normal;font-size:7.05556px;font-family:Arial;-inkscape-font-specification:'Arial, Normal';font-variant-ligatures:normal;font-variant-caps:normal;font-variant-numeric:normal;font-variant-east-asian:normal;text-align:start;writing-mode:lr-tb;direction:ltr;text-anchor:start;fill:#000000;fill-opacity:1;stroke:none;stroke-width:0.765;stroke-dasharray:none"
       x="73.969131"
       y="149.28877"
       id="text37-6-7-6"><tspan
         sodipodi:role="line"
         style="font-size:7.05556px;stroke-width:0.765"
         x="73.969131"
         y="149.28877"
         id="tspan38-0-8-3">Study</tspan><tspan
         sodipodi:role="line"
         style="font-size:7.05556px;stroke-width:0.765"
         x="73.969131"
         y="158.10822"
         id="tspan39-8-1">Design</tspan></text>
    <text
       xml:space="preserve"
       style="font-style:normal;font-variant:normal;font-weight:normal;font-stretch:normal;font-size:7.05556px;font-family:Arial;-inkscape-font-specification:'Arial, Normal';font-variant-ligatures:normal;font-variant-caps:normal;font-variant-numeric:normal;font-variant-east-asian:normal;text-align:start;writing-mode:lr-tb;direction:ltr;text-anchor:start;fill:#ffffff;fill-opacity:1;stroke:none;stroke-width:0.765;stroke-dasharray:none"
       x="32.168182"
       y="111.73476"
       id="text37-6-7-0"><tspan
         sodipodi:role="line"
         style="font-size:7.05556px;stroke-width:0.765;fill:#ffffff"
         x="32.168182"
         y="111.73476"
         id="tspan40-7">Implemen-</tspan><tspan
         sodipodi:role="line"
         style="font-size:7.05556px;stroke-width:0.765;fill:#ffffff"
         x="32.168182"
         y="120.55421"
         id="tspan45">tation</tspan><tspan
         sodipodi:role="line"
         style="font-size:7.05556px;stroke-width:0.765;fill:#ffffff"
         x="32.168182"
         y="129.37366"
         id="tspan39-8-3" /></text>
    <text
       xml:space="preserve"
       style="font-style:normal;font-variant:normal;font-weight:normal;font-stretch:normal;font-size:7.05556px;font-family:Arial;-inkscape-font-specification:'Arial, Normal';font-variant-ligatures:normal;font-variant-caps:normal;font-variant-numeric:normal;font-variant-east-asian:normal;text-align:start;writing-mode:lr-tb;direction:ltr;text-anchor:start;fill:#ffffff;fill-opacity:1;stroke:none;stroke-width:0.765;stroke-dasharray:none"
       x="36.120541"
       y="60.565472"
       id="text37-6-7-01"><tspan
         sodipodi:role="line"
         style="font-size:7.05556px;stroke-width:0.765;fill:#ffffff"
         x="36.120541"
         y="60.565472"
         id="tspan38-0-8-6">Analysis &amp;</tspan><tspan
         sodipodi:role="line"
         style="font-size:7.05556px;stroke-width:0.765;fill:#ffffff"
         x="36.120541"
         y="69.384918"
         id="tspan39-8-7">Interpre-</tspan><tspan
         sodipodi:role="line"
         style="font-size:7.05556px;stroke-width:0.765;fill:#ffffff"
         x="36.120541"
         y="78.204369"
         id="tspan46">tation</tspan></text>
    <text
       xml:space="preserve"
       style="font-style:normal;font-variant:normal;font-weight:normal;font-stretch:normal;font-size:7.05556px;font-family:Arial;-inkscape-font-specification:'Arial, Normal';font-variant-ligatures:normal;font-variant-caps:normal;font-variant-numeric:normal;font-variant-east-asian:normal;text-align:start;writing-mode:lr-tb;direction:ltr;text-anchor:start;fill:#000000;fill-opacity:1;stroke:none;stroke-width:0.765;stroke-dasharray:none"
       x="120.69504"
       y="30.228348"
       id="text37-7"><tspan
         sodipodi:role="line"
         style="font-size:7.05556px;stroke-width:0.765"
         x="120.69504"
         y="30.228348"
         id="tspan54">Practical</tspan><tspan
         sodipodi:role="line"
         style="font-size:7.05556px;stroke-width:0.765"
         x="120.69504"
         y="39.047798"
         id="tspan55">Application</tspan></text>
  </g>
</svg>
